<svg width="14" height="14" viewBox="0 0 14 14" fill="none" xmlns="http://www.w3.org/2000/svg">
<path d="M14 7C14 7.15471 13.9385 7.30308 13.8291 7.41248C13.7197 7.52188 13.5714 7.58333 13.4167 7.58333H7.58333V13.4167C7.58333 13.5714 7.52188 13.7197 7.41248 13.8291C7.30308 13.9385 7.15471 14 7 14C6.84529 14 6.69692 13.9385 6.58752 13.8291C6.47812 13.7197 6.41667 13.5714 6.41667 13.4167V7.58333H0.583333C0.428624 7.58333 0.280251 7.52188 0.170854 7.41248C0.0614583 7.30308 0 7.15471 0 7C0 6.84529 0.0614583 6.69692 0.170854 6.58752C0.280251 6.47812 0.428624 6.41667 0.583333 6.41667H6.41667V0.583333C6.41667 0.428624 6.47812 0.280251 6.58752 0.170854C6.69692 0.0614583 6.84529 0 7 0C7.15471 0 7.30308 0.0614583 7.41248 0.170854C7.52188 0.280251 7.58333 0.428624 7.58333 0.583333V6.41667H13.4167C13.5714 6.41667 13.7197 6.47812 13.8291 6.58752C13.9385 6.69692 14 6.84529 14 7Z" fill="#FFC107"/>
</svg>
