<svg width="24" height="24" viewBox="0 0 24 24" fill="none" xmlns="http://www.w3.org/2000/svg">
<path d="M23.6045 20.0788C23.6084 20.1136 23.6122 20.1446 23.6122 20.1795C23.6122 20.5975 23.3142 20.9575 22.9 21.031L19.3543 21.6775V3.09733C19.3543 2.88443 19.1801 2.71024 18.9672 2.71024H9.29004V1.93607L20.4614 0.395468C20.5678 0.380804 20.6761 0.387608 20.7799 0.41548C20.8837 0.443351 20.9808 0.491726 21.0656 0.55775C21.1504 0.623774 21.2211 0.706109 21.2736 0.799899C21.326 0.893689 21.3591 0.997034 21.371 1.10384L23.6045 20.0788Z" fill="#FFEAA7"/>
<path d="M18.9675 2.71021H4.25818C4.04528 2.71021 3.87109 2.88439 3.87109 3.09729V23.2258C3.87109 23.4387 4.04528 23.6129 4.25818 23.6129H18.9675C19.1804 23.6129 19.3545 23.4387 19.3545 23.2258V3.09729C19.3545 2.88439 19.1804 2.71021 18.9675 2.71021Z" fill="#F0D0B4"/>
<path d="M13.1611 19.7419H17.8062V22.0645H13.1611V19.7419Z" fill="#FF826E"/>
<path d="M3.87098 22.4517L3.18971 23.1329C2.88155 23.4406 2.4639 23.6134 2.02845 23.6134C1.593 23.6134 1.17534 23.4406 0.86719 23.1329C0.559523 22.8248 0.386719 22.4071 0.386719 21.9717C0.386719 21.5362 0.559523 21.1186 0.86719 20.8104L1.54846 20.1291L3.87098 22.4517ZM8.99987 16.355L8.51602 17.8066L6.1935 15.4841L7.64507 15.0002L8.99987 16.355Z" fill="#AAB2BD"/>
<path d="M9.67673 14.3228L8.99933 16.355L7.64453 15.0002L9.67673 14.3228Z" fill="#AAB2BD"/>
<path d="M8.51638 17.8066L3.87135 22.4517L1.54883 20.1292L3.87135 17.8066L6.19386 15.4841L8.51638 17.8066Z" fill="#FCD770"/>
<path d="M17.8064 4.25854V11.2261H16.6452L16.3936 9.71259C16.3508 9.45665 16.2558 9.21224 16.1147 8.9945C15.9735 8.77676 15.7891 8.59035 15.5729 8.44682C15.2618 8.24072 14.8971 8.13037 14.5239 8.12941H14.3226C14.9652 8.12941 15.4839 7.61071 15.4839 6.96815C15.4839 6.32559 14.9652 5.80689 14.3226 5.80689C13.6801 5.80689 13.1614 6.32559 13.1614 6.96815C13.1614 7.61071 13.6801 8.12941 14.3226 8.12941H14.1214C13.7498 8.12941 13.382 8.24166 13.0724 8.44682C12.6349 8.73713 12.3369 9.19777 12.2517 9.71259L12.0001 11.2261H10.8389V4.25854H17.8064Z" fill="#E6E9ED"/>
<path d="M16.3934 9.71258L16.645 11.2261H12L12.2516 9.71258C12.3368 9.19775 12.6348 8.73712 13.0722 8.44681C13.3819 8.24165 13.7496 8.12939 14.1212 8.12939H14.5238C14.8954 8.12939 15.2631 8.24165 15.5728 8.44681C16.0102 8.73712 16.3083 9.19775 16.3934 9.71258Z" fill="#5CD6B3"/>
<path d="M14.3224 8.1294C14.9637 8.1294 15.4837 7.60949 15.4837 6.96814C15.4837 6.3268 14.9637 5.80688 14.3224 5.80688C13.681 5.80688 13.1611 6.3268 13.1611 6.96814C13.1611 7.60949 13.681 8.1294 14.3224 8.1294Z" fill="#F0D0B4"/>
<path d="M18.1932 11.6133V3.87158H10.4514V11.6133H18.1932ZM14.3223 7.74245C13.8953 7.74245 13.5481 7.39523 13.5481 6.96827C13.5481 6.54132 13.8953 6.1941 14.3223 6.1941C14.7493 6.1941 15.0965 6.54132 15.0965 6.96827C15.0965 7.39523 14.7493 7.74245 14.3223 7.74245ZM13.2849 8.77016C13.5328 8.60469 13.8242 8.51646 14.1222 8.51662H14.522C14.8201 8.51641 15.1115 8.60465 15.3593 8.77016C15.5308 8.8849 15.677 9.03345 15.789 9.20671C15.9011 9.37997 15.9765 9.57429 16.0108 9.77775L16.1881 10.8391H12.4565L12.6334 9.77775C12.6678 9.57431 12.7432 9.38002 12.8553 9.20677C12.9673 9.03352 13.1135 8.88495 13.2849 8.77016ZM11.2256 4.64575H17.419V10.8391H16.9727L16.7745 9.65039C16.7132 9.28727 16.5654 8.94426 16.3434 8.65041C16.1215 8.35656 15.832 8.12053 15.4994 7.96231C15.7376 7.68572 15.8692 7.33325 15.8706 6.96827C15.8706 6.11436 15.1762 5.41993 14.3223 5.41993C13.4684 5.41993 12.774 6.11436 12.774 6.96827C12.774 7.34839 12.9168 7.69251 13.1452 7.96231C12.8126 8.12053 12.5231 8.35656 12.3012 8.65041C12.0792 8.94426 11.9314 9.28727 11.8701 9.65039L11.6719 10.8391H11.2256V4.64575ZM5.03223 6.1941H9.67726V6.96827H5.03223V6.1941ZM5.03223 7.74245H9.67726V8.51662H5.03223V7.74245ZM5.03223 9.29079H9.67726V10.065H5.03223V9.29079ZM5.03223 10.8391H9.67726V11.6133H5.03223V10.8391ZM5.03223 12.3875H18.1932V13.1617H5.03223V12.3875ZM12.774 22.4517H18.1932V19.355H12.774V22.4517ZM13.5481 20.1292H17.419V21.6776H13.5481V20.1292ZM8.90309 21.6776H11.9998V22.4517H8.90309V21.6776ZM8.90309 20.1292H11.9998V20.9034H8.90309V20.1292Z" fill="black"/>
<path d="M23.9908 20.0331L21.7554 1.05815C21.6815 0.400882 21.0645 -0.0814274 20.4084 0.0114733L9.67136 1.49247C9.64117 0.665649 8.96338 0.000634888 8.12882 0.000634888H7.35465C6.50073 0.000634888 5.8063 0.695068 5.8063 1.54898V2.32315H4.25796C3.831 2.32315 3.48378 2.67037 3.48378 3.09733V17.6464L0.593796 20.536C0.405002 20.724 0.255327 20.9476 0.153411 21.1938C0.0514948 21.4401 -0.000643368 21.704 5.99171e-06 21.9705C0.000620488 22.5085 0.214586 23.0243 0.594973 23.4047C0.97536 23.7852 1.49111 23.9993 2.02911 24C2.29574 24.0008 2.55989 23.9487 2.80621 23.8466C3.05254 23.7446 3.27614 23.5946 3.46404 23.4054L3.49849 23.371C3.53237 23.5477 3.62669 23.7071 3.76526 23.8219C3.90384 23.9366 4.07803 23.9996 4.25796 24H18.9672C19.3942 24 19.7414 23.6528 19.7414 23.2258V22.0007L22.9697 21.4139C23.2837 21.357 23.5643 21.1825 23.754 20.9259C23.9438 20.6694 24.0285 20.35 23.9908 20.0331ZM6.58047 1.54898C6.58047 1.12202 6.92769 0.774808 7.35465 0.774808H8.12882C8.55578 0.774808 8.90299 1.12202 8.90299 1.54898V2.32315H8.12882V1.54898H7.35465V2.32315H6.58047V1.54898ZM6.58047 3.09733H7.35465V4.25858C7.35019 4.35825 7.30746 4.45236 7.23535 4.52131C7.16325 4.59026 7.06733 4.62874 6.96756 4.62874C6.86779 4.62874 6.77187 4.59026 6.69977 4.52131C6.62766 4.45236 6.58493 4.35825 6.58047 4.25858V3.09733ZM8.83061 15.6385L8.36146 15.1694L9.06518 14.9348L8.83061 15.6385ZM7.54045 15.4431L8.55694 16.4595L8.34675 17.0901L6.90988 15.6532L7.54045 15.4431ZM6.19339 16.0314L7.96857 17.8066L3.87087 21.9043L2.09569 20.1291L6.19339 16.0314ZM2.02911 23.2258C1.69634 23.2254 1.37732 23.093 1.14206 22.8577C0.906788 22.6223 0.774486 22.3033 0.774179 21.9705C0.774179 21.6353 0.904627 21.3202 1.14152 21.0829L1.54835 20.6765L3.32353 22.4516L2.9167 22.8585C2.80041 22.9754 2.66208 23.068 2.50972 23.1311C2.35736 23.1941 2.194 23.2263 2.02911 23.2258ZM18.9672 23.2258H4.25796V22.6119L8.85422 18.0156L9.95625 14.7099H18.1931V13.9357H9.61446L5.98436 15.1458L4.25796 16.8722V3.09733H5.8063V4.25858C5.8063 4.89883 6.32732 5.41984 6.96756 5.41984C7.6078 5.41984 8.12882 4.89883 8.12882 4.25858V3.09733H8.90299V4.64567H9.67717V3.09733H18.9672V23.2258ZM22.8311 20.6521L19.7414 21.2137V3.09733C19.7414 2.67037 19.3942 2.32315 18.9672 2.32315H9.67717V2.27361L20.514 0.778678C20.5693 0.77154 20.6255 0.775448 20.6792 0.790174C20.733 0.804901 20.7833 0.830154 20.8272 0.864468C20.8712 0.898783 20.9078 0.941476 20.9351 0.990074C20.9624 1.03867 20.9798 1.0922 20.9863 1.14757L23.2221 20.126C23.2357 20.2469 23.203 20.3685 23.1304 20.4662C23.0578 20.5638 22.9508 20.6303 22.8311 20.6521Z" fill="black"/>
</svg>
