<svg width="24" height="24" viewBox="0 0 24 24" fill="none" xmlns="http://www.w3.org/2000/svg">
<path d="M15.1094 20.2334H20.2281V22.4547H15.1094V20.2334Z" fill="#FDAA8E"/>
<path d="M20.5952 15.525V19.0124C20.5952 20.1801 19.6486 21.1266 18.481 21.1266H16.3315C14.7925 21.1266 13.5449 19.879 13.5449 18.34V11.855C13.5449 11.3483 13.9557 10.9375 14.4624 10.9375C14.9691 10.9375 15.3799 11.3483 15.3799 11.855V14.1388C15.3799 14.9044 16.0005 15.525 16.766 15.525H20.5952V15.525Z" fill="#FFC6A1"/>
<path d="M19.3085 18.2535H16.5651C16.5134 18.2535 16.4638 18.2329 16.4272 18.1963C16.3907 18.1598 16.3701 18.1102 16.3701 18.0585V8.88525H19.5035V18.0585C19.5035 18.1102 19.483 18.1598 19.4464 18.1963C19.4098 18.2329 19.3602 18.2535 19.3085 18.2535Z" fill="#D67B42"/>
<path d="M17.9375 8.88525V18.2535H19.3014C19.4134 18.2535 19.5042 18.1695 19.5042 18.066V8.88525H17.9375Z" fill="#BF6724"/>
<path d="M21.6271 11.2725C21.3805 10.8336 20.8244 10.6771 20.3852 10.923L18.705 11.8637C18.2658 12.1096 18.1096 12.6648 18.3562 13.1036C18.6028 13.5425 19.1588 13.6989 19.5981 13.453L21.2783 12.5123C21.7175 12.2665 21.8737 11.7113 21.6271 11.2725Z" fill="#FFC6A1"/>
<path d="M21.6271 13.3601C21.3805 12.9212 20.8244 12.7648 20.3852 13.0107L18.705 13.9514C18.2658 14.1973 18.1096 14.7525 18.3562 15.1913C18.6028 15.6302 19.1588 15.7866 19.5981 15.5407L21.2783 14.6C21.7175 14.3541 21.8737 13.799 21.6271 13.3601Z" fill="#FDAA8E"/>
<path d="M21.6271 15.4477C21.3805 15.0088 20.8244 14.8524 20.3852 15.0984L18.705 16.039C18.2658 16.2849 18.1096 16.8401 18.3562 17.2789C18.6028 17.7178 19.1588 17.8743 19.5981 17.6283L21.2783 16.6877C21.7175 16.4418 21.8737 15.8866 21.6271 15.4477Z" fill="#FFC6A1"/>
<path d="M21.6271 17.5351C21.3805 17.0962 20.8244 16.9398 20.3852 17.1858L18.705 18.1264C18.2658 18.3723 18.1096 18.9275 18.3562 19.3664C18.6028 19.8052 19.1588 19.9617 19.5981 19.7157L21.2783 18.7751C21.7175 18.5291 21.8737 17.974 21.6271 17.5351Z" fill="#FDAA8E"/>
<path d="M21.8751 9.3682H13.7624C12.589 9.3682 11.6377 8.41692 11.6377 7.24345V2.12475C11.6377 0.951281 12.589 0 13.7624 0H21.8751C23.0486 0 23.9999 0.951281 23.9999 2.12475V7.24345C23.9999 8.41692 23.0486 9.3682 21.8751 9.3682Z" fill="#FFD54F"/>
<path d="M21.8754 0H20.4268C21.6002 0 22.5515 0.951281 22.5515 2.12475V7.24345C22.5515 8.41692 21.6002 9.3682 20.4268 9.3682H21.8754C23.0489 9.3682 24.0002 8.41692 24.0002 7.24345V2.12475C24.0002 0.951281 23.0489 0 21.8754 0Z" fill="#FFC328"/>
<path d="M18.4649 4.32328C18.3554 4.28471 18.2464 4.2449 18.1378 4.20385V2.47135C18.3616 2.52268 18.5148 2.62369 18.5766 2.67057C18.6509 2.72691 18.7445 2.75145 18.8368 2.73879C18.9292 2.72613 19.0128 2.67731 19.0692 2.60307C19.1255 2.52878 19.1501 2.43516 19.1374 2.34279C19.1248 2.25041 19.0759 2.16684 19.0017 2.11046C18.8877 2.02402 18.5805 1.82166 18.1378 1.75711V1.39697C18.1378 1.20277 17.9804 1.04541 17.7862 1.04541C17.592 1.04541 17.4347 1.20277 17.4347 1.39697V1.78275C17.3769 1.79519 17.3197 1.80994 17.2631 1.82696C16.7488 1.98193 16.3645 2.42213 16.2602 2.97591C16.1651 3.48047 16.3265 3.96685 16.6814 4.24519C16.8717 4.39444 17.1089 4.53113 17.4347 4.67574V6.86583C17.1471 6.84619 16.9509 6.77832 16.6271 6.56644C16.5491 6.51539 16.4539 6.49743 16.3627 6.5165C16.2714 6.53558 16.1914 6.59013 16.1404 6.66816C16.0893 6.74619 16.0714 6.8413 16.0904 6.93258C16.1095 7.02385 16.1641 7.10381 16.2421 7.15486C16.7066 7.45875 17.0231 7.54767 17.4346 7.56975V7.97157C17.4346 8.16577 17.592 8.32313 17.7862 8.32313C17.9804 8.32313 18.1377 8.16577 18.1377 7.97157V7.54219C18.9505 7.38666 19.4253 6.71836 19.5303 6.09408C19.6647 5.29463 19.2465 4.59957 18.4649 4.32328ZM17.1153 3.69188C16.9678 3.57614 16.9048 3.35166 16.9511 3.10604C16.9932 2.88291 17.1425 2.61418 17.4347 2.51105V3.89443C17.3142 3.82988 17.2053 3.76243 17.1153 3.69188ZM18.8369 5.97741C18.7799 6.31646 18.5422 6.67693 18.1378 6.81469V4.953C18.1684 4.96402 18.1988 4.97499 18.2305 4.98619C18.9076 5.22554 18.8659 5.80538 18.8369 5.97741Z" fill="#43809F"/>
<path d="M7.15227 24H4.62988C4.58015 24 4.53246 23.9803 4.4973 23.9451C4.46214 23.91 4.44238 23.8623 4.44238 23.8125V18.3984H7.33977V23.8125C7.33977 23.8623 7.32002 23.91 7.28486 23.9451C7.24969 23.9803 7.202 24 7.15227 24Z" fill="#D67B42"/>
<path d="M5.8916 18.3984V24H7.15277C7.2025 24 7.25019 23.9803 7.28536 23.9451C7.32052 23.91 7.34027 23.8623 7.34027 23.8125V18.3984H5.8916Z" fill="#BF6724"/>
<path d="M5.89134 19.8227C9.14504 19.8227 11.7827 17.1851 11.7827 13.9314C11.7827 10.6777 9.14504 8.04004 5.89134 8.04004C2.63764 8.04004 0 10.6777 0 13.9314C0 17.1851 2.63764 19.8227 5.89134 19.8227Z" fill="#7BE492"/>
<path d="M5.89135 8.04004C5.6461 8.04004 5.40441 8.05527 5.16699 8.08438C8.07891 8.44143 10.334 10.9229 10.334 13.9314C10.334 16.9398 8.07891 19.4213 5.16699 19.7784C5.40441 19.8075 5.64605 19.8227 5.89135 19.8227C9.14504 19.8227 11.7827 17.1851 11.7827 13.9314C11.7827 10.6777 9.14504 8.04004 5.89135 8.04004Z" fill="#45D987"/>
<path d="M6.53804 13.8121C6.42856 13.7735 6.31952 13.7337 6.21095 13.6926V11.9602C6.43473 12.0114 6.58801 12.1125 6.64974 12.1594C6.72403 12.2157 6.81765 12.2403 6.91002 12.2276C7.00239 12.2149 7.08596 12.1661 7.14235 12.0919C7.19871 12.0176 7.22325 11.924 7.21059 11.8316C7.19794 11.7392 7.14911 11.6557 7.07485 11.5993C6.9609 11.5128 6.65363 11.3105 6.21095 11.2459V10.8857C6.21095 10.6915 6.05359 10.5342 5.85938 10.5342C5.66518 10.5342 5.50782 10.6915 5.50782 10.8857V11.2715C5.45007 11.284 5.39283 11.2987 5.33626 11.3157C4.82194 11.4707 4.43766 11.9109 4.33332 12.4647C4.23826 12.9692 4.39965 13.4556 4.75454 13.734C4.9449 13.8832 5.18209 14.0199 5.50782 14.1645V16.3547C5.22024 16.3351 5.02421 16.2671 4.70026 16.0552C4.66162 16.0299 4.61839 16.0125 4.57302 16.0039C4.52765 15.9954 4.48104 15.9958 4.43585 16.0053C4.39066 16.0147 4.34777 16.033 4.30964 16.059C4.2715 16.0851 4.23887 16.1183 4.2136 16.157C4.16256 16.235 4.14461 16.3301 4.16369 16.4214C4.18278 16.5126 4.23734 16.5926 4.31537 16.6436C4.7799 16.9475 5.0964 17.0364 5.50777 17.0585V17.4603C5.50777 17.6545 5.66513 17.8119 5.85934 17.8119C6.05354 17.8119 6.2109 17.6545 6.2109 17.4603V17.031C7.02371 16.8754 7.49851 16.2071 7.60346 15.5828C7.73785 14.7834 7.31968 14.0884 6.53804 13.8121ZM5.18851 13.1806C5.04094 13.0649 4.97799 12.8404 5.0243 12.5948C5.06635 12.3717 5.21565 12.1029 5.50782 11.9998V13.3831C5.38735 13.3187 5.27846 13.2512 5.18851 13.1806ZM6.91009 15.4661C6.85309 15.8052 6.61534 16.1657 6.21095 16.3034V14.4418C6.2416 14.4528 6.27193 14.4638 6.30371 14.475C6.98073 14.7143 6.93901 15.2941 6.91009 15.4661ZM20.819 24H14.8198C14.77 24 14.7224 23.9802 14.6872 23.945C14.652 23.9099 14.6323 23.8622 14.6323 23.8125V22.2728C14.6323 22.2231 14.652 22.1754 14.6872 22.1402C14.7224 22.1051 14.77 22.0853 14.8198 22.0853H20.819C20.8688 22.0853 20.9164 22.1051 20.9516 22.1402C20.9868 22.1754 21.0065 22.2231 21.0065 22.2728V23.8125C21.0065 23.8622 20.9868 23.9099 20.9516 23.945C20.9164 23.9802 20.8688 24 20.819 24Z" fill="#43809F"/>
<path d="M19.5576 22.0852V23.9999H20.8188C20.8685 23.9999 20.9162 23.9801 20.9514 23.9449C20.9865 23.9098 21.0063 23.8621 21.0063 23.8124V22.2727C21.0063 22.223 20.9865 22.1753 20.9514 22.1401C20.9162 22.105 20.8685 22.0852 20.8188 22.0852H19.5576Z" fill="#3A7190"/>
</svg>
