<svg width="20" height="20" viewBox="0 0 20 20" fill="none" xmlns="http://www.w3.org/2000/svg">
<g clip-path="url(#clip0_522_137)">
<path d="M5.83398 15.0001C4.91732 15.0001 4.17565 15.7501 4.17565 16.6667C4.17565 17.5834 4.91732 18.3334 5.83398 18.3334C6.75065 18.3334 7.50065 17.5834 7.50065 16.6667C7.50065 15.7501 6.75065 15.0001 5.83398 15.0001ZM0.833984 1.66675V3.33341H2.50065L5.50065 9.65841L4.37565 11.7001C4.24232 11.9334 4.16732 12.2084 4.16732 12.5001C4.16732 13.4167 4.91732 14.1667 5.83398 14.1667H15.834V12.5001H6.18398C6.06732 12.5001 5.97565 12.4084 5.97565 12.2917L6.00065 12.1917L6.75065 10.8334H12.959C13.584 10.8334 14.134 10.4917 14.4173 9.97508L17.4007 4.56675C17.4673 4.45008 17.5007 4.30841 17.5007 4.16675C17.5007 3.70841 17.1257 3.33341 16.6673 3.33341H4.34232L3.55898 1.66675H0.833984ZM14.1673 15.0001C13.2507 15.0001 12.509 15.7501 12.509 16.6667C12.509 17.5834 13.2507 18.3334 14.1673 18.3334C15.084 18.3334 15.834 17.5834 15.834 16.6667C15.834 15.7501 15.084 15.0001 14.1673 15.0001Z" fill="black"/>
</g>
<defs>
<clipPath id="clip0_522_137">
<rect width="20" height="20" fill="white"/>
</clipPath>
</defs>
</svg>
