<svg width="17" height="18" viewBox="0 0 17 18" fill="none" xmlns="http://www.w3.org/2000/svg">
<path d="M8.5 0.875C6.89303 0.875 5.32214 1.35152 3.986 2.24431C2.64985 3.1371 1.60844 4.40605 0.993482 5.8907C0.37852 7.37535 0.217618 9.00901 0.531123 10.5851C0.844628 12.1612 1.61846 13.6089 2.75476 14.7452C3.89106 15.8815 5.3388 16.6554 6.9149 16.9689C8.49099 17.2824 10.1247 17.1215 11.6093 16.5065C13.094 15.8916 14.3629 14.8502 15.2557 13.514C16.1485 12.1779 16.625 10.607 16.625 9C16.6227 6.84581 15.766 4.78051 14.2427 3.25727C12.7195 1.73403 10.6542 0.877275 8.5 0.875ZM12.875 9.625H8.5C8.33424 9.625 8.17527 9.55915 8.05806 9.44194C7.94085 9.32473 7.875 9.16576 7.875 9V4.625C7.875 4.45924 7.94085 4.30027 8.05806 4.18306C8.17527 4.06585 8.33424 4 8.5 4C8.66576 4 8.82474 4.06585 8.94195 4.18306C9.05916 4.30027 9.125 4.45924 9.125 4.625V8.375H12.875C13.0408 8.375 13.1997 8.44085 13.3169 8.55806C13.4342 8.67527 13.5 8.83424 13.5 9C13.5 9.16576 13.4342 9.32473 13.3169 9.44194C13.1997 9.55915 13.0408 9.625 12.875 9.625Z" fill="black"/>
</svg>
