<svg width="34" height="40" viewBox="0 0 34 40" fill="none" xmlns="http://www.w3.org/2000/svg">
<g clip-path="url(#clip0_196_1275)">
<path d="M21.8487 37.3081C23.0242 37.3081 24.2143 37.3274 25.4045 37.2888C25.62 37.284 25.8747 37.0959 26.0314 36.9174C26.7416 36.0925 27.2117 35.1759 27.2068 34.0423C27.1921 28.7215 27.2019 23.3959 27.2019 18.0751V17.6458C24.4249 16.9946 22.4169 15.3062 20.6733 13.2464C20.4431 12.9762 20.5606 11.968 19.8896 11.5194C19.3754 11.1721 18.5477 11.1528 18.1118 11.5387C17.6514 11.9439 18.0432 12.5903 17.715 13.2898C17.1959 14.3848 16.2212 15.1518 15.0311 15.7645C13.3414 16.6328 11.5096 17.0669 9.6338 17.3226C8.71792 17.448 7.78736 17.5059 6.80781 17.6024V17.9979C6.80781 20.0626 6.80781 22.132 6.80781 24.1967C6.80781 24.4041 6.79312 24.6164 6.75394 24.819C6.70006 25.1132 6.52374 25.2628 6.1956 25.2628C5.3336 25.2531 4.4716 25.2772 3.6047 25.2531C1.69459 25.2049 0.0195669 23.5213 0.0048737 21.64C-0.00492175 20.0336 -0.00492175 18.4224 0.00977142 16.8161C0.0244646 15.0071 1.58194 13.3718 3.42348 13.2415C4.06998 13.1981 4.72138 13.2319 5.43645 13.2319C5.43645 13.01 5.43645 12.846 5.43645 12.682C5.39237 10.9984 5.47563 9.32933 6.08785 7.73744C7.73348 3.49238 10.775 0.829574 15.3641 0.130105C21.0406 -0.738202 26.4477 2.77362 28.0737 8.2343C28.4802 9.6043 28.5929 11.0032 28.5586 12.4215C28.5537 12.6434 28.5586 12.8653 28.5635 13.0872C28.5635 13.1113 28.5831 13.1354 28.6125 13.1981C29.2002 13.1981 29.8075 13.1981 30.4148 13.1981C32.6433 13.1981 33.9559 14.4475 33.9853 16.6521C34.0098 18.4031 33.9951 20.159 33.9853 21.9101C33.9755 22.846 33.6522 23.6757 33.0057 24.3703C32.467 24.9492 31.7862 25.2386 30.9928 25.2531C30.1993 25.2628 29.4059 25.2531 28.5586 25.2531C28.5586 25.4364 28.5586 25.5908 28.5586 25.7403C28.5586 28.5672 28.5537 31.3892 28.5635 34.216C28.5684 35.4895 28.1423 36.599 27.3489 37.5831C26.7807 38.2825 26.0608 38.6829 25.1155 38.6588C24.0135 38.6347 22.9164 38.654 21.8242 38.654C21.4569 39.7828 21.163 39.995 19.9876 39.995C18.3028 39.995 16.6131 39.995 14.9282 39.995C13.4295 39.9902 12.2296 38.7939 12.2345 37.3129C12.2345 35.8995 13.4393 34.5922 14.9282 34.626C16.7061 34.6646 18.484 34.6357 20.2668 34.6357C20.9133 34.6357 21.2953 34.8576 21.4863 35.4895C21.6577 36.0587 21.7214 36.6617 21.8487 37.3081ZM27.153 13.2078C27.6672 7.4673 24.5817 4.23527 21.4373 2.69161C17.7738 0.897109 13.3953 1.5001 10.2558 4.21597C8.94322 5.34959 7.99306 6.72924 7.38085 8.34043C6.76373 9.96127 6.77353 11.64 6.86658 13.3284C6.97923 13.1836 7.0478 13.0293 7.14086 12.8846C7.98327 11.5387 8.75221 10.1446 9.68278 8.86623C10.8631 7.2454 12.3912 6.00082 14.3748 5.39301C18.3126 4.18703 22.8626 5.82716 25.3016 9.31004C26.1391 10.5064 26.7318 11.8088 27.1579 13.1981L27.153 13.2078Z" fill="#BD9E3B"/>
<path d="M8.15431 15.3833C9.50608 15.1083 10.8089 14.8913 12.0921 14.5681C13.4096 14.2352 14.6781 13.6804 15.8584 12.8363C17.1123 11.939 18.1604 10.7668 18.8803 9.14113C18.9097 9.06878 18.9538 9.00606 18.9048 9.08325C19.4876 9.75377 20.0558 10.4339 20.6484 11.0852C22.1226 12.7108 23.7389 14.0374 25.5608 14.9154C25.7665 15.0119 25.8449 15.1421 25.84 15.4315C25.8302 17.7953 25.8645 20.1542 25.8253 22.5179C25.7322 27.9979 22.5585 32.87 18.4052 33.8396C15.5744 34.5005 13.1304 33.3524 11.0734 30.8343C9.12896 28.4561 8.16901 25.4894 8.15431 22.0307C8.14452 19.9612 8.15431 17.8917 8.14941 15.8174C8.14941 15.6631 8.14941 15.5135 8.14941 15.3881L8.15431 15.3833Z" fill="#FFC107"/>
</g>
<defs>
<clipPath id="clip0_196_1275">
<rect width="34" height="40" fill="white"/>
</clipPath>
</defs>
</svg>
