<svg width="21" height="21" viewBox="0 0 21 21" fill="none" xmlns="http://www.w3.org/2000/svg">
<path d="M3 2H4.66667H18" stroke="#FFC107" stroke-width="1.25" stroke-linecap="round" stroke-linejoin="round"/>
<path d="M7.16675 5.33333V3.66667C7.16675 3.22464 7.34234 2.80072 7.6549 2.48816C7.96746 2.17559 8.39139 2 8.83341 2H12.1667C12.6088 2 13.0327 2.17559 13.3453 2.48816C13.6578 2.80072 13.8334 3.22464 13.8334 3.66667V5.33333M16.3334 5.33333V17C16.3334 17.442 16.1578 17.8659 15.8453 18.1785C15.5327 18.4911 15.1088 18.6667 14.6667 18.6667H6.33341C5.89139 18.6667 5.46746 18.4911 5.1549 18.1785C4.84234 17.8659 4.66675 17.442 4.66675 17V5.33333H16.3334Z" stroke="#FFC107" stroke-width="1.25" stroke-linecap="round" stroke-linejoin="round"/>
<path d="M8.75 9.47217V14.6388" stroke="#FFC107" stroke-width="1.25" stroke-linecap="round" stroke-linejoin="round"/>
<path d="M12.25 9.47217V14.6388" stroke="#FFC107" stroke-width="1.25" stroke-linecap="round" stroke-linejoin="round"/>
</svg>
