<svg width="51" height="38" viewBox="0 0 51 38" fill="none" xmlns="http://www.w3.org/2000/svg">
<g clip-path="url(#clip0_196_1265)">
<path d="M16.5331 33.5097V34.72H28.0221C28.8997 34.72 29.6178 35.4215 29.6178 36.2985V36.4301C29.6178 37.2983 28.9086 38.0087 28.0221 38.0087H1.59569C0.71806 38.0087 0 37.3071 0 36.4301V35.6233C0 34.755 0.709195 34.0447 1.59569 34.0447H4.16652C5.04415 34.0447 5.76221 33.3431 5.76221 32.4661V31.9311C5.76221 31.0629 6.47141 30.3525 7.3579 30.3525H24.742V31.8697C24.742 32.738 24.0329 33.4395 23.1641 33.4483L16.542 33.5009L16.5331 33.5097Z" fill="#FFC107"/>
<path d="M8.6961 24.8364H3.68741C3.31531 24.8364 3.01367 25.1348 3.01367 25.5029C3.01367 25.871 3.31531 26.1695 3.68741 26.1695H8.6961C9.06819 26.1695 9.36983 25.871 9.36983 25.5029C9.36983 25.1348 9.06819 24.8364 8.6961 24.8364Z" fill="#FFC107"/>
<path d="M9.05863 21.5619L4.82358 18.9164C4.50896 18.7199 4.09286 18.8129 3.89419 19.1241C3.69553 19.4354 3.78953 19.847 4.10415 20.0435L8.33921 22.6891C8.65383 22.8856 9.06993 22.7926 9.26859 22.4813C9.46726 22.1701 9.37325 21.7585 9.05863 21.5619Z" fill="#FFC107"/>
<path d="M11.1525 17.8946L7.50008 14.5039C7.22875 14.252 6.80238 14.2655 6.54776 14.5339C6.29314 14.8023 6.30668 15.2241 6.57802 15.476L10.2304 18.8667C10.5017 19.1186 10.9281 19.1051 11.1827 18.8367C11.4373 18.5683 11.4238 18.1465 11.1525 17.8946Z" fill="#FFC107"/>
<path d="M15.3352 11.3072L13.5361 13.0869L23.2397 22.6865L25.0388 20.9067L15.3352 11.3072Z" fill="#FFC107"/>
<path d="M26.7678 -0.00290513L24.9688 1.77686L34.6723 11.3764L36.4714 9.59664L26.7678 -0.00290513Z" fill="#FFC107"/>
<path d="M46.4698 37.2281L26.7897 15.2594C26.24 14.6455 26.2666 13.7072 26.8517 13.1196C27.4545 12.5232 28.4297 12.5057 29.0502 13.0845C36.2042 19.7584 43.3494 26.4411 50.5034 33.115C51.1328 33.7025 51.1683 34.6672 50.592 35.2987L48.819 37.2368C48.1896 37.9209 47.0904 37.9209 46.4698 37.2193V37.2281Z" fill="#FFC107"/>
<path d="M17.0029 11.8217L24.8307 19.5655C25.1232 18.5306 25.7438 16.8556 27.1356 15.2068C29.2809 12.6723 31.9315 11.7603 33.0396 11.4446C30.4776 8.94513 27.9068 6.44571 25.3448 3.94629C24.7243 5.139 23.6516 6.8579 21.8875 8.54172C20.0791 10.2606 18.2529 11.2604 17.0118 11.8304L17.0029 11.8217Z" fill="#FFC107"/>
</g>
<defs>
<clipPath id="clip0_196_1265">
<rect width="51" height="38" fill="white"/>
</clipPath>
</defs>
</svg>
