<svg width="51" height="39" viewBox="0 0 51 39" fill="none" xmlns="http://www.w3.org/2000/svg">
<g clip-path="url(#clip0_196_1256)">
<path d="M18.1666 0.193936L1.50934 7.2505C0.257227 7.78093 -0.329043 9.2289 0.19987 10.4846L11.5768 37.4951C12.1057 38.7508 13.5495 39.3388 14.8016 38.8083L31.4589 31.7518C32.711 31.2213 33.2973 29.7734 32.7684 28.5176L21.3915 1.50717C20.8625 0.251457 19.4187 -0.336501 18.1666 0.193936Z" fill="#FFC107"/>
<path d="M20.6125 32.0914L35.6744 38.4721C37.3671 39.1892 39.3189 38.3944 40.0339 36.6968L50.7369 11.2864C51.4519 9.58882 50.6594 7.63138 48.9667 6.91431L33.9048 0.533615C32.2121 -0.183456 30.2603 0.611379 29.5453 2.30892L18.8423 27.7194C18.1273 29.4169 18.9199 31.3744 20.6125 32.0914Z" fill="#FFC107"/>
<path d="M15.5988 3.21973H33.6129C34.7135 3.21973 35.6082 4.11492 35.6082 5.22222V34.4751C35.6082 35.5824 34.7135 36.4776 33.6129 36.4776H15.5988C14.4982 36.4776 13.6035 35.5824 13.6035 34.4751V5.22222C13.6035 4.11492 14.4982 3.21973 15.5988 3.21973Z" fill="#FFC107" stroke="black"/>
<path d="M31.4934 4.44482H17.7066C16.2404 4.44482 15.0518 5.63685 15.0518 7.10729V15.3004C15.0518 16.7708 16.2404 17.9628 17.7066 17.9628H31.4934C32.9597 17.9628 34.1483 16.7708 34.1483 15.3004V7.10729C34.1483 5.63685 32.9597 4.44482 31.4934 4.44482Z" fill="black"/>
<path d="M33.7495 25.7563H15.4506C15.2303 25.7563 15.0518 25.9354 15.0518 26.1563V26.2934C15.0518 26.5143 15.2303 26.6934 15.4506 26.6934H33.7495C33.9697 26.6934 34.1483 26.5143 34.1483 26.2934V26.1563C34.1483 25.9354 33.9697 25.7563 33.7495 25.7563Z" fill="black"/>
<path d="M33.7495 28.3389H15.4506C15.2303 28.3389 15.0518 28.5179 15.0518 28.7388V28.8759C15.0518 29.0968 15.2303 29.2759 15.4506 29.2759H33.7495C33.9697 29.2759 34.1483 29.0968 34.1483 28.8759V28.7388C34.1483 28.5179 33.9697 28.3389 33.7495 28.3389Z" fill="black"/>
<path d="M33.7495 30.9214H15.4506C15.2303 30.9214 15.0518 31.1004 15.0518 31.3213V31.4585C15.0518 31.6793 15.2303 31.8584 15.4506 31.8584H33.7495C33.9697 31.8584 34.1483 31.6793 34.1483 31.4585V31.3213C34.1483 31.1004 33.9697 30.9214 33.7495 30.9214Z" fill="black"/>
</g>
<defs>
<clipPath id="clip0_196_1256">
<rect width="51" height="39" fill="white"/>
</clipPath>
</defs>
</svg>
