<svg width="16" height="16" viewBox="0 0 16 16" fill="none" xmlns="http://www.w3.org/2000/svg">
<path d="M14.2075 4.58572L11.4144 1.79322C11.3215 1.70034 11.2113 1.62666 11.0899 1.57639C10.9686 1.52612 10.8385 1.50024 10.7072 1.50024C10.5759 1.50024 10.4458 1.52612 10.3245 1.57639C10.2031 1.62666 10.0929 1.70034 10 1.79322L2.29313 9.50009C2.19987 9.59262 2.12593 9.70275 2.0756 9.8241C2.02528 9.94546 1.99959 10.0756 2.00001 10.207V13.0001C2.00001 13.2653 2.10536 13.5197 2.2929 13.7072C2.48043 13.8947 2.73479 14.0001 3.00001 14.0001H13.5C13.6326 14.0001 13.7598 13.9474 13.8536 13.8536C13.9473 13.7599 14 13.6327 14 13.5001C14 13.3675 13.9473 13.2403 13.8536 13.1465C13.7598 13.0528 13.6326 13.0001 13.5 13.0001H7.20751L14.2075 6.00009C14.3004 5.90723 14.3741 5.79698 14.4243 5.67564C14.4746 5.5543 14.5005 5.42425 14.5005 5.29291C14.5005 5.16156 14.4746 5.03151 14.4243 4.91017C14.3741 4.78883 14.3004 4.67858 14.2075 4.58572ZM5.79313 13.0001H3.00001V10.207L8.50001 4.70697L11.2931 7.50009L5.79313 13.0001ZM12 6.79322L9.20751 4.00009L10.7075 2.50009L13.5 5.29322L12 6.79322Z" fill="#FFC107"/>
</svg>
