<svg width="11" height="11" viewBox="0 0 11 11" fill="none" xmlns="http://www.w3.org/2000/svg">
<path d="M9.77778 0H1.22222C0.543889 0 0 0.55 0 1.22222V9.77778C0 10.45 0.543889 11 1.22222 11H9.77778C10.45 11 11 10.45 11 9.77778V1.22222C11 0.55 10.4561 0 9.77778 0ZM9.77778 9.77778H1.22222V2.44444H9.77778V9.77778ZM6.41667 6.11111C6.41667 6.61833 6.00722 7.02778 5.5 7.02778C4.99278 7.02778 4.58333 6.61833 4.58333 6.11111C4.58333 5.60389 4.99278 5.19444 5.5 5.19444C6.00722 5.19444 6.41667 5.60389 6.41667 6.11111ZM5.5 3.66667C3.83167 3.66667 2.40778 4.68111 1.83333 6.11111C2.40778 7.54111 3.83167 8.55556 5.5 8.55556C7.16833 8.55556 8.59222 7.54111 9.16667 6.11111C8.59222 4.68111 7.16833 3.66667 5.5 3.66667ZM5.5 7.63889C4.65667 7.63889 3.97222 6.95444 3.97222 6.11111C3.97222 5.26778 4.65667 4.58333 5.5 4.58333C6.34333 4.58333 7.02778 5.26778 7.02778 6.11111C7.02778 6.95444 6.34333 7.63889 5.5 7.63889Z" fill="#FFC107"/>
</svg>
