<svg width="16" height="12" viewBox="0 0 16 12" fill="none" xmlns="http://www.w3.org/2000/svg">
<path d="M15.954 5.78409C15.9307 5.73142 15.366 4.47875 14.1107 3.22342C12.438 1.55075 10.3253 0.666748 8 0.666748C5.67466 0.666748 3.562 1.55075 1.88933 3.22342C0.633994 4.47875 0.0666603 5.73342 0.0459936 5.78409C0.0156691 5.85229 0 5.92611 0 6.00075C0 6.0754 0.0156691 6.14921 0.0459936 6.21742C0.069327 6.27008 0.633994 7.52209 1.88933 8.77742C3.562 10.4494 5.67466 11.3334 8 11.3334C10.3253 11.3334 12.438 10.4494 14.1107 8.77742C15.366 7.52209 15.9307 6.27008 15.954 6.21742C15.9843 6.14921 16 6.0754 16 6.00075C16 5.92611 15.9843 5.85229 15.954 5.78409ZM8 10.2668C5.948 10.2668 4.15533 9.52075 2.67133 8.05009C2.06243 7.44455 1.54439 6.75406 1.13333 6.00009C1.54428 5.24604 2.06233 4.55554 2.67133 3.95008C4.15533 2.47942 5.948 1.73342 8 1.73342C10.052 1.73342 11.8447 2.47942 13.3287 3.95008C13.9388 4.55539 14.4579 5.2459 14.87 6.00009C14.3893 6.89742 12.2953 10.2668 8 10.2668ZM8 2.80008C7.3671 2.80008 6.74841 2.98776 6.22217 3.33938C5.69594 3.691 5.28578 4.19077 5.04358 4.7755C4.80138 5.36022 4.73801 6.00363 4.86148 6.62437C4.98496 7.24511 5.28973 7.8153 5.73726 8.26283C6.18478 8.71036 6.75497 9.01513 7.37571 9.1386C7.99645 9.26207 8.63986 9.1987 9.22459 8.9565C9.80931 8.7143 10.3091 8.30415 10.6607 7.77791C11.0123 7.25167 11.2 6.63299 11.2 6.00009C11.1991 5.15166 10.8617 4.33824 10.2618 3.73832C9.66184 3.13839 8.84842 2.80097 8 2.80008ZM8 8.13342C7.57807 8.13342 7.16561 8.0083 6.81478 7.77389C6.46396 7.53947 6.19052 7.20629 6.02906 6.81648C5.86759 6.42666 5.82534 5.99772 5.90766 5.58389C5.98997 5.17007 6.19315 4.78994 6.4915 4.49159C6.78986 4.19324 7.16998 3.99006 7.58381 3.90774C7.99763 3.82543 8.42658 3.86767 8.81639 4.02914C9.20621 4.19061 9.53939 4.46404 9.7738 4.81487C10.0082 5.16569 10.1333 5.57815 10.1333 6.00009C10.1333 6.56588 9.90857 7.1085 9.50849 7.50858C9.10842 7.90866 8.56579 8.13342 8 8.13342Z" fill="#FFC107"/>
</svg>
