<svg width="24" height="24" viewBox="0 0 24 24" fill="none" xmlns="http://www.w3.org/2000/svg">
<path d="M3.31055 0H24.0002V14.8354H3.31055V0Z" fill="#348FD9"/>
<path d="M4.96484 1.64844H22.3442V13.1871H4.96484V1.64844Z" fill="#9FE4ED"/>
<path d="M7.86247 5.76944C8.54807 5.76944 9.10385 5.21594 9.10385 4.53316C9.10385 3.85038 8.54807 3.29688 7.86247 3.29688C7.17688 3.29688 6.62109 3.85038 6.62109 4.53316C6.62109 5.21594 7.17688 5.76944 7.86247 5.76944Z" fill="#FFA912"/>
<path d="M0 4.12109H20.6897V18.9565H0V4.12109Z" fill="#44546C"/>
<path d="M1.6543 5.76929H19.0336V17.3079H1.6543V5.76929Z" fill="#9FE4ED"/>
<path d="M4.55193 9.89029C5.23752 9.89029 5.79331 9.33679 5.79331 8.65401C5.79331 7.97123 5.23752 7.41772 4.55193 7.41772C3.86633 7.41772 3.31055 7.97123 3.31055 8.65401C3.31055 9.33679 3.86633 9.89029 4.55193 9.89029Z" fill="#FFA912"/>
<path d="M20.0019 4.84473L23.8849 18.3095L4.00217 23.9964L0.119141 10.5316L20.0019 4.84473Z" fill="#FFA912"/>
<path d="M18.8675 6.88379L21.8369 17.1804L5.13539 21.9574L2.16602 11.6608L18.8675 6.88379Z" fill="#9FE4ED"/>
<path d="M19.2431 12.2975L20.7422 17.4965L21.8363 17.1833L18.8665 6.88501L2.16211 11.6637L2.42859 12.5868L13.8456 9.32132C14.3962 9.1638 14.9726 9.11584 15.5419 9.18018C16.1112 9.24452 16.6621 9.41989 17.1633 9.69629C17.6645 9.97269 18.1062 10.3447 18.463 10.7911C18.8199 11.2375 19.0849 11.7491 19.2431 12.2975Z" fill="black" fill-opacity="0.12549"/>
<path d="M14.7563 14.7529L9.24041 11.5674L4.59766 20.1101L5.37973 22.6651L16.9659 19.3683L14.897 14.8353" fill="#7EB457"/>
<path d="M14.8959 14.8353L14.7552 14.7529L9.23933 11.5674L8.96002 12.0817C9.51644 12.7011 9.92357 13.4389 10.1504 14.2387C10.3772 15.0385 10.4178 15.8794 10.269 16.6972C10.1202 17.515 9.78594 18.2882 9.2917 18.9579C8.79747 19.6276 8.15628 20.1762 7.41698 20.5618L4.96484 21.8409L5.37864 22.6651L16.9648 19.3683L14.8959 14.8353Z" fill="black" fill-opacity="0.12549"/>
<path d="M11.6406 20.0978L14.7565 14.7529L16.2875 12.1238L21.5179 14.8354L22.3455 17.3079L11.6406 20.0978Z" fill="#7EB457"/>
<path d="M21.5179 14.8354L16.2875 12.1238L15.8886 12.8091C16.3355 13.0993 16.6981 13.5013 16.9402 13.9747C17.1824 14.4482 17.2955 14.9766 17.2684 15.5073C17.2413 16.0379 17.0749 16.5522 16.7858 16.9988C16.4967 17.4454 16.095 17.8086 15.6209 18.0522L11.6406 20.0978L22.3455 17.3079L21.5179 14.8354Z" fill="black" fill-opacity="0.129412"/>
<path d="M20.0009 4.84619L0.115234 10.5331L3.99868 24L23.8843 18.3122L20.0009 4.84619ZM2.16268 11.6627L18.8667 6.88483L21.8369 17.1831L5.13248 21.9605L2.16268 11.6627Z" fill="#FFA912"/>
<path d="M13.9836 12.0902C14.6692 12.0902 15.2249 11.5367 15.2249 10.854C15.2249 10.1712 14.6692 9.61768 13.9836 9.61768C13.298 9.61768 12.7422 10.1712 12.7422 10.854C12.7422 11.5367 13.298 12.0902 13.9836 12.0902Z" fill="#FFA912"/>
</svg>
