<svg width="26" height="26" viewBox="0 0 26 26" fill="none" xmlns="http://www.w3.org/2000/svg">
<path d="M25.7471 10.4539H24.7V10.4H13V15.6H20.347C19.2751 18.627 16.3949 20.8 13 20.8C8.69245 20.8 5.2 17.3075 5.2 13C5.2 8.69245 8.69245 5.2 13 5.2C14.9883 5.2 16.7973 5.9501 18.1747 7.17535L21.8517 3.4983C19.5299 1.33445 16.4242 0 13 0C5.82075 0 0 5.82075 0 13C0 20.1792 5.82075 26 13 26C20.1792 26 26 20.1792 26 13C26 12.1283 25.9103 11.2775 25.7471 10.4539Z" fill="#FFC107"/>
<path d="M1.4989 6.94915L5.77005 10.0815C6.92575 7.2202 9.72465 5.2 13 5.2C14.9883 5.2 16.7973 5.9501 18.1747 7.17535L21.8517 3.4983C19.5299 1.33445 16.4242 0 13 0C8.0067 0 3.6764 2.81905 1.4989 6.94915Z" fill="#FF3D00"/>
<path d="M13 26C16.3579 26 19.409 24.7149 21.7158 22.6252L17.6923 19.2205C16.3871 20.2091 14.7647 20.8 13 20.8C9.6187 20.8 6.74765 18.6439 5.66605 15.6351L1.42675 18.9013C3.57825 23.1114 7.94755 26 13 26Z" fill="#4CAF50"/>
<path d="M25.7471 10.4539H24.7V10.4H13V15.6H20.347C19.8321 17.054 18.8968 18.3079 17.6904 19.2211C17.691 19.2205 17.6917 19.2211 17.6923 19.2205L21.7158 22.6252C21.4311 22.8839 26 19.5 26 13C26 12.1283 25.9103 11.2775 25.7471 10.4539Z" fill="#1976D2"/>
</svg>
