<svg width="48" height="42" viewBox="0 0 48 42" fill="none" xmlns="http://www.w3.org/2000/svg">
<path d="M22.4189 40.5229C22.3703 40.7714 22.2836 41.0053 22.1637 41.2112C22.0438 41.4171 21.8931 41.5909 21.7203 41.7226C21.5475 41.8544 21.3559 41.9415 21.1565 41.979C20.9572 42.0165 20.7539 42.0037 20.5585 41.9412L14.7783 40.1053C14.3094 39.9554 13.8747 39.6676 13.5093 39.2652L9.18458 34.4884C8.87747 34.1492 8.68897 33.6689 8.66055 33.1531C8.63214 32.6373 8.76614 32.1284 9.03307 31.7381C9.3 31.3479 9.67799 31.1084 10.0839 31.0723C10.4898 31.0362 10.8904 31.2064 11.1975 31.5456L15.5226 36.3227L21.3027 38.1589C21.4982 38.2209 21.6821 38.3313 21.844 38.4837C22.0059 38.6361 22.1426 38.8276 22.2462 39.0471C22.3499 39.2666 22.4185 39.5099 22.4481 39.7632C22.4777 40.0164 22.4678 40.2746 22.4189 40.5229ZM47.849 17.3129C47.7247 17.8062 47.5237 18.2628 47.258 18.6556C46.9923 19.0484 46.6672 19.3694 46.302 19.5997L41.8397 22.4347L38.9733 26.6957C38.9632 26.7105 38.9523 26.7243 38.942 26.7387C38.9325 26.7519 38.9232 26.765 38.9135 26.7778C38.9062 26.7875 38.8995 26.7979 38.892 26.8074L31.8351 35.7746C31.2566 36.5052 30.474 36.9152 29.6584 36.915C29.4098 36.915 29.1622 36.8764 28.921 36.7998L17.8061 33.269C17.389 33.1372 16.9984 32.8949 16.6602 32.5579L6.29872 22.2628L1.69605 19.3385C1.33162 19.1069 1.00713 18.7854 0.741525 18.3928C0.475919 18.0001 0.274514 17.5442 0.149061 17.0516C0.0236089 16.559 -0.0233787 16.0395 0.0108402 15.5236C0.0450591 15.0077 0.159799 14.5056 0.348366 14.0466L5.06472 2.56972C5.43999 1.66722 6.07761 0.986426 6.8419 0.672183C7.60619 0.357939 8.43682 0.435056 9.15704 0.887125L13.4481 3.61333L22.7823 0.155608C23.4854 -0.104526 24.2385 -0.0368816 24.9059 0.346342L31.234 3.98472H34.3766L38.8412 1.14831C39.5614 0.695902 40.3921 0.618617 41.1564 0.932917C41.9208 1.24722 42.5583 1.92827 42.9334 2.83102L47.6497 14.3076C47.8396 14.7661 47.955 15.2684 47.9892 15.7846C48.0235 16.3008 47.9758 16.8205 47.849 17.3129ZM35.4526 25.6637L29.3829 20.0546L27.8346 21.53C26.5042 22.7878 24.8902 23.4671 23.2319 23.4671C21.5737 23.4671 19.9596 22.7878 18.6293 21.53L17.5896 20.5393C17.238 20.2042 16.9471 19.7769 16.7367 19.2864C16.5262 18.796 16.4012 18.2538 16.3701 17.6966C16.3389 17.1394 16.4023 16.5802 16.556 16.0569C16.7097 15.5336 16.9501 15.0583 17.261 14.6633L24.7661 5.12674C24.8758 4.98949 24.9933 4.8628 25.1178 4.74769L23.6411 3.89868L14.297 7.36006L9.07379 20.0705L18.5504 29.4866L29.6653 33.0175L35.4526 25.6637ZM39.0356 20.6024L33.8088 7.88366H30.9073L30.9021 7.88415C30.8997 7.88415 30.8973 7.88369 30.895 7.88366H26.9358L19.4308 17.4202L20.4702 18.4109C21.2685 19.1655 22.237 19.5731 23.2319 19.5731C24.2269 19.5731 25.1953 19.1655 25.9936 18.4109L28.4483 16.0715C28.7108 15.8213 29.0294 15.6846 29.3575 15.6816C29.6856 15.6785 30.0058 15.8092 30.2711 16.0545L37.5624 22.7924L39.0356 20.6024Z" fill="#FFC107"/>
</svg>
