<svg width="17" height="17" viewBox="0 0 17 17" fill="none" xmlns="http://www.w3.org/2000/svg">
<g clip-path="url(#clip0_584_919)">
<path d="M11.2462 7.86051C10.9862 8.12051 10.5529 8.12051 10.2929 7.86051L7.31289 4.88717L2.61289 9.58051L2.17289 9.16051C1.39289 8.38051 1.39289 7.11384 2.17289 6.33384L4.99956 3.50717C5.77956 2.72717 7.04622 2.72717 7.82622 3.50717L11.2462 6.92051C11.5062 7.18051 11.5062 7.60051 11.2462 7.86051ZM11.7129 6.44717C12.2329 6.96717 12.2329 7.81384 11.7129 8.33384C10.8662 9.18051 9.97289 8.48051 9.82622 8.33384L7.31956 5.82717L3.60622 9.54051C3.34622 9.80051 3.34622 10.2205 3.60622 10.4805C3.86622 10.7405 4.28622 10.7405 4.55289 10.4805L7.63289 7.40051L8.10622 7.87384L5.02622 10.9538C4.76622 11.2138 4.76622 11.6338 5.02622 11.8938C5.28622 12.1538 5.70622 12.1538 5.97289 11.8938L9.05289 8.81384L9.52622 9.28717L6.44622 12.3672C6.18622 12.6272 6.18622 13.0472 6.44622 13.3072C6.70622 13.5672 7.12622 13.5672 7.38622 13.3072L10.4662 10.2272L10.9396 10.7005L7.85956 13.7805C7.59956 14.0405 7.59956 14.4605 7.85956 14.7205C8.11956 14.9805 8.53956 14.9805 8.79956 14.7205L14.3462 9.16051C15.1262 8.38051 15.1262 7.11384 14.3462 6.33384L11.5196 3.50717C10.7529 2.74051 9.51289 2.72717 8.73289 3.46717L11.7129 6.44717Z" fill="#FFC107"/>
</g>
<defs>
<clipPath id="clip0_584_919">
<rect width="16" height="16" fill="white" transform="translate(0.259521 0.920532)"/>
</clipPath>
</defs>
</svg>
