<svg width="20" height="14" viewBox="0 0 20 14" fill="none" xmlns="http://www.w3.org/2000/svg">
<path d="M19.3307 4.92505L17.4455 1.15319C17.3761 1.01437 17.2799 0.890578 17.1626 0.788899C17.0454 0.687219 16.9092 0.609641 16.7619 0.560594C16.6146 0.511547 16.4591 0.491992 16.3043 0.503046C16.1495 0.5141 15.9983 0.555546 15.8595 0.625017L14.0223 1.54323L10.1522 0.519381C10.0529 0.49354 9.94865 0.49354 9.84935 0.519381L5.97924 1.54323L4.14207 0.625017C4.00325 0.555546 3.85211 0.5141 3.69727 0.503046C3.54244 0.491992 3.38694 0.511547 3.23966 0.560594C3.09238 0.609641 2.95621 0.687219 2.83892 0.788899C2.72162 0.890578 2.62551 1.01437 2.55606 1.15319L0.67087 4.92431C0.601399 5.06313 0.559953 5.21427 0.548899 5.36911C0.537845 5.52394 0.5574 5.67944 0.606447 5.82672C0.655494 5.974 0.733072 6.11017 0.834752 6.22746C0.936431 6.34476 1.06022 6.44087 1.19905 6.51032L3.19357 7.50832L7.29267 10.4358C7.35307 10.4788 7.42096 10.5101 7.49286 10.5282L12.2206 11.7101C12.3196 11.7349 12.4234 11.7337 12.5218 11.7065C12.6201 11.6793 12.7098 11.6271 12.782 11.555L16.8501 7.48616L18.8018 6.51032C19.082 6.37006 19.295 6.12429 19.394 5.82702C19.4931 5.52976 19.47 5.20533 19.33 4.92505H19.3307ZM15.2759 7.39013L12.734 5.35424C12.6201 5.26304 12.4766 5.21719 12.3309 5.22551C12.1852 5.23383 12.0478 5.29573 11.9451 5.3993C10.6294 6.72455 9.16308 6.55686 8.22788 5.96589L11.4221 2.86331H13.7719L15.7819 6.88263L15.2759 7.39013ZM3.61315 1.68137L5.12529 2.43633L3.23641 6.20745L1.72723 5.45323L3.61315 1.68137ZM12.1822 10.4816L7.88955 9.40902L4.25509 6.81319L6.32348 2.67642L10.0008 1.70206L10.7247 1.89338L7.40052 5.12007L7.39461 5.12672C7.26948 5.25185 7.17404 5.40348 7.11534 5.57043C7.05664 5.73738 7.03618 5.91537 7.05547 6.09128C7.07475 6.26719 7.13329 6.43653 7.22677 6.58679C7.32024 6.73705 7.44627 6.86441 7.59554 6.95946C9.11433 7.92938 10.9471 7.77204 12.3905 6.5901L14.433 8.23078L12.1822 10.4816ZM16.7622 6.20671L14.877 2.43929L16.3884 1.68137L18.2743 5.45323L16.7622 6.20671ZM10.28 13.0523C10.2481 13.1801 10.1744 13.2935 10.0707 13.3746C9.967 13.4557 9.83917 13.4998 9.70751 13.5C9.65896 13.4999 9.61059 13.494 9.56347 13.4823L6.48526 12.7125C6.41326 12.6948 6.34532 12.6634 6.28507 12.6202L4.33857 11.2299C4.21888 11.136 4.14006 10.9995 4.11851 10.8488C4.09696 10.6982 4.13434 10.545 4.22288 10.4213C4.31141 10.2975 4.44428 10.2127 4.5938 10.1844C4.74332 10.1562 4.89798 10.1867 5.02557 10.2696L6.88047 11.5949L9.85304 12.3365C10.0051 12.3746 10.1358 12.4714 10.2164 12.6058C10.297 12.7402 10.321 12.901 10.283 13.0531L10.28 13.0523Z" fill="#FFC107"/>
</svg>
