<svg width="46" height="38" viewBox="0 0 46 38" fill="none" xmlns="http://www.w3.org/2000/svg">
<path d="M33.4167 35.6666H43.8334V31.4999C43.8334 28.0481 41.0352 25.2499 37.5834 25.2499C35.5926 25.2499 33.8191 26.1808 32.6746 27.6309M33.4167 35.6666H12.5834M33.4167 35.6666V31.4999C33.4167 30.1328 33.1534 28.8271 32.6746 27.6309M12.5834 35.6666H2.16675V31.4999C2.16675 28.0481 4.96497 25.2499 8.41675 25.2499C10.4076 25.2499 12.181 26.1808 13.3256 27.6309M12.5834 35.6666V31.4999C12.5834 30.1328 12.8468 28.8271 13.3256 27.6309M13.3256 27.6309C14.8615 23.7937 18.6143 21.0833 23.0001 21.0833C27.3859 21.0833 31.1386 23.7937 32.6746 27.6309M29.2501 8.58325C29.2501 12.035 26.4519 14.8333 23.0001 14.8333C19.5483 14.8333 16.7501 12.035 16.7501 8.58325C16.7501 5.13147 19.5483 2.33325 23.0001 2.33325C26.4519 2.33325 29.2501 5.13147 29.2501 8.58325ZM41.7501 14.8333C41.7501 17.1344 39.8846 18.9999 37.5834 18.9999C35.2822 18.9999 33.4167 17.1344 33.4167 14.8333C33.4167 12.5321 35.2822 10.6666 37.5834 10.6666C39.8846 10.6666 41.7501 12.5321 41.7501 14.8333ZM12.5834 14.8333C12.5834 17.1344 10.7179 18.9999 8.41675 18.9999C6.11556 18.9999 4.25008 17.1344 4.25008 14.8333C4.25008 12.5321 6.11556 10.6666 8.41675 10.6666C10.7179 10.6666 12.5834 12.5321 12.5834 14.8333Z" stroke="#FFC107" stroke-width="3" stroke-linecap="round" stroke-linejoin="round"/>
</svg>
