<svg width="33" height="32" viewBox="0 0 33 32" fill="none" xmlns="http://www.w3.org/2000/svg">
<path fill-rule="evenodd" clip-rule="evenodd" d="M13.003 18.8714C11.8359 18.493 10.7217 19.0017 9.72175 19.5803L5.63463 21.9454L8.66136 27.2906L9.41565 26.8554C9.53934 26.7841 9.68626 26.7649 9.82412 26.8019L17.8699 28.9549C18.884 29.2265 19.8432 29.1038 20.7399 28.5521C24.4396 26.2814 28.1349 24.0032 31.8319 21.728C32.3942 21.382 32.4671 20.4367 32.1339 19.9002C31.399 18.7167 29.3634 19.702 28.5177 20.1943L22.4056 23.7524C21.9215 24.0341 21.4235 24.2132 20.9067 24.3C20.3964 24.3856 19.8709 24.3796 19.325 24.2924L18.6038 24.1755C18.5767 24.1711 18.5497 24.1672 18.5229 24.1606C17.1497 23.8787 15.8197 23.4496 14.4677 23.0875C14.3306 23.049 14.2142 22.958 14.1437 22.8343C14.0732 22.7106 14.0543 22.5641 14.0911 22.4266C14.1278 22.2891 14.2173 22.1716 14.3402 22.0995C14.463 22.0274 14.6093 22.0066 14.7474 22.0415C16.0692 22.3955 17.3795 22.821 18.7195 23.0979C19.4002 23.1811 19.9619 22.9665 20.1508 22.2618C20.3222 21.6225 19.9189 21.02 19.3147 20.8108C17.4791 20.475 15.6975 19.8313 14.2967 19.3251C13.8093 19.1491 13.3688 18.9899 13.003 18.8714ZM20.1949 9.00457C20.5144 8.68536 21.037 8.68536 21.3563 9.00457L22.1885 9.83625L24.4399 7.58603C24.7593 7.26682 25.2819 7.26682 25.6013 7.58603C25.9207 7.90525 25.9207 8.4276 25.6013 8.74682L22.7852 11.5614C22.378 11.9684 21.8333 11.803 21.4723 11.4421L20.1949 10.1654C19.8755 9.84615 19.8755 9.32379 20.1949 9.00457ZM30.2247 7.90877C30.0404 7.13523 29.7338 6.39603 29.3165 5.71906L29.9484 4.29693L28.2709 2.62036L26.8476 3.25214C26.1704 2.83517 25.431 2.5288 24.6573 2.34458L24.0983 0.892899H21.726L21.1669 2.34458C20.3932 2.52881 19.6538 2.83518 18.9766 3.25214L17.5534 2.62036L15.8759 4.29699L16.5079 5.7194C16.0907 6.39625 15.7842 7.13531 15.5999 7.9087L14.1476 8.46745V10.8385L15.5997 11.3971C15.784 12.1706 16.0906 12.9098 16.5079 13.5868L15.876 15.0089L17.5534 16.6854L18.9767 16.0536C19.6539 16.4706 20.3933 16.777 21.167 16.9611L21.726 18.4128H24.0983L24.6572 16.9615C25.4312 16.7773 26.1708 16.4709 26.8481 16.0538L28.2709 16.6854L29.9484 15.0088L29.3163 13.5863C29.7334 12.9094 30.04 12.1705 30.2243 11.3972L31.6766 10.8384V8.46738L30.2247 7.90877ZM22.8981 14.2256C20.3271 14.2256 18.243 12.1425 18.243 9.57294C18.243 7.0033 20.3271 4.92024 22.8981 4.92024C25.469 4.92024 27.5533 7.0033 27.5533 9.57294C27.5533 12.1425 25.469 14.2256 22.8981 14.2256ZM9.12915 9.5062L9.87443 11.468C9.8968 11.527 9.949 11.5649 10.012 11.5679L12.1091 11.6701C12.2517 11.677 12.3101 11.8566 12.1988 11.946L10.5623 13.2607C10.5384 13.2793 10.5207 13.3047 10.5113 13.3335C10.502 13.3623 10.5014 13.3932 10.5097 13.4223L11.0606 15.4473C11.098 15.585 10.9453 15.696 10.8257 15.6179L9.06902 14.4686C9.04389 14.4517 9.01429 14.4426 8.984 14.4426C8.95371 14.4426 8.92411 14.4517 8.89898 14.4686L7.14233 15.6179C7.02288 15.696 6.87007 15.5851 6.90749 15.4473L7.45833 13.4223C7.46664 13.3932 7.46608 13.3623 7.45672 13.3335C7.44736 13.3047 7.42963 13.2794 7.40579 13.2607L5.76927 11.946C5.65795 11.8566 5.71632 11.677 5.85897 11.6701L7.95608 11.5679C7.98636 11.5668 8.01561 11.5567 8.04012 11.5389C8.06464 11.5211 8.08329 11.4965 8.09371 11.468L8.83892 9.5062C8.88922 9.37352 9.07878 9.37352 9.12915 9.5062ZM9.12915 0.0995046L9.87436 2.06134C9.8968 2.12029 9.94893 2.15817 10.012 2.16122L12.109 2.2634C12.2517 2.27031 12.31 2.44994 12.1987 2.53932L10.5622 3.85398C10.5384 3.87267 10.5207 3.89803 10.5113 3.92682C10.5019 3.95561 10.5014 3.98654 10.5097 4.01566L11.0605 6.04065C11.098 6.17833 10.9452 6.28932 10.8257 6.2112L9.06902 5.06186C9.04389 5.04497 9.01429 5.03595 8.984 5.03595C8.95371 5.03595 8.92411 5.04497 8.89898 5.06186L7.14233 6.2112C7.02288 6.28939 6.87 6.1784 6.90749 6.04065L7.45833 4.01566C7.46662 3.98654 7.46605 3.95561 7.4567 3.92682C7.44734 3.89803 7.42962 3.87267 7.40579 3.85398L5.76927 2.53932C5.65795 2.44994 5.71639 2.27031 5.85897 2.2634L7.95608 2.16122C7.98635 2.16013 8.01561 2.15005 8.04011 2.13226C8.06461 2.11446 8.08325 2.08977 8.09364 2.06134L8.83892 0.0995046C8.88922 -0.0331682 9.07871 -0.0331682 9.12915 0.0995046ZM8.77255 29.6882L3.7308 20.7845C3.48701 20.3539 2.93515 20.2011 2.50438 20.4447L0.789491 21.4148C0.358718 21.6584 0.205772 22.21 0.449564 22.6405L5.49138 31.5442C5.73517 31.9748 6.28703 32.1277 6.7178 31.884L8.43269 30.914C8.86332 30.6703 9.01634 30.1187 8.77255 29.6882ZM2.75183 23.3301C2.6721 23.3421 2.59079 23.3382 2.51256 23.3187C2.43433 23.2992 2.36072 23.2645 2.29596 23.2165C2.23121 23.1685 2.17657 23.1081 2.1352 23.039C2.09383 22.9698 2.06653 22.8932 2.05487 22.8134C2.04321 22.7337 2.04742 22.6524 2.06726 22.5743C2.0871 22.4962 2.12218 22.4228 2.17049 22.3583C2.21879 22.2938 2.27937 22.2394 2.34874 22.1983C2.41812 22.1573 2.49492 22.1303 2.57475 22.119C2.7351 22.0963 2.89793 22.1379 3.02761 22.2349C3.15728 22.3319 3.24324 22.4763 3.26666 22.6364C3.29008 22.7966 3.24905 22.9595 3.15257 23.0895C3.05608 23.2195 2.91199 23.306 2.75183 23.3301Z" fill="#AAAAAA"/>
</svg>
