<svg width="33" height="32" viewBox="0 0 33 32" fill="none" xmlns="http://www.w3.org/2000/svg">
<path d="M2.5526 24.7118H7.66066C7.96464 24.7118 8.20892 24.4635 8.20892 24.16V16.0883C8.20892 15.7849 7.96464 15.5366 7.66066 15.5366H2.5526C2.25404 15.5366 2.00977 15.7849 2.00977 16.0883V24.16C2.00977 24.4635 2.25404 24.7118 2.5526 24.7118ZM9.80485 24.0166C10.0166 23.2276 10.3531 22.4883 10.8037 21.8263C11.7482 20.4194 13.1758 19.3656 14.8206 18.9187C14.9618 18.8745 15.1083 18.8414 15.2549 18.8083C15.472 18.7642 15.6892 18.7311 15.9117 18.709V6.95177C15.9117 6.64281 15.6674 6.39453 15.3635 6.39453H10.2608C9.95684 6.39453 9.71257 6.64281 9.71257 6.95177V24.16C9.71257 24.2152 9.71799 24.2649 9.73971 24.3145C9.75599 24.2152 9.77771 24.1159 9.80485 24.0166Z" fill="#AAAAAA"/>
<path d="M10.8586 24.3033C10.7229 24.822 10.6523 25.3571 10.6523 25.8813C10.6523 29.2578 13.3502 31.9999 16.6669 31.9999C19.9836 31.9999 22.6869 29.2578 22.6869 25.8813C22.6869 25.3626 22.6218 24.8551 22.5024 24.3751C22.4915 24.3309 22.4807 24.2923 22.4698 24.2537C21.7641 21.6716 19.43 19.7737 16.6669 19.7737C16.2544 19.7737 15.8635 19.8123 15.4727 19.8895C13.2525 20.3475 11.4395 22.0799 10.8586 24.3033ZM16.1241 21.8095C16.1241 21.5006 16.3684 21.2578 16.6669 21.2578C16.9709 21.2578 17.2098 21.5006 17.2098 21.8095V22.5433C18.1923 22.6261 18.9685 23.4592 18.9685 24.4799C18.9685 24.7833 18.7243 25.0316 18.4257 25.0316C18.1272 25.0316 17.8829 24.7833 17.8829 24.4799C17.8829 24.0109 17.5083 23.6358 17.0469 23.6358H16.2869C16.0915 23.6358 15.9124 23.6964 15.7713 23.8233C15.7406 23.857 15.706 23.8867 15.6681 23.9116C15.5307 24.0678 15.4552 24.2703 15.4564 24.4799C15.4564 24.9489 15.831 25.3295 16.2869 25.3295H17.0469C17.0849 25.3295 17.1229 25.3351 17.1555 25.3406C17.6451 25.3687 18.1057 25.5861 18.4428 25.9482C18.7798 26.3103 18.9679 26.7897 18.9685 27.2882C18.9685 28.3089 18.1923 29.1475 17.2098 29.2302V29.964C17.2098 30.2675 16.9709 30.5158 16.6669 30.5158C16.3684 30.5158 16.1241 30.2675 16.1241 29.964V29.2302C15.645 29.1891 15.1984 28.9667 14.8728 28.6071C14.5471 28.2476 14.3661 27.7769 14.3653 27.2882C14.3653 26.9847 14.6096 26.7364 14.9082 26.7364C15.2121 26.7364 15.451 26.9847 15.451 27.2882C15.451 27.7571 15.8255 28.1378 16.2869 28.1378H17.0469C17.2686 28.1378 17.4813 28.0483 17.638 27.889C17.7948 27.7296 17.8829 27.5135 17.8829 27.2882C17.8829 27.0628 17.7948 26.8467 17.638 26.6874C17.4813 26.528 17.2686 26.4385 17.0469 26.4385H16.2869C16.249 26.4385 16.211 26.433 16.1784 26.4275C15.6893 26.399 15.2295 26.1813 14.8934 25.8192C14.5572 25.457 14.3702 24.9778 14.3707 24.4799C14.3707 24.342 14.3816 24.2151 14.4142 24.0937C14.4087 24.0826 14.4142 24.0771 14.4196 24.0661V24.0551C14.4196 24.044 14.4196 24.033 14.425 24.022C14.4413 23.9392 14.4685 23.8564 14.501 23.7737C14.5282 23.7075 14.5553 23.6413 14.5933 23.5751C14.6042 23.5475 14.6259 23.5144 14.6476 23.4813C14.6693 23.4371 14.6964 23.3985 14.7236 23.3599C14.7399 23.3323 14.7616 23.3102 14.7833 23.2826C14.8267 23.222 14.8756 23.1613 14.9353 23.1061C14.9787 23.062 15.0221 23.0233 15.0656 22.9902C15.3611 22.7272 15.7324 22.5685 16.1241 22.5378V21.8095Z" fill="#AAAAAA"/>
<path d="M22.5286 21.8152C23.0414 22.5657 23.4047 23.411 23.598 24.3034C23.6143 24.2593 23.6197 24.2097 23.6197 24.16V10.8414C23.6197 10.5324 23.3754 10.2841 23.0714 10.2841H17.9688C17.6648 10.2841 17.4206 10.5324 17.4206 10.8414V18.7145C17.7951 18.7531 18.1588 18.8193 18.5116 18.9186C20.1673 19.371 21.5841 20.4138 22.5286 21.8152ZM25.6716 24.7117H30.7797C31.0782 24.7117 31.3225 24.4634 31.3225 24.16V0.551724C31.3225 0.248276 31.0782 0 30.7797 0H25.6716C25.3676 0 25.1234 0.248276 25.1234 0.551724V24.16C25.1234 24.4634 25.3676 24.7117 25.6716 24.7117ZM32.1205 26.2841H23.7608C23.7391 26.6648 23.6903 27.0345 23.6143 27.3931H32.1205C32.1921 27.3931 32.2631 27.3788 32.3292 27.3509C32.3954 27.323 32.4556 27.2822 32.5062 27.2307C32.5569 27.1792 32.5971 27.1181 32.6245 27.0508C32.6519 26.9835 32.666 26.9114 32.666 26.8386C32.666 26.7658 32.6519 26.6937 32.6245 26.6264C32.5971 26.5592 32.5569 26.498 32.5062 26.4465C32.4556 26.3951 32.3954 26.3542 32.3292 26.3263C32.2631 26.2985 32.1921 26.2841 32.1205 26.2841ZM9.57662 26.2841H1.21156C1.13992 26.2841 1.06898 26.2985 1.00279 26.3263C0.936602 26.3542 0.876461 26.3951 0.825803 26.4465C0.775144 26.498 0.734959 26.5592 0.707543 26.6264C0.680127 26.6937 0.666016 26.7658 0.666016 26.8386C0.666016 26.9114 0.680127 26.9835 0.707543 27.0508C0.734959 27.1181 0.775144 27.1792 0.825803 27.2307C0.876461 27.2822 0.936602 27.323 1.00279 27.3509C1.06898 27.3788 1.13992 27.3931 1.21156 27.3931H9.72318C9.64719 27.0345 9.59833 26.6648 9.57662 26.2841Z" fill="#AAAAAA"/>
</svg>
