<svg width="6" height="6" viewBox="0 0 6 6" fill="none" xmlns="http://www.w3.org/2000/svg">
<path d="M3.42784 0.433393C3.42784 0.197138 3.23631 0.00561523 3.00006 0.00561523C2.7638 0.00561523 2.57228 0.197138 2.57228 0.433393V2.57228H0.433393C0.197138 2.57228 0.00561523 2.7638 0.00561523 3.00006C0.00561523 3.23631 0.197138 3.42784 0.433393 3.42784H2.57228V5.56673C2.57228 5.80298 2.7638 5.9945 3.00006 5.9945C3.23631 5.9945 3.42784 5.80298 3.42784 5.56673V3.42784H5.56673C5.80298 3.42784 5.9945 3.23631 5.9945 3.00006C5.9945 2.7638 5.80298 2.57228 5.56673 2.57228H3.42784V0.433393Z" fill="#FFC107"/>
</svg>
