<svg width="24" height="24" viewBox="0 0 24 24" fill="none" xmlns="http://www.w3.org/2000/svg">
<path d="M19.4047 1.65527H7.33074C6.61629 1.65527 6.03711 2.21106 6.03711 2.89665V19.8622C6.03711 20.5478 6.61629 21.1035 7.33074 21.1035H19.4047C20.1191 21.1035 20.6983 20.5478 20.6983 19.8622V2.89665C20.6983 2.21106 20.1191 1.65527 19.4047 1.65527Z" fill="#0093B9"/>
<path d="M7.76172 3.31055H18.9732V19.4485H7.76172V3.31055Z" fill="#E3E4E2"/>
<path d="M16.3866 3.31034H10.3496V1.65517H12.0745L11.6432 0H15.0929L14.6617 1.65517H16.3866V3.31034Z" fill="#57C3C1"/>
<path d="M11.2117 7.03452H9.48688C9.37251 7.03452 9.26283 6.99092 9.18196 6.91332C9.10109 6.83572 9.05566 6.73047 9.05566 6.62072V4.96555C9.05566 4.85581 9.10109 4.75056 9.18196 4.67296C9.26283 4.59535 9.37251 4.55176 9.48688 4.55176H11.2117C11.3261 4.55176 11.4358 4.59535 11.5166 4.67296C11.5975 4.75056 11.6429 4.85581 11.6429 4.96555V6.62072C11.6429 6.73047 11.5975 6.83572 11.5166 6.91332C11.4358 6.99092 11.3261 7.03452 11.2117 7.03452ZM9.91809 6.20693H10.7805V5.37934H9.91809V6.20693ZM11.2117 10.7587H9.48688C9.37251 10.7587 9.26283 10.7151 9.18196 10.6375C9.10109 10.5599 9.05566 10.4546 9.05566 10.3449V8.68969C9.05566 8.57994 9.10109 8.47469 9.18196 8.39709C9.26283 8.31949 9.37251 8.2759 9.48688 8.2759H11.2117C11.3261 8.2759 11.4358 8.31949 11.5166 8.39709C11.5975 8.47469 11.6429 8.57994 11.6429 8.68969V10.3449C11.6429 10.4546 11.5975 10.5599 11.5166 10.6375C11.4358 10.7151 11.3261 10.7587 11.2117 10.7587ZM9.91809 9.93107H10.7805V9.10348H9.91809V9.93107ZM12.5054 4.55176H13.3678V5.37934H12.5054V4.55176ZM12.5054 6.20693H17.6799V7.03452H12.5054V6.20693ZM14.2302 4.55176H17.6799V5.37934H14.2302V4.55176ZM12.5054 8.2759H13.3678V9.10348H12.5054V8.2759ZM12.5054 9.93107H17.6799V10.7587H12.5054V9.93107ZM14.2302 8.2759H17.6799V9.10348H14.2302V8.2759Z" fill="#B2B1B4"/>
<path d="M15.5236 24.0002H0V10.7588H7.76181V17.3795H15.5236V24.0002Z" fill="#F8BC1E"/>
<path d="M10.3496 17.3794H12.9369V19.8622H10.3496V17.3794Z" fill="#F9DA62"/>
<path d="M15.524 17.793H14.8771C14.7056 17.793 14.5411 17.8584 14.4198 17.9748C14.2985 18.0912 14.2303 18.249 14.2303 18.4137V19.4639C14.2302 20.3377 13.8685 21.1756 13.2247 21.7935C12.5808 22.4113 11.7076 22.7584 10.7971 22.7585H8.84018C8.66863 22.7585 8.50411 22.8239 8.38281 22.9403C8.26151 23.0567 8.19336 23.2146 8.19336 23.3792V23.9999H15.524V17.793Z" fill="#F5A922"/>
<path d="M13.3672 21.9312H14.2296V22.7587H13.3672V21.9312Z" fill="#F79726"/>
<path d="M2.58691 17.3794H5.17418V19.8622H2.58691V17.3794Z" fill="#F9DA62"/>
<path d="M7.76224 17.793H7.11542C6.94387 17.793 6.77935 17.8584 6.65805 17.9748C6.53675 18.0912 6.4686 18.249 6.4686 18.4137V19.4639C6.46853 20.3377 6.10679 21.1756 5.46295 21.7935C4.8191 22.4113 3.94588 22.7584 3.03535 22.7585H1.07846C0.906911 22.7585 0.742391 22.8239 0.621089 22.9403C0.499787 23.0567 0.431641 23.2146 0.431641 23.3792V23.9999H7.76224V17.793Z" fill="#F5A922"/>
<path d="M5.60547 21.9312H6.46789V22.7587H5.60547V21.9312Z" fill="#F79726"/>
<path d="M2.58691 10.7588H5.17418V13.2415H2.58691V10.7588Z" fill="#F9DA62"/>
<path d="M7.76224 11.1724H7.11542C6.94387 11.1724 6.77935 11.2378 6.65805 11.3542C6.53675 11.4706 6.4686 11.6284 6.4686 11.7931V12.8433C6.46853 13.7171 6.10679 14.555 5.46295 15.1728C4.8191 15.7907 3.94588 16.1378 3.03535 16.1379H1.07846C0.906911 16.1379 0.742391 16.2033 0.621089 16.3197C0.499787 16.4361 0.431641 16.594 0.431641 16.7586V17.3793H7.76224V11.1724Z" fill="#F5A922"/>
<path d="M5.60547 15.3105H6.46789V16.1381H5.60547V15.3105Z" fill="#F79726"/>
<path d="M23.3849 12.3079L11.8177 15.629L9.91797 15.3106L11.3232 14.0433L22.8905 10.7222C23.1096 10.6593 23.3458 10.6825 23.5471 10.7867C23.7484 10.8909 23.8984 11.0676 23.9639 11.2779C24.0295 11.4881 24.0053 11.7148 23.8967 11.9079C23.7881 12.1011 23.604 12.245 23.3849 12.3079Z" fill="#F8BC1E"/>
<path d="M18.6325 15.8318L18.3853 15.0389L21.3676 14.1826L21.2254 11.2001L22.077 10.9556L22.2445 14.4676C22.2489 14.5598 22.2211 14.6508 22.1654 14.726C22.1097 14.8013 22.0295 14.8565 21.9373 14.883L18.6325 15.8318ZM13.3936 13.4444L14.2198 13.2069L14.7148 14.7926L13.8886 15.0301L13.3936 13.4444Z" fill="#F79726"/>
</svg>
