<svg width="24" height="24" viewBox="0 0 24 24" fill="none" xmlns="http://www.w3.org/2000/svg">
<path d="M4.16797 0C4.61075 0 5.01112 0.204372 5.30343 0.538839C5.45323 0.709595 5.57195 0.912648 5.65272 1.13625C5.73348 1.35985 5.7747 1.59955 5.77397 1.8415V22.1585C5.77397 22.8485 6.10643 23.4509 6.59874 23.7673C6.8385 23.9206 7.1087 24.0007 7.38335 24H22.1601V1.85223C22.1601 1.69036 22.1417 1.53537 22.1049 1.38724C22.0152 0.99076 21.813 0.63954 21.5302 0.388586C21.2473 0.137632 20.8996 0.0011199 20.5417 0.000429322L4.16797 0Z" fill="#E9E9FF"/>
<path d="M8.69084 4.77919C8.67675 4.76332 8.66566 4.74431 8.65824 4.72334C8.65081 4.70236 8.64722 4.67988 8.64769 4.65726V2.3087C8.64735 2.27436 8.65597 2.24068 8.67245 2.21198C8.68893 2.18328 8.71252 2.16086 8.7402 2.14758C8.76788 2.1343 8.79839 2.13077 8.82783 2.13745C8.85728 2.14412 8.88431 2.16069 8.90547 2.18504C8.93549 2.21939 8.9505 2.26061 8.9505 2.3087V4.65726C8.9505 4.70578 8.93549 4.74613 8.90547 4.77919C8.87545 4.81225 8.83943 4.82857 8.7974 4.82857C8.75538 4.82857 8.71973 4.81225 8.69084 4.77919ZM9.54562 4.77919C9.53154 4.76332 9.52044 4.74431 9.51302 4.72334C9.5056 4.70236 9.50201 4.67988 9.50247 4.65726V3.02443C9.50206 2.99 9.51065 2.95621 9.52715 2.92742C9.54365 2.89862 9.5673 2.87613 9.59505 2.86284C9.62281 2.84954 9.65341 2.84605 9.68292 2.85281C9.71242 2.85957 9.73949 2.87627 9.76063 2.90077C9.79065 2.93512 9.80566 2.97634 9.80566 3.02443V3.18028C9.88971 3.0738 9.98052 2.98879 10.0781 2.92525C10.1756 2.8617 10.2912 2.83036 10.424 2.83036C10.546 2.83036 10.6522 2.86299 10.7419 2.92911C10.8317 2.99506 10.9033 3.08888 10.9482 3.1996C10.9959 3.31338 11.0195 3.43918 11.0195 3.57615V4.65726C11.0195 4.70578 11.0045 4.74613 10.9745 4.77919C10.9445 4.81225 10.9088 4.82857 10.8664 4.82857C10.824 4.82857 10.7888 4.81225 10.7603 4.77919C10.7461 4.76335 10.735 4.74434 10.7276 4.72336C10.7202 4.70239 10.7166 4.67988 10.7171 4.65726V3.61393C10.7171 3.3048 10.5948 3.15023 10.3509 3.15023C10.2402 3.15023 10.1407 3.18286 10.0529 3.24898C9.9586 3.32216 9.87501 3.41201 9.80528 3.51518V4.65726C9.80528 4.70578 9.79028 4.74613 9.76026 4.77919C9.74604 4.79515 9.72921 4.80773 9.71072 4.8162C9.69224 4.82468 9.67247 4.82888 9.65256 4.82857C9.63273 4.82916 9.61301 4.82508 9.59461 4.81659C9.57622 4.80809 9.55954 4.79536 9.54562 4.77919ZM11.991 4.78864C11.9589 4.7635 11.9335 4.72854 11.9179 4.68774L11.3392 3.10429C11.3291 3.07919 11.3234 3.05206 11.3224 3.02443C11.3221 3.00162 11.3257 2.97897 11.3331 2.95778C11.3405 2.9366 11.3515 2.91731 11.3655 2.90102C11.3794 2.88473 11.3961 2.87176 11.4144 2.86288C11.4328 2.85399 11.4525 2.84936 11.4725 2.84925C11.501 2.84925 11.5284 2.8587 11.5535 2.87759C11.5774 2.89451 11.5966 2.91895 11.6087 2.948L12.1175 4.42498L12.6267 2.948C12.6386 2.91896 12.6576 2.8945 12.6815 2.87759C12.7101 2.85567 12.7446 2.84598 12.7789 2.85022C12.8132 2.85446 12.8451 2.87235 12.8691 2.90077C12.898 2.93512 12.9126 2.97634 12.9126 3.02443C12.9117 3.05203 12.9061 3.07916 12.8961 3.10429L12.3171 4.68774C12.3014 4.72852 12.2761 4.76346 12.2439 4.78864C12.2118 4.8148 12.1734 4.82877 12.134 4.82857H12.101C12.0616 4.82883 12.0231 4.81486 11.991 4.78864ZM13.5381 4.72209C13.4104 4.63943 13.3069 4.51546 13.2406 4.36573C13.1686 4.20253 13.1325 4.02168 13.1355 3.83891C13.1355 3.64098 13.1704 3.46537 13.2406 3.31166C13.3104 3.15839 13.4094 3.03945 13.5381 2.95573C13.6664 2.87201 13.8165 2.83036 13.9873 2.83036C14.1561 2.83036 14.3043 2.87201 14.4331 2.95573C14.5618 3.03945 14.6616 3.15839 14.7325 3.31209C14.8034 3.46537 14.8387 3.64098 14.8387 3.83891C14.8387 4.03684 14.8034 4.21245 14.7325 4.36616C14.6612 4.51986 14.5618 4.63837 14.4331 4.72209C14.3043 4.80581 14.1558 4.84746 13.9873 4.84746C13.8165 4.84746 13.6664 4.80581 13.5381 4.72209ZM14.2484 4.45933C14.3314 4.41124 14.4 4.33481 14.4548 4.23091C14.5089 4.12701 14.5362 3.99477 14.5362 3.83505C14.5362 3.6779 14.5089 3.54738 14.4544 3.44305C14.4065 3.34602 14.3347 3.26721 14.2481 3.21635C14.1664 3.17 14.0765 3.14589 13.9854 3.14589C13.8943 3.14589 13.8044 3.17 13.7227 3.21635C13.6394 3.26358 13.5711 3.33914 13.5182 3.44305C13.4649 3.54695 13.4383 3.6779 13.4383 3.83505C13.4383 3.9952 13.4646 4.12701 13.5182 4.23091C13.5711 4.33524 13.6394 4.41124 13.7227 4.45933C13.8041 4.50672 13.8941 4.53142 13.9854 4.53142C14.0767 4.53142 14.1671 4.50672 14.2484 4.45933ZM15.2845 2.41517C15.2684 2.39746 15.2557 2.37616 15.2471 2.35261C15.2385 2.32905 15.2343 2.30373 15.2346 2.27821V2.26318C15.2346 2.20951 15.2511 2.164 15.2845 2.12579C15.3 2.10735 15.3186 2.09276 15.3393 2.08293C15.36 2.07311 15.3822 2.06826 15.4045 2.06869H15.424C15.4706 2.06869 15.5104 2.08801 15.5441 2.12579C15.5602 2.14357 15.5729 2.16494 15.5815 2.18857C15.5901 2.2122 15.5944 2.2376 15.594 2.26318V2.27821C15.594 2.33145 15.5771 2.37696 15.5441 2.4156C15.5285 2.43393 15.5099 2.44841 15.4892 2.45816C15.4686 2.46791 15.4464 2.47271 15.424 2.47228H15.4042C15.3819 2.47265 15.3597 2.46777 15.3391 2.45795C15.3185 2.44813 15.2999 2.43357 15.2845 2.41517ZM15.3043 4.77919C15.2903 4.76332 15.2792 4.74431 15.2717 4.72334C15.2643 4.70236 15.2607 4.67988 15.2612 4.65726V3.02443C15.2609 3.00162 15.2646 2.97897 15.272 2.95778C15.2794 2.9366 15.2904 2.91731 15.3043 2.90102C15.3183 2.88473 15.3349 2.87176 15.3533 2.86288C15.3716 2.85399 15.3914 2.84936 15.4113 2.84925C15.4552 2.84925 15.492 2.866 15.5209 2.89863C15.5352 2.91512 15.5464 2.93479 15.5538 2.95642C15.5612 2.97806 15.5647 3.0012 15.564 3.02443V4.65726C15.564 4.70578 15.549 4.74613 15.519 4.77919C15.5047 4.7952 15.4878 4.80781 15.4693 4.81629C15.4507 4.82476 15.4309 4.82894 15.4109 4.82857C15.3911 4.8291 15.3715 4.82499 15.3532 4.8165C15.3348 4.80801 15.3182 4.79531 15.3043 4.77919ZM16.4323 4.72596C16.2978 4.64583 16.1855 4.52453 16.1077 4.3756C16.0267 4.22361 15.9865 4.04457 15.9865 3.83891C15.9865 3.63325 16.0267 3.45464 16.1077 3.30222C16.1888 3.1498 16.2968 3.03344 16.4323 2.95187C16.5689 2.87037 16.721 2.82864 16.8751 2.83036C16.9922 2.83036 17.0938 2.84753 17.179 2.88188C17.2646 2.9158 17.3441 2.95959 17.4169 3.01283C17.4344 3.02442 17.4494 3.04045 17.4607 3.05967C17.472 3.0789 17.4793 3.10083 17.4821 3.12378C17.4848 3.14673 17.4829 3.17009 17.4766 3.19209C17.4702 3.21409 17.4596 3.23413 17.4454 3.2507C17.4346 3.26548 17.421 3.27739 17.4057 3.28562C17.3904 3.29385 17.3738 3.29819 17.3569 3.29835C17.3312 3.29798 17.306 3.29015 17.2837 3.2756C17.2235 3.23884 17.1607 3.20768 17.0961 3.18243C17.0327 3.16153 16.9669 3.15183 16.901 3.15366C16.7107 3.15366 16.561 3.21635 16.4522 3.34258C16.3434 3.46795 16.2893 3.63325 16.2893 3.83891C16.2893 4.04457 16.3434 4.20987 16.4522 4.33567C16.561 4.46147 16.7107 4.52416 16.9013 4.52416C16.9786 4.52416 17.0439 4.51471 17.0961 4.49539C17.1607 4.47013 17.2235 4.43897 17.2837 4.40222C17.306 4.38767 17.3312 4.37984 17.3569 4.37947C17.3907 4.37947 17.4195 4.39535 17.4454 4.4267C17.4597 4.44322 17.4705 4.46329 17.4769 4.48534C17.4834 4.5074 17.4853 4.53085 17.4825 4.55389C17.4798 4.57693 17.4724 4.59893 17.461 4.61819C17.4497 4.63746 17.4346 4.65347 17.4169 4.66499C17.3437 4.71823 17.2646 4.76202 17.179 4.79637C17.0935 4.83072 16.9922 4.84789 16.8751 4.84789C16.7149 4.84789 16.5674 4.8071 16.4323 4.72596ZM17.9741 4.58298C17.8225 4.40695 17.7464 4.15878 17.7464 3.83891C17.7464 3.65858 17.7753 3.49242 17.8327 3.34043C17.8905 3.18801 17.9794 3.06479 18.0991 2.97119C18.2192 2.87716 18.3663 2.83036 18.5415 2.83036C18.7058 2.83036 18.8477 2.87415 18.9674 2.96131C19.0875 3.0489 19.1779 3.16568 19.2402 3.31166C19.3021 3.45764 19.3332 3.61693 19.3332 3.78953C19.3338 3.81198 19.3304 3.83432 19.3233 3.85525C19.3162 3.87619 19.3056 3.8953 19.292 3.91147C19.2774 3.9282 19.2599 3.94124 19.2406 3.94974C19.2214 3.95825 19.2008 3.96203 19.1801 3.96085H18.0526C18.0702 4.1386 18.1276 4.27685 18.2252 4.3756C18.3227 4.47435 18.4593 4.52416 18.6349 4.52416C18.728 4.52416 18.8094 4.51385 18.8788 4.49367C18.9482 4.4735 19.0177 4.4443 19.0837 4.40609C19.1024 4.39571 19.123 4.39056 19.1437 4.39106C19.179 4.39106 19.2102 4.4048 19.2368 4.43271C19.2631 4.46061 19.277 4.49625 19.277 4.53919C19.277 4.595 19.2477 4.64223 19.1903 4.68001C19.104 4.73583 19.0184 4.77791 18.934 4.80581C18.8496 4.83372 18.7411 4.84746 18.6079 4.84746C18.3377 4.84746 18.1261 4.75944 17.9741 4.58298ZM19.0338 3.67919C19.0309 3.56824 19.0016 3.4603 18.949 3.36705C18.9033 3.28745 18.8394 3.22362 18.7644 3.18243C18.6912 3.14293 18.6169 3.12318 18.5415 3.12318C18.4661 3.12318 18.3918 3.14293 18.3186 3.18243C18.2454 3.2215 18.1843 3.28333 18.1355 3.36705C18.0867 3.45077 18.0589 3.55468 18.0526 3.67919H19.0338ZM5.77452 3.6822V1.84156C5.77523 1.59968 5.73401 1.36004 5.65324 1.13651C5.57247 0.912985 5.45376 0.710007 5.30397 0.53933C5.1552 0.368144 4.97826 0.232385 4.78337 0.139899C4.58847 0.0474123 4.3795 3.08394e-05 4.16851 0.00049161C3.72574 0.00049161 3.32573 0.204435 3.03343 0.53933C2.88357 0.709972 2.76479 0.912933 2.68395 1.13646C2.60312 1.35999 2.56184 1.59965 2.56251 1.84156V3.6822H5.77452ZM7.38427 24.0001H22.3899C22.6013 24.0001 22.8107 23.9525 23.006 23.86C23.2013 23.7674 23.3788 23.6317 23.5283 23.4607C23.6778 23.2896 23.7963 23.0866 23.8772 22.8631C23.9581 22.6396 23.9997 22.4 23.9997 22.1581V20.7713H8.99028V22.1581C8.99102 22.4002 8.94978 22.64 8.86895 22.8637C8.78811 23.0874 8.66929 23.2905 8.51936 23.4612C8.37057 23.6324 8.19363 23.7681 7.99874 23.8606C7.80385 23.9531 7.59488 24.0005 7.3839 24.0001H7.38427Z" fill="#ED524E"/>
<path d="M14.7694 9.78367V10.2886C14.7694 10.3103 14.7619 10.3311 14.7486 10.3464C14.7352 10.3618 14.7171 10.3705 14.6981 10.3706H7.59158C7.58216 10.3706 7.57284 10.3686 7.56412 10.3645C7.55541 10.3604 7.54748 10.3545 7.54079 10.3469C7.5341 10.3393 7.52878 10.3303 7.52513 10.3204C7.52148 10.3104 7.51958 10.2998 7.51953 10.289V9.78367C7.51953 9.73858 7.5518 9.70166 7.59158 9.70166H14.6978C14.7375 9.70166 14.7694 9.73858 14.7694 9.78367ZM18.3683 9.78367V10.2886C18.3683 10.3341 18.4006 10.3706 18.44 10.3706H20.2531C20.2721 10.3706 20.2902 10.362 20.3037 10.3467C20.3171 10.3314 20.3247 10.3107 20.3248 10.289V9.78367C20.3248 9.76199 20.3173 9.7412 20.3039 9.72583C20.2906 9.71046 20.2724 9.70177 20.2535 9.70166H18.44C18.421 9.70177 18.4029 9.71046 18.3895 9.72583C18.3762 9.7412 18.3683 9.76199 18.3683 9.78367ZM12.9754 11.7475V12.2524C12.9754 12.2741 12.9679 12.2949 12.9546 12.3103C12.9412 12.3257 12.9231 12.3343 12.9041 12.3345H7.59195C7.58251 12.3345 7.57315 12.3324 7.56441 12.3283C7.55567 12.3242 7.54773 12.3182 7.54103 12.3106C7.53434 12.303 7.52902 12.2939 7.5254 12.2839C7.52177 12.274 7.51991 12.2633 7.51991 12.2524V11.7475C7.51991 11.702 7.55218 11.6655 7.59195 11.6655H12.9041C12.9435 11.6655 12.9754 11.702 12.9754 11.7475Z" fill="#CFCFFF"/>
<path d="M12.9754 9.78372V10.2886C12.9754 10.3103 12.9679 10.3311 12.9546 10.3465C12.9412 10.3618 12.9231 10.3705 12.9041 10.3706H7.59195C7.58254 10.3707 7.57321 10.3686 7.5645 10.3646C7.55578 10.3605 7.54785 10.3545 7.54116 10.3469C7.53447 10.3394 7.52915 10.3303 7.52551 10.3204C7.52186 10.3105 7.51996 10.2998 7.51991 10.2891V9.78372C7.51991 9.73864 7.55218 9.70171 7.59195 9.70171H12.9041C12.9435 9.70171 12.9754 9.73864 12.9754 9.78372ZM12.9754 7.81986V8.32478C12.9755 8.33555 12.9737 8.34622 12.9701 8.35619C12.9666 8.36616 12.9613 8.37524 12.9547 8.38289C12.9481 8.39055 12.9402 8.39663 12.9315 8.40081C12.9229 8.40498 12.9136 8.40716 12.9041 8.40721H7.59195C7.58248 8.40727 7.57309 8.40518 7.56432 8.40105C7.55556 8.39693 7.5476 8.39086 7.5409 8.3832C7.5342 8.37553 7.52889 8.36642 7.52529 8.35639C7.52169 8.34636 7.51986 8.33562 7.51991 8.32478V7.81986C7.51991 7.77478 7.55218 7.73828 7.59195 7.73828H12.9041C12.9435 7.73828 12.9754 7.77478 12.9754 7.81986ZM16.5747 11.7476V12.2525C16.5747 12.298 16.6066 12.3345 16.646 12.3345H20.2531C20.2721 12.3345 20.2904 12.3259 20.3038 12.3105C20.3172 12.2951 20.3248 12.2743 20.3248 12.2525V11.7476C20.3248 11.7259 20.3173 11.7051 20.3039 11.6897C20.2906 11.6744 20.2724 11.6657 20.2535 11.6656H16.6464C16.6369 11.6656 16.6276 11.6677 16.6189 11.6718C16.6102 11.6759 16.6023 11.682 16.5957 11.6896C16.589 11.6972 16.5837 11.7063 16.5801 11.7162C16.5765 11.7262 16.5747 11.7368 16.5747 11.7476ZM13.5139 13.7114V14.2164C13.5139 14.2271 13.512 14.2378 13.5084 14.2477C13.5048 14.2577 13.4996 14.2667 13.4929 14.2744C13.4863 14.282 13.4784 14.288 13.4697 14.2921C13.461 14.2963 13.4516 14.2984 13.4422 14.2984H7.59195C7.58251 14.2984 7.57315 14.2963 7.56441 14.2923C7.55567 14.2882 7.54773 14.2821 7.54103 14.2745C7.53434 14.2669 7.52902 14.2578 7.5254 14.2478C7.52177 14.2379 7.51991 14.2272 7.51991 14.2164V13.7114C7.51991 13.6659 7.55218 13.6294 7.59195 13.6294H13.4419C13.4816 13.6294 13.5139 13.6664 13.5139 13.7114ZM17.1128 13.7114V14.2164C17.1128 14.2614 17.1447 14.2984 17.1844 14.2984H20.2531C20.2625 14.2984 20.2718 14.2963 20.2805 14.2921C20.2892 14.288 20.2971 14.282 20.3038 14.2744C20.3104 14.2667 20.3157 14.2577 20.3193 14.2477C20.3229 14.2378 20.3248 14.2271 20.3248 14.2164V13.7114C20.3248 13.6898 20.3173 13.669 20.3039 13.6536C20.2906 13.6382 20.2724 13.6296 20.2535 13.6294H17.1844C17.1655 13.6294 17.1473 13.638 17.1339 13.6533C17.1205 13.6686 17.1129 13.6898 17.1128 13.7114ZM14.7694 15.9364V16.4413C14.7694 16.4629 14.7619 16.4837 14.7486 16.4991C14.7352 16.5145 14.7171 16.5232 14.6981 16.5233H7.59158C7.58213 16.5233 7.57277 16.5213 7.56403 16.5172C7.5553 16.5131 7.54735 16.507 7.54066 16.4994C7.53396 16.4918 7.52865 16.4827 7.52502 16.4728C7.5214 16.4628 7.51953 16.4521 7.51953 16.4413V15.9364C7.51953 15.8908 7.5518 15.8543 7.59158 15.8543H14.6978C14.7375 15.8543 14.7694 15.8908 14.7694 15.9364ZM18.3683 15.9364V16.4413C18.3683 16.4868 18.4006 16.5233 18.44 16.5233H20.2531C20.2721 16.5233 20.2904 16.5146 20.3038 16.4993C20.3172 16.4839 20.3248 16.463 20.3248 16.4413V15.9364C20.3248 15.9147 20.3173 15.8939 20.3039 15.8785C20.2906 15.8632 20.2724 15.8545 20.2535 15.8543H18.44C18.421 15.8545 18.4029 15.8632 18.3895 15.8785C18.3762 15.8939 18.3683 15.9147 18.3683 15.9364ZM12.9754 17.9002V18.4051C12.9754 18.4268 12.9679 18.4476 12.9546 18.463C12.9412 18.4783 12.9231 18.487 12.9041 18.4871H7.59195C7.58251 18.4872 7.57315 18.4851 7.56441 18.481C7.55567 18.4769 7.54773 18.4709 7.54103 18.4633C7.53434 18.4557 7.52902 18.4466 7.5254 18.4366C7.52177 18.4266 7.51991 18.4159 7.51991 18.4051V17.9002C7.51991 17.8547 7.55218 17.8182 7.59195 17.8182H12.9041C12.9435 17.8182 12.9754 17.8551 12.9754 17.9002ZM16.5747 17.9002V18.4051C16.5747 18.4502 16.6066 18.4871 16.646 18.4871H20.2531C20.2721 18.4871 20.2904 18.4785 20.3038 18.4631C20.3172 18.4477 20.3248 18.4269 20.3248 18.4051V17.9002C20.3248 17.8785 20.3173 17.8577 20.3039 17.8424C20.2906 17.827 20.2724 17.8183 20.2535 17.8182H16.6464C16.6274 17.8182 16.6092 17.8268 16.5958 17.8421C16.5824 17.8574 16.5748 17.8785 16.5747 17.9002Z" fill="#CFCFFF"/>
<g opacity="0.2">
<path d="M6.26172 0.065918L13.2955 24.0002H19.1972L12.1597 0.065918H6.26172ZM14.7807 0.065918H13.6767L20.7131 24.0002H21.8133L14.7807 0.065918Z" fill="white"/>
</g>
<path d="M16.4922 7.81986V8.32478C16.4922 8.37029 16.5241 8.40721 16.5635 8.40721H20.2528C20.2622 8.40721 20.2716 8.40508 20.2803 8.40093C20.289 8.39678 20.2969 8.3907 20.3036 8.38304C20.3103 8.37538 20.3155 8.36629 20.3191 8.35629C20.3227 8.34629 20.3245 8.33558 20.3245 8.32478V7.81986C20.3244 7.79826 20.3168 7.77757 20.3035 7.7623C20.2901 7.74703 20.272 7.73839 20.2532 7.73828H16.5639C16.5449 7.73828 16.5267 7.74686 16.5133 7.76215C16.4999 7.77744 16.4923 7.79818 16.4922 7.81986Z" fill="#CFCFFF"/>
<path d="M9.62739 14.3044V23.3251C9.62739 23.6978 9.36323 24.0001 9.03752 24.0001H0.589869C0.433426 24.0001 0.28339 23.9289 0.172769 23.8024C0.0621467 23.6758 0 23.5041 0 23.3251V14.3044C0 13.9317 0.264165 13.6299 0.589869 13.6299H9.03752C9.36323 13.6299 9.62739 13.9317 9.62739 14.3044Z" fill="#FDC72E"/>
<path d="M5.91514 13.6299V16.2558C5.91511 16.28 5.90923 16.3038 5.89815 16.3244C5.88706 16.345 5.87121 16.3618 5.85234 16.3727C5.83347 16.3837 5.81232 16.3885 5.79122 16.3866C5.77012 16.3847 5.7499 16.3761 5.73278 16.3619L4.88212 15.6603C4.86244 15.6435 4.83855 15.6345 4.81402 15.6345C4.78948 15.6345 4.7656 15.6435 4.74591 15.6603L3.89563 16.3619C3.87851 16.3762 3.85825 16.3849 3.83709 16.3869C3.81593 16.3889 3.79471 16.3841 3.77577 16.3731C3.75684 16.3621 3.74094 16.3453 3.72984 16.3246C3.71874 16.3039 3.71287 16.2801 3.71289 16.2558V13.6299H5.91514Z" fill="#ED524E"/>
<path d="M5.62819 21.4912H8.5325V21.9923H5.62819V21.4912ZM4.125 22.6638H8.5325V23.1648H4.125V22.6638Z" fill="#F9AC00"/>
<g opacity="0.2">
<path d="M7.28497 23.9999H3.1679L0.175781 13.8221C0.286546 13.6981 0.435424 13.6287 0.590415 13.6289H4.23244L7.28497 23.9999ZM9.45496 23.8029C9.34368 23.9286 9.19372 23.9994 9.03732 23.9999H8.34313L5.2906 13.6293H6.45983L9.45496 23.8029Z" fill="white"/>
</g>
</svg>
