<svg width="24" height="24" viewBox="0 0 24 24" fill="none" xmlns="http://www.w3.org/2000/svg">
<path d="M23.6125 9.67749V20.5162C23.6125 21.3717 22.9196 22.0646 22.0641 22.0646H13.548C13.548 22.4904 13.3738 22.8775 13.0951 23.1601C12.8125 23.4388 12.4254 23.613 11.9996 23.613C11.5738 23.613 11.1867 23.4388 10.9041 23.1601C10.6147 22.8688 10.452 22.4752 10.4512 22.0646H1.93511C1.07962 22.0646 0.386719 21.3717 0.386719 20.5162V9.67749H1.93511V20.5162H22.0641V9.67749H22.4512H23.6125Z" fill="#B4DD7F"/>
<path d="M12.0001 18.9678H1.93555V20.5162H22.0646V18.9678H12.0001Z" fill="#FFEAA7"/>
<path d="M14.3226 8.12915C13.0414 8.12915 12.0001 9.17044 12.0001 10.4517C12.0001 9.17044 10.9588 8.12915 9.67748 8.12915H1.93555V18.9679H22.0646V8.12915H14.3226Z" fill="#E6E9ED"/>
<path d="M8.90275 11.2258H3.4834V17.4194H10.4511V11.2258H8.90275Z" fill="#FFEAA7"/>
<path d="M10.4518 9.67749V11.2259H5.80664V9.67749H10.4518Z" fill="#FF826E"/>
<path d="M3.4834 9.67753H5.80598V11.2259H3.4834V9.67753ZM8.12856 0.387207C10.2653 0.387207 11.9995 2.1214 11.9995 4.25817C11.9995 6.39495 10.2653 8.12914 8.12856 8.12914C5.99179 8.12914 4.25759 6.39495 4.25759 4.25817C4.25759 2.1214 5.99179 0.387207 8.12856 0.387207Z" fill="#FCD770"/>
<path d="M20.5162 3.48391V8.12907C20.5162 8.55488 20.1678 8.90326 19.742 8.90326C19.3162 8.90326 18.9678 8.55488 18.9678 8.12907V3.48391C18.9678 3.0581 19.3162 2.70972 19.742 2.70972C19.9549 2.70972 20.1484 2.79488 20.2878 2.9381C20.431 3.07746 20.5162 3.27101 20.5162 3.48391Z" fill="#CCD1D9"/>
<path d="M18.9679 8.12898V11.2683C18.9679 11.5161 18.9369 11.7599 18.8827 11.9999H15.9563C15.9021 11.7599 15.8711 11.5161 15.8711 11.2683V5.8064H18.9679V8.12898Z" fill="#FF826E"/>
<path d="M18.9679 3.48398V5.80656H15.8711V1.93559C15.8711 1.50979 16.0453 1.12269 16.324 0.84011C16.6066 0.561401 16.9937 0.387207 17.4195 0.387207C18.275 0.387207 18.9679 1.08011 18.9679 1.93559V3.48398ZM15.9601 12.0001H18.8827C18.8246 12.2246 18.7472 12.4453 18.6427 12.6543L17.9808 13.9782C17.8724 14.1872 17.6556 14.3227 17.4195 14.3227C17.1834 14.3227 16.9666 14.1872 16.8582 13.9782L16.1963 12.6543C16.0917 12.4453 16.0143 12.2246 15.9563 12.0001H15.9601Z" fill="#AAB2BD"/>
<path d="M22.4516 9.29032V7.74194H20.9032V3.48387C20.9032 2.84361 20.3822 2.32258 19.7419 2.32258C19.6057 2.32258 19.4764 2.35045 19.3548 2.39381V1.93548C19.3548 0.868258 18.4866 0 17.4194 0C16.3521 0 15.4839 0.868258 15.4839 1.93548V7.74194H14.3226C13.3363 7.74194 12.4742 8.27342 12 9.0631C11.6449 8.47028 11.0772 8.03507 10.4125 7.84606C11.5978 7.08929 12.3871 5.76542 12.3871 4.25806C12.3871 1.91032 10.4768 0 8.12903 0C5.78129 0 3.87097 1.91032 3.87097 4.25806C3.87097 5.69806 4.59135 6.97084 5.68839 7.74194H1.54839V9.29032H0V20.5161C0 21.5834 0.868258 22.4516 1.93548 22.4516H10.1036C10.2832 23.3338 11.0655 24 12 24C12.9345 24 13.7168 23.3338 13.8964 22.4516H22.0645C23.1317 22.4516 24 21.5834 24 20.5161V9.29032H22.4516ZM2.32258 19.3548H11.6129V20.129H2.32258V19.3548ZM12.3871 19.3548H21.6774V20.129H12.3871V19.3548ZM19.7419 3.09677C19.9552 3.09677 20.129 3.27019 20.129 3.48387V8.12903C20.1246 8.2287 20.0818 8.32281 20.0097 8.39176C19.9376 8.46072 19.8417 8.4992 19.7419 8.4992C19.6422 8.4992 19.5462 8.46072 19.4741 8.39176C19.402 8.32281 19.3593 8.2287 19.3548 8.12903V3.48387C19.3548 3.27019 19.5286 3.09677 19.7419 3.09677ZM18.5806 11.2688C18.5806 11.3837 18.5717 11.4987 18.557 11.6129H16.2821C16.2665 11.4988 16.2585 11.3839 16.2581 11.2688V6.19355H18.5806V8.12903V11.2688ZM18.3348 12.3871C18.3209 12.4181 18.3097 12.4506 18.2946 12.4808L17.6334 13.8031C17.5517 13.9665 17.287 13.9665 17.2057 13.8031L16.5445 12.4808C16.529 12.4506 16.5182 12.4181 16.5039 12.3871H18.3348ZM17.4194 0.774194C18.0596 0.774194 18.5806 1.29523 18.5806 1.93548V5.41935H16.2581V1.93548C16.2581 1.29523 16.7791 0.774194 17.4194 0.774194ZM14.3226 8.51613H15.4839V11.2688C15.4839 11.8068 15.6112 12.3457 15.8516 12.8268L16.5128 14.1492C16.6854 14.4948 17.033 14.7097 17.4194 14.7097C17.8057 14.7097 18.1533 14.4948 18.3259 14.1495L18.9871 12.8272C19.2284 12.3432 19.3543 11.8099 19.3548 11.2692V9.2191C19.4764 9.26245 19.6057 9.29032 19.7419 9.29032C19.9813 9.28955 20.2146 9.21473 20.4098 9.07612C20.6049 8.93751 20.7524 8.7419 20.832 8.51613H21.6774V18.5806H12.3871V10.4516C12.3871 9.38439 13.2554 8.51613 14.3226 8.51613ZM4.64516 4.25806C4.64516 2.3369 6.20826 0.774194 8.12903 0.774194C10.0498 0.774194 11.6129 2.3369 11.6129 4.25806C11.6129 6.17923 10.0498 7.74194 8.12903 7.74194C6.20826 7.74194 4.64516 6.17923 4.64516 4.25806ZM9.67742 8.51613C10.7446 8.51613 11.6129 9.38439 11.6129 10.4516V18.5806H2.32258V8.51613H9.67742ZM23.2258 20.5161C23.2258 21.1564 22.7048 21.6774 22.0645 21.6774H13.1613V22.0645C13.1613 22.7048 12.6403 23.2258 12 23.2258C11.3597 23.2258 10.8387 22.7048 10.8387 22.0645V21.6774H1.93548C1.29523 21.6774 0.774194 21.1564 0.774194 20.5161V10.0645H1.54839V20.9032H22.4516V10.0645H23.2258V20.5161Z" fill="black"/>
<path d="M13.1612 15.4838H20.9031V16.258H13.1612V15.4838ZM13.1612 17.0322H19.3547V17.8064H13.1612V17.0322ZM20.1289 17.0322H20.9031V17.8064H20.1289V17.0322ZM20.1289 10.0645H20.9031V10.8387H20.1289V10.0645ZM20.1289 11.6129H20.9031V12.387H20.1289V11.6129ZM20.1289 13.1612H20.9031V13.9354H20.1289V13.1612ZM10.8386 9.29028H3.09668V17.8064H10.8386V9.29028ZM10.0644 10.8387H6.19345V10.0645H10.0644V10.8387ZM7.74184 11.6129H8.51603V17.0322H7.74184V11.6129ZM6.96765 17.0322H6.19345V11.6129H6.96765V17.0322ZM5.41926 10.0645V10.8387H3.87087V10.0645H5.41926ZM3.87087 11.6129H5.41926V17.0322H3.87087V11.6129ZM9.29023 17.0322V11.6129H10.0644V17.0322H9.29023ZM8.12894 3.09673C8.34223 3.09673 8.51603 3.27015 8.51603 3.48382H9.29023C9.28946 3.24444 9.21464 3.01116 9.07602 2.816C8.93741 2.62083 8.7418 2.47334 8.51603 2.39376V1.54834H7.74184V2.32253H6.96765V3.48382C6.96765 4.12408 7.48868 4.64511 8.12894 4.64511C8.34223 4.64511 8.51603 4.81853 8.51603 5.03221V5.41931H8.12894C7.91565 5.41931 7.74184 5.24589 7.74184 5.03221H6.96765C6.96765 5.53621 7.29242 5.96202 7.74184 6.12228V6.96769H8.51603V6.1935H9.29023V5.03221C9.29023 4.39195 8.7692 3.87092 8.12894 3.87092C7.91565 3.87092 7.74184 3.6975 7.74184 3.48382V3.09673H8.12894Z" fill="black"/>
<path d="M5.80604 4.64504C6.01983 4.64504 6.19314 4.47173 6.19314 4.25795C6.19314 4.04416 6.01983 3.87085 5.80604 3.87085C5.59225 3.87085 5.41895 4.04416 5.41895 4.25795C5.41895 4.47173 5.59225 4.64504 5.80604 4.64504Z" fill="black"/>
<path d="M10.4515 4.64504C10.6653 4.64504 10.8386 4.47173 10.8386 4.25795C10.8386 4.04416 10.6653 3.87085 10.4515 3.87085C10.2378 3.87085 10.0645 4.04416 10.0645 4.25795C10.0645 4.47173 10.2378 4.64504 10.4515 4.64504Z" fill="black"/>
</svg>
