<svg width="40" height="39" viewBox="0 0 40 39" fill="none" xmlns="http://www.w3.org/2000/svg">
<g clip-path="url(#clip0_196_1311)">
<path d="M20.0601 36.727C26.1942 36.727 32.3212 36.727 38.4554 36.727C39.7719 36.727 40.1846 37.0886 39.9284 38.1152C39.8502 38.4381 39.3734 38.7093 39.0247 38.9417C38.8752 39.0386 38.5906 38.9675 38.37 38.9675C26.1088 38.9675 13.8405 38.9675 1.57937 38.9675C0.874874 38.9675 0.120559 39.0902 0.0138169 38.1088C-0.100042 37.0434 0.362509 36.7012 1.52956 36.7076C7.7064 36.7464 13.8832 36.727 20.0601 36.727Z" fill="#FFC107"/>
<path d="M20.046 35.3324C14.7088 35.3324 9.37172 35.3324 4.0417 35.3324C3.18065 35.3324 2.46191 35.3324 2.46191 34.2347C2.46191 33.1757 3.1166 33.0724 4.01324 33.0789C14.6875 33.0853 25.3546 33.0918 36.0289 33.0789C36.9113 33.0789 37.4593 33.2338 37.4735 34.1959C37.4877 35.2613 36.833 35.3453 35.9293 35.3388C30.6348 35.3259 25.3475 35.3324 20.0531 35.3324H20.046Z" fill="#FFC107"/>
<path d="M19.4125 0.148566L1.02428 11.6871C0.284196 12.152 0.647121 13.2045 1.54376 13.2045H36.2707C37.146 13.2045 37.5231 12.2037 36.8329 11.7194L20.4941 0.174394C20.181 -0.0515991 19.7398 -0.0580561 19.4125 0.148566Z" fill="#FFC107"/>
<path d="M11.3149 16.8267H7.4579C6.91161 16.8267 6.46875 17.2285 6.46875 17.7242V30.1409C6.46875 30.6366 6.91161 31.0384 7.4579 31.0384H11.3149C11.8612 31.0384 12.304 30.6366 12.304 30.1409V17.7242C12.304 17.2285 11.8612 16.8267 11.3149 16.8267Z" fill="#FFC107"/>
<path d="M21.0639 16.8267H17.2069C16.6606 16.8267 16.2178 17.2285 16.2178 17.7242V30.1409C16.2178 30.6366 16.6606 31.0384 17.2069 31.0384H21.0639C21.6102 31.0384 22.053 30.6366 22.053 30.1409V17.7242C22.053 17.2285 21.6102 16.8267 21.0639 16.8267Z" fill="#FFC107"/>
<path d="M30.3647 16.8267H26.5077C25.9614 16.8267 25.5186 17.2285 25.5186 17.7242V30.1409C25.5186 30.6366 25.9614 31.0384 26.5077 31.0384H30.3647C30.911 31.0384 31.3538 30.6366 31.3538 30.1409V17.7242C31.3538 17.2285 30.911 16.8267 30.3647 16.8267Z" fill="#FFC107"/>
</g>
<defs>
<clipPath id="clip0_196_1311">
<rect width="40" height="39" fill="white"/>
</clipPath>
</defs>
</svg>
