<svg width="39" height="39" viewBox="0 0 39 39" fill="none" xmlns="http://www.w3.org/2000/svg">
<g clip-path="url(#clip0_196_1288)">
<path d="M8.82072 26.8549C7.95185 27.695 7.16397 28.432 6.40186 29.1984C5.19795 30.407 3.80628 30.7903 2.21212 30.127C0.625313 29.4674 0.0104725 28.1667 0.0104725 26.5232C-0.000572497 18.9104 -0.00425417 11.2939 -0.000572496 3.68112C0.00679086 1.44076 1.40951 0.018424 3.64797 0.0110544C11.3169 -0.00368481 18.9822 -0.00368481 26.6511 0.0110544C28.9264 0.0147392 30.2481 1.36338 30.2849 3.6627C30.307 4.95975 30.2849 6.26049 30.2849 7.55754C30.2849 7.87443 30.3144 8.19133 30.3328 8.60403C31.9601 8.60403 33.5137 8.60403 35.0711 8.60403C37.6961 8.61139 38.9921 9.89002 38.9957 12.5026C39.0031 20.0011 39.0068 27.496 38.9957 34.9946C38.9921 37.7214 37.0371 39.4717 34.563 38.8895C33.8377 38.7163 33.1198 38.2225 32.5602 37.6993C30.0603 35.3631 27.5973 32.9864 25.1674 30.5765C24.269 29.6848 23.2787 29.2758 22.0122 29.2942C19.0632 29.3384 16.1141 29.2795 13.1651 29.32C11.269 29.3458 9.64174 28.9589 8.82809 26.8586L8.82072 26.8549ZM15.2158 2.42092C11.4715 2.42092 7.72727 2.42092 3.98668 2.42092C2.62078 2.42092 2.43302 2.61621 2.42933 4.01644C2.42933 11.4524 2.42933 18.8846 2.42565 26.3206C2.42565 26.9617 2.42565 27.5882 3.11781 27.8977C3.83205 28.2183 4.34012 27.8535 4.83715 27.3707C7.31124 24.9683 9.81478 22.5916 12.2741 20.1743C13.5664 18.9067 15.0538 18.2914 16.8762 18.3172C20.0572 18.3688 23.2419 18.3356 26.4265 18.3282C27.5899 18.3282 27.9102 18.004 27.9102 16.8654C27.9139 12.5283 27.9139 8.19133 27.9102 3.85431C27.9102 2.6678 27.6488 2.41723 26.4486 2.41723C22.7043 2.41723 18.9601 2.41723 15.2195 2.41723L15.2158 2.42092ZM36.5916 23.6638H36.5843C36.5843 19.9164 36.5843 16.1689 36.5843 12.4252C36.5843 11.2755 36.286 10.9697 35.1226 10.9549C33.7972 10.9402 32.4681 10.9807 31.1427 10.9365C30.4874 10.9144 30.2628 11.1097 30.2812 11.784C30.3291 13.4348 30.307 15.0893 30.307 16.7401C30.307 19.4189 29.0405 20.6939 26.3602 20.6976C23.1461 20.7049 19.9357 20.6976 16.7216 20.6865C15.7349 20.6865 14.8844 20.9776 14.1739 21.6961C13.3234 22.5547 12.4582 23.4022 11.5599 24.2092C10.8788 24.8172 11.0297 25.5615 11.2101 26.2469C11.3832 26.9028 12.0311 26.888 12.6092 26.888C15.7055 26.8807 18.7981 26.9212 21.8944 26.8733C23.8677 26.8438 25.484 27.4887 26.883 28.8926C29.1951 31.2103 31.5735 33.4581 33.9261 35.7353C34.4526 36.2438 34.957 36.8702 35.8221 36.5275C36.7131 36.1774 36.5916 35.3815 36.5916 34.6446C36.5916 30.9855 36.5916 27.3265 36.5916 23.6712V23.6638Z" fill="#FFC107"/>
<path d="M17.0201 12.845C16.9981 13.8252 16.166 14.6358 15.183 14.6248C14.2368 14.6137 13.4047 13.7331 13.4232 12.7603C13.4416 11.7543 14.2405 10.9952 15.264 11.01C16.2691 11.0247 17.0422 11.8317 17.0201 12.845Z" fill="#FFC107"/>
<path d="M20.783 12.8045C20.7793 11.7727 21.5304 11.0137 22.5575 11.0137C23.57 11.0137 24.3689 11.8022 24.3653 12.7971C24.3653 13.7589 23.5148 14.61 22.5539 14.6174C21.5709 14.6248 20.783 13.8215 20.7793 12.8008L20.783 12.8045Z" fill="#FFC107"/>
<path d="M7.93781 11.0211C8.95763 11.0322 9.71238 11.8023 9.70133 12.823C9.69029 13.7921 8.84718 14.6322 7.89363 14.6175C6.93271 14.6027 6.13379 13.7663 6.13379 12.7751C6.13379 11.7581 6.90326 11.0101 7.93781 11.0211Z" fill="#FFC107"/>
</g>
<defs>
<clipPath id="clip0_196_1288">
<rect width="39" height="39" fill="white"/>
</clipPath>
</defs>
</svg>
