<svg width="23" height="27" viewBox="0 0 23 27" fill="none" xmlns="http://www.w3.org/2000/svg">
<path d="M20.125 9H18.6875V6.42857C18.6875 2.88 15.4675 0 11.5 0C7.5325 0 4.3125 2.88 4.3125 6.42857V9H2.875C1.29375 9 0 10.1571 0 11.5714V24.4286C0 25.8429 1.29375 27 2.875 27H20.125C21.7062 27 23 25.8429 23 24.4286V11.5714C23 10.1571 21.7062 9 20.125 9ZM11.5 20.5714C9.91875 20.5714 8.625 19.4143 8.625 18C8.625 16.5857 9.91875 15.4286 11.5 15.4286C13.0813 15.4286 14.375 16.5857 14.375 18C14.375 19.4143 13.0813 20.5714 11.5 20.5714ZM15.9563 9H7.04375V6.42857C7.04375 4.23 9.04187 2.44286 11.5 2.44286C13.9581 2.44286 15.9563 4.23 15.9563 6.42857V9Z" fill="black"/>
</svg>
