<svg width="16" height="14" viewBox="0 0 16 14" fill="none" xmlns="http://www.w3.org/2000/svg">
<path d="M14.3462 0.0769043H1.65386C1.34785 0.0769043 1.05436 0.19847 0.837973 0.414858C0.621585 0.631245 0.50002 0.92473 0.50002 1.23075V12.7692C0.498716 12.9891 0.56089 13.2048 0.679083 13.3902C0.797275 13.5757 0.966468 13.7232 1.16637 13.8149C1.31912 13.8858 1.48545 13.9227 1.65386 13.923C1.92473 13.9224 2.18661 13.8258 2.39305 13.6504L2.39954 13.6454L4.75482 11.6154H14.3462C14.6522 11.6154 14.9457 11.4938 15.162 11.2774C15.3784 11.061 15.5 10.7675 15.5 10.4615V1.23075C15.5 0.92473 15.3784 0.631245 15.162 0.414858C14.9457 0.19847 14.6522 0.0769043 14.3462 0.0769043ZM14.3462 10.4615H4.53848C4.39995 10.4616 4.26607 10.5115 4.16131 10.6021L1.65386 12.7692V1.23075H14.3462V10.4615ZM5.1154 4.69228C5.1154 4.53927 5.17618 4.39253 5.28438 4.28434C5.39257 4.17614 5.53931 4.11536 5.69232 4.11536H10.3077C10.4607 4.11536 10.6075 4.17614 10.7156 4.28434C10.8238 4.39253 10.8846 4.53927 10.8846 4.69228C10.8846 4.84529 10.8238 4.99203 10.7156 5.10023C10.6075 5.20842 10.4607 5.26921 10.3077 5.26921H5.69232C5.53931 5.26921 5.39257 5.20842 5.28438 5.10023C5.17618 4.99203 5.1154 4.84529 5.1154 4.69228ZM5.1154 6.99997C5.1154 6.84696 5.17618 6.70022 5.28438 6.59203C5.39257 6.48383 5.53931 6.42305 5.69232 6.42305H10.3077C10.4607 6.42305 10.6075 6.48383 10.7156 6.59203C10.8238 6.70022 10.8846 6.84696 10.8846 6.99997C10.8846 7.15298 10.8238 7.29972 10.7156 7.40792C10.6075 7.51611 10.4607 7.57689 10.3077 7.57689H5.69232C5.53931 7.57689 5.39257 7.51611 5.28438 7.40792C5.17618 7.29972 5.1154 7.15298 5.1154 6.99997Z" fill="#FFC107"/>
</svg>
