<svg width="24" height="24" viewBox="0 0 24 24" fill="none" xmlns="http://www.w3.org/2000/svg">
<path d="M23.1723 6.20703H15.7241C15.2677 6.20843 14.8979 6.5782 14.8965 7.03461V11.1725C14.8979 11.6289 15.2677 11.9987 15.7241 12.0001H17.3792V13.6553L19.0344 12.0001H23.1723C23.6287 11.9987 23.9985 11.6289 23.9999 11.1725V7.03461C23.9985 6.5782 23.6287 6.20843 23.1723 6.20703Z" fill="#FFD422"/>
<path d="M11.5864 2.48286V5.79319C11.585 6.2496 11.2152 6.61938 10.7588 6.62077H8.68984V8.27594L7.27876 6.86486C7.20171 6.78749 7.11014 6.7261 7.00931 6.68422C6.90847 6.64233 6.80036 6.62077 6.69117 6.62077H4.13813C3.68172 6.61938 3.31194 6.2496 3.31055 5.79319V2.48286C3.31194 2.02644 3.68172 1.65667 4.13813 1.65527H10.7588C11.2152 1.65667 11.585 2.02644 11.5864 2.48286Z" fill="#78B9EB"/>
<path d="M21.5176 0H14.8969C14.4405 0.00139655 14.0707 0.371171 14.0693 0.827583V4.13792C14.0707 4.59433 14.4405 4.9641 14.8969 4.9655H16.9659V6.62067L18.377 5.20958C18.454 5.13222 18.5456 5.07083 18.6464 5.02894C18.7472 4.98706 18.8554 4.9655 18.9645 4.9655H21.5176C21.974 4.9641 22.3438 4.59433 22.3452 4.13792V0.827583C22.3438 0.371171 21.974 0.00139655 21.5176 0Z" fill="#FF9811"/>
<path d="M9.10342 10.3447V14.4826C9.10202 14.939 8.73224 15.3088 8.27583 15.3102H6.62067V16.9653L4.9655 15.3102H0.827583C0.371171 15.3088 0.00139655 14.939 0 14.4826V10.3447C0.00139655 9.88826 0.371171 9.51849 0.827583 9.51709H8.27583C8.73224 9.51849 9.10202 9.88826 9.10342 10.3447Z" fill="#00CCB3"/>
<path d="M16.5514 24H7.03418V22.9986C7.03578 21.8795 7.78418 20.8991 8.86314 20.6027L11.0232 20.0151L12.8273 21.5172L14.6313 20.0151L16.7914 20.6027C17.8703 20.8991 18.6187 21.8795 18.6203 22.9986V24H16.5514Z" fill="#3D9AE2"/>
<path d="M15.3102 15.724V16.5516C15.3104 16.9871 15.1958 17.415 14.9778 17.792C14.7599 18.1691 14.4464 18.482 14.0689 18.6992C13.692 18.9187 13.2636 19.0344 12.8275 19.0344C12.3913 19.0344 11.963 18.9187 11.5861 18.6992C11.398 18.5921 11.2253 18.4599 11.0729 18.3062C10.8413 18.0766 10.6577 17.8032 10.5327 17.502C10.4077 17.2008 10.3438 16.8777 10.3447 16.5516V15.724H10.7585C11.2724 15.7237 11.7792 15.6039 12.2388 15.3741C12.6984 15.1443 13.0983 14.8107 13.4068 14.3998L13.6551 14.0688L13.8331 14.7847C13.9012 15.0526 14.0565 15.2902 14.2745 15.4603C14.4924 15.6303 14.7607 15.7231 15.0371 15.724H15.3102Z" fill="#FFDAAA"/>
<path d="M14.6316 20.0151L12.8275 21.5171L11.0234 20.0151L11.5861 19.862V18.6992C11.963 18.9188 12.3914 19.0344 12.8275 19.0344C13.2637 19.0344 13.692 18.9188 14.0689 18.6992V19.862L14.6316 20.0151Z" fill="#FFDAAA"/>
<path d="M15.7237 14.4825V15.7239H15.0368C14.7604 15.7229 14.4921 15.6301 14.2742 15.4601C14.0562 15.2901 13.901 15.0524 13.8328 14.7845L13.6548 14.0687L13.4065 14.3996C13.098 14.8106 12.6981 15.1441 12.2385 15.374C11.7789 15.6038 11.2721 15.7236 10.7582 15.7239H9.93066V14.4825C9.93066 12.8827 11.2274 11.5859 12.8272 11.5859C14.427 11.5859 15.7237 12.8827 15.7237 14.4825Z" fill="#57565C"/>
<path d="M14.0687 18.6992V19.113C13.6918 19.3325 13.2635 19.4482 12.8273 19.4482C12.3912 19.4482 11.9628 19.3325 11.5859 19.113V18.6992C11.9628 18.9188 12.3912 19.0344 12.8273 19.0344C13.2635 19.0344 13.6918 18.9188 14.0687 18.6992Z" fill="#F2CFA2"/>
<path d="M8.68945 22.3447H9.51704V23.9999H8.68945V22.3447ZM16.1377 22.3447H16.9653V23.9999H16.1377V22.3447Z" fill="#1E81CE"/>
<path d="M4.13759 12H4.96517V12.8276H4.13759V12ZM5.79275 12H6.62034V12.8276H5.79275V12ZM2.48242 12H3.31001V12.8276H2.48242V12Z" fill="#009986"/>
<path d="M7.03407 3.72412H7.86166V4.5517H7.03407V3.72412ZM8.68924 3.72412H9.51682V4.5517H8.68924V3.72412ZM5.37891 3.72412H6.20649V4.5517H5.37891V3.72412Z" fill="#1A6FB0"/>
<path d="M17.7929 2.06885H18.6204V2.89643H17.7929V2.06885ZM19.448 2.06885H20.2756V2.89643H19.448V2.06885ZM16.1377 2.06885H16.9653V2.89643H16.1377V2.06885Z" fill="#CC7400"/>
<path d="M19.0341 8.68945H19.8617V9.51704H19.0341V8.68945ZM20.6892 8.68945H21.5168V9.51704H20.6892V8.68945ZM17.3789 8.68945H18.2065V9.51704H17.3789V8.68945Z" fill="#DDB200"/>
</svg>
