<svg width="28" height="26" viewBox="0 0 28 26" fill="none" xmlns="http://www.w3.org/2000/svg">
<path d="M26.8658 23.9902C24.9621 20.699 22.0283 18.339 18.6046 17.2202C20.2981 16.212 21.6139 14.6758 22.3498 12.8475C23.0858 11.0191 23.2012 8.99972 22.6784 7.09941C22.1556 5.19911 21.0234 3.52296 19.4558 2.32837C17.8882 1.13379 15.9717 0.486816 14.0008 0.486816C12.0299 0.486816 10.1135 1.13379 8.54586 2.32837C6.97823 3.52296 5.84607 5.19911 5.32325 7.09941C4.80043 8.99972 4.91586 11.0191 5.65181 12.8475C6.38776 14.6758 7.70354 16.212 9.39708 17.2202C5.97333 18.3377 3.03958 20.6977 1.13583 23.9902C1.06601 24.1041 1.01971 24.2307 0.999638 24.3627C0.97957 24.4948 0.986147 24.6295 1.01898 24.7589C1.05182 24.8883 1.11024 25.0099 1.19082 25.1164C1.27139 25.2229 1.37247 25.3122 1.48811 25.3789C1.60374 25.4457 1.73158 25.4887 1.86409 25.5053C1.99659 25.5219 2.13107 25.5117 2.2596 25.4755C2.38813 25.4393 2.5081 25.3777 2.61244 25.2943C2.71677 25.211 2.80335 25.1076 2.86708 24.9902C5.22208 20.9202 9.38458 18.4902 14.0008 18.4902C18.6171 18.4902 22.7796 20.9202 25.1346 24.9902C25.1983 25.1076 25.2849 25.211 25.3892 25.2943C25.4936 25.3777 25.6135 25.4393 25.742 25.4755C25.8706 25.5117 26.0051 25.5219 26.1376 25.5053C26.2701 25.4887 26.3979 25.4457 26.5135 25.3789C26.6292 25.3122 26.7303 25.2229 26.8108 25.1164C26.8914 25.0099 26.9498 24.8883 26.9827 24.7589C27.0155 24.6295 27.0221 24.4948 27.002 24.3627C26.9819 24.2307 26.9356 24.1041 26.8658 23.9902ZM7.00083 9.49022C7.00083 8.10575 7.41137 6.75237 8.18054 5.60123C8.94971 4.45008 10.043 3.55287 11.322 3.02306C12.6011 2.49325 14.0086 2.35462 15.3665 2.62472C16.7243 2.89482 17.9716 3.5615 18.9506 4.54047C19.9295 5.51944 20.5962 6.76672 20.8663 8.12459C21.1364 9.48245 20.9978 10.8899 20.468 12.169C19.9382 13.4481 19.041 14.5413 17.8898 15.3105C16.7387 16.0797 15.3853 16.4902 14.0008 16.4902C12.1449 16.4882 10.3656 15.7501 9.05327 14.4378C7.74095 13.1254 7.00281 11.3461 7.00083 9.49022Z" fill="#FFC107"/>
</svg>
