<svg width="14" height="16" viewBox="0 0 14 16" fill="none" xmlns="http://www.w3.org/2000/svg">
<path d="M6.89362 0.531921C3.63028 0.531921 0.984827 3.1039 0.984827 6.2766V9.7098L0.28847 10.3868C0.00681922 10.6606 -0.077436 11.0725 0.0749921 11.4302C0.22742 11.788 0.586513 12.0213 0.984827 12.0213H12.8024C13.2007 12.0213 13.5598 11.788 13.7122 11.4302C13.8647 11.0725 13.7804 10.6606 13.4988 10.3868L12.8024 9.7098V6.2766C12.8024 3.1039 10.157 0.531921 6.89362 0.531921Z" fill="white"/>
<path d="M6.89359 15.8511C5.26192 15.8511 3.93919 14.5651 3.93919 12.9787H9.84798C9.84798 14.5651 8.52526 15.8511 6.89359 15.8511Z" fill="white"/>
</svg>
