<svg width="28" height="20" viewBox="0 0 28 20" fill="none" xmlns="http://www.w3.org/2000/svg">
<path d="M26 0H2C1.46957 0 0.960859 0.210714 0.585786 0.585786C0.210714 0.960859 0 1.46957 0 2V18C0 18.5304 0.210714 19.0391 0.585786 19.4142C0.960859 19.7893 1.46957 20 2 20H26C26.5304 20 27.0391 19.7893 27.4142 19.4142C27.7893 19.0391 28 18.5304 28 18V2C28 1.46957 27.7893 0.960859 27.4142 0.585786C27.0391 0.210714 26.5304 0 26 0ZM26 2V5H2V2H26ZM26 18H2V7H26V18ZM24 15C24 15.2652 23.8946 15.5196 23.7071 15.7071C23.5196 15.8946 23.2652 16 23 16H19C18.7348 16 18.4804 15.8946 18.2929 15.7071C18.1054 15.5196 18 15.2652 18 15C18 14.7348 18.1054 14.4804 18.2929 14.2929C18.4804 14.1054 18.7348 14 19 14H23C23.2652 14 23.5196 14.1054 23.7071 14.2929C23.8946 14.4804 24 14.7348 24 15ZM16 15C16 15.2652 15.8946 15.5196 15.7071 15.7071C15.5196 15.8946 15.2652 16 15 16H13C12.7348 16 12.4804 15.8946 12.2929 15.7071C12.1054 15.5196 12 15.2652 12 15C12 14.7348 12.1054 14.4804 12.2929 14.2929C12.4804 14.1054 12.7348 14 13 14H15C15.2652 14 15.5196 14.1054 15.7071 14.2929C15.8946 14.4804 16 14.7348 16 15Z" fill="#0797FF"/>
</svg>
