<svg width="45" height="45" viewBox="0 0 45 45" fill="none" xmlns="http://www.w3.org/2000/svg">
<path d="M36.2239 44.4999C38.8652 44.4999 41.0064 42.2614 41.0064 39.5C41.0064 36.7386 38.8652 34.5 36.2239 34.5C33.5826 34.5 31.4414 36.7386 31.4414 39.5C31.4414 42.2614 33.5826 44.4999 36.2239 44.4999Z" fill="#455A64"/>
<path d="M17.095 44.4999C19.7363 44.4999 21.8775 42.2614 21.8775 39.5C21.8775 36.7386 19.7363 34.5 17.095 34.5C14.4537 34.5 12.3125 36.7386 12.3125 39.5C12.3125 42.2614 14.4537 44.4999 17.095 44.4999Z" fill="#455A64"/>
<path d="M44.5947 6.83797C44.5049 6.73166 44.3945 6.64655 44.2708 6.58828C44.1471 6.53001 44.013 6.49992 43.8773 6.5H9.44304C8.91478 6.49991 8.48642 6.94747 8.48633 7.49975C8.48633 7.56697 8.49278 7.63409 8.5057 7.7L12.3318 27.6999C12.3759 27.9258 12.4933 28.1288 12.6641 28.2746C12.8349 28.4203 13.0486 28.4999 13.2691 28.4999C13.3112 28.5028 13.3533 28.5028 13.3954 28.4999L42.0906 24.4999C42.3002 24.4706 42.4946 24.3696 42.6434 24.2125C42.7923 24.0554 42.8871 23.8513 42.9131 23.6319L44.8261 7.63184C44.8442 7.48991 44.8329 7.34557 44.7929 7.2086C44.753 7.07164 44.6854 6.94524 44.5947 6.83797Z" fill="#FFC107"/>
<path d="M17.0953 24.5002C16.8689 24.5001 16.6499 24.416 16.4772 24.263C16.3045 24.1099 16.1894 23.8977 16.1522 23.6642L14.2392 11.6643C14.1683 11.117 14.5352 10.6132 15.0587 10.5391C15.3002 10.5049 15.5451 10.5683 15.7433 10.7165C15.9416 10.8647 16.0783 11.0864 16.1255 11.3363L18.0385 23.3363C18.1248 23.8808 17.773 24.3955 17.2522 24.4863C17.2004 24.4956 17.148 24.5003 17.0953 24.5002ZM21.8779 23.5002C21.6385 23.5012 21.4073 23.4083 21.2302 23.2398C21.0531 23.0713 20.9429 22.8395 20.9214 22.5902L19.9648 11.5902C19.9153 11.0404 20.3016 10.5527 20.8276 10.5009L20.8353 10.5002C21.3614 10.4504 21.8264 10.856 21.8741 11.4061L22.8306 22.4061C22.8781 22.9562 22.4902 23.4423 21.9641 23.4921H21.964L21.8779 23.5002ZM26.6604 22.5002C26.1322 22.5002 25.7039 22.0524 25.7039 21.5001V11.5002C25.7039 10.9479 26.1322 10.5002 26.6604 10.5002C27.1887 10.5002 27.617 10.9479 27.617 11.5002V21.5002C27.617 22.0525 27.1887 22.5002 26.6604 22.5002ZM31.4429 21.5002H31.3358C30.8105 21.4421 30.4297 20.9497 30.4853 20.4004L30.4864 20.3902L31.4429 11.3902C31.505 10.8402 31.9776 10.444 32.5046 10.5003C33.0297 10.561 33.4083 11.0552 33.3503 11.6042L32.3937 20.6043C32.3691 20.85 32.2584 21.0776 32.0828 21.243C31.9072 21.4085 31.6793 21.5001 31.4429 21.5002ZM36.2255 20.5002C36.0802 20.5001 35.9368 20.4655 35.8063 20.3989C35.6757 20.3323 35.5614 20.2354 35.4719 20.1157C35.3825 19.996 35.3203 19.8566 35.2901 19.708C35.2599 19.5594 35.2625 19.4056 35.2977 19.2582L37.2107 11.2582C37.3266 10.7195 37.8385 10.3809 38.3538 10.5021C38.8692 10.6234 39.193 11.1585 39.077 11.6973C39.0738 11.7124 39.0702 11.7274 39.0663 11.7423L37.1533 19.7422C37.1017 19.9587 36.9823 20.1508 36.8142 20.2882C36.6461 20.4255 36.4389 20.5001 36.2255 20.5002Z" fill="#FAFAFA"/>
<path d="M40.0507 32.5H17.9726C14.7841 32.4923 12.0404 30.1413 11.4072 26.874L6.7452 2.50006H1.79052C1.26226 2.50006 0.833984 2.05231 0.833984 1.50003C0.833984 0.947749 1.26226 0.5 1.79052 0.5H7.52956C7.75006 0.499947 7.9638 0.579545 8.13462 0.725322C8.30543 0.871099 8.42281 1.0741 8.46691 1.29997L13.2838 26.48C13.7354 28.814 15.695 30.4941 17.9726 30.5H40.0507C40.579 30.5 41.0073 30.9477 41.0073 31.5C41.0073 32.0523 40.579 32.5 40.0507 32.5Z" fill="#455A64"/>
</svg>
