<svg width="34" height="45" viewBox="0 0 34 45" fill="none" xmlns="http://www.w3.org/2000/svg">
<path d="M26.6862 0.507733L23.4837 1.53881C23.4515 1.54912 23.4171 1.54912 23.3849 1.53881L20.1823 0.507733C20.1502 0.497422 20.1157 0.497422 20.0835 0.507733L16.8811 1.53881C16.8489 1.54912 16.8145 1.54912 16.7823 1.53881L13.5799 0.507733C13.5478 0.497422 13.5132 0.497422 13.4811 0.507733L10.2791 1.53881C10.247 1.54912 10.2125 1.54912 10.1804 1.53881L6.97808 0.507733C6.94597 0.497422 6.91144 0.497422 6.87934 0.507733L3.67679 1.53881C3.64465 1.54912 3.61019 1.54912 3.57805 1.53881L0.536633 0.559639C0.512471 0.55185 0.48681 0.549883 0.461743 0.553898C0.436676 0.557914 0.412914 0.567799 0.392394 0.582747C0.371875 0.597694 0.35518 0.617281 0.343672 0.639909C0.332163 0.662537 0.326167 0.687565 0.326172 0.712951V43.8321C0.326172 44.0092 0.39654 44.1791 0.521797 44.3044C0.647054 44.4296 0.816938 44.5 0.994078 44.5H32.671C32.8481 44.5 33.018 44.4296 33.1433 44.3044C33.2685 44.1791 33.3389 44.0092 33.3389 43.8321V0.712951C33.3389 0.687565 33.3329 0.662537 33.3214 0.639909C33.3099 0.617281 33.2932 0.597694 33.2727 0.582747C33.2521 0.567799 33.2284 0.557914 33.2033 0.553898C33.1783 0.549883 33.1526 0.55185 33.1284 0.559639L30.0865 1.5389C30.0544 1.54921 30.0199 1.54921 29.9878 1.5389L26.785 0.507733C26.7528 0.497422 26.7183 0.497422 26.6862 0.507733Z" fill="#F3E8D6"/>
<path d="M33.1277 0.55953L32.2787 0.832812L30.0858 1.53879L30.0364 1.55469L29.9871 1.53879H29.987L28.7958 1.15534L28.5605 1.07962V44.4999H32.6702C32.8473 44.4999 33.0172 44.4295 33.1424 44.3043C33.2677 44.179 33.3381 44.0091 33.3381 43.832V0.712843C33.3381 0.68746 33.3321 0.662432 33.3206 0.639803C33.3091 0.617174 33.2924 0.597585 33.2719 0.582636C33.2514 0.567686 33.2276 0.5578 33.2026 0.553785C33.1775 0.549769 33.1519 0.551738 33.1277 0.55953Z" fill="#CEBEAB"/>
<path d="M26.8722 39.8202C25.3589 39.7827 24.2207 38.9697 24.2207 38.2694C24.2207 37.9192 24.5334 37.3939 24.9212 37.3939C25.3964 37.3939 25.7716 38.2068 26.8722 38.3319V35.843C25.7341 35.4177 24.4459 34.93 24.4459 33.3291C24.4459 31.7407 25.6216 31.0528 26.8722 30.8902V30.54C26.8722 30.3774 27.0598 30.2273 27.2975 30.2273C27.5101 30.2273 27.7227 30.3773 27.7227 30.54V30.8652C28.5356 30.8902 29.8614 31.1278 29.8614 31.8532C29.8614 32.1409 29.6613 32.7162 29.1985 32.7162C28.8484 32.7162 28.5606 32.316 27.7227 32.2534V34.4546C28.8359 34.8674 30.0865 35.4302 30.0865 37.1312C30.0865 38.6695 29.1234 39.5575 27.7227 39.7827V40.1704C27.7227 40.333 27.5101 40.4832 27.2975 40.4832C27.0598 40.4832 26.8722 40.333 26.8722 40.1704V39.8202ZM26.9722 34.1796V32.291C26.3468 32.391 25.9717 32.6912 25.9717 33.1664C25.9717 33.7168 26.3969 33.9545 26.9722 34.1796ZM27.6225 36.1432V38.3194C28.1728 38.2069 28.5605 37.8817 28.5605 37.2938C28.5605 36.681 28.1603 36.3808 27.6225 36.1432Z" fill="#62B240"/>
<path d="M3.58594 5.16489C3.58594 4.98932 3.7194 4.8348 3.92307 4.8348H5.37705C6.33929 4.8348 7.10491 5.19299 7.10491 6.33794C7.10491 7.12461 6.74672 7.57415 6.25498 7.76372L7.11195 9.31601C7.14005 9.35821 7.1471 9.40728 7.1471 9.44251C7.1471 9.7164 6.78187 10.0114 6.45874 10.0114C6.31823 10.0114 6.18477 9.95522 6.1076 9.80775L5.14519 7.93938H4.68164V9.63218C4.68164 9.8569 4.40767 9.96931 4.13379 9.96931C3.85982 9.96931 3.58594 9.8569 3.58594 9.63218V5.16489ZM4.68164 5.79V7.09642H5.37705C5.77038 7.09642 6.0092 6.93486 6.0092 6.44321C6.0092 5.95156 5.77038 5.79 5.37705 5.79H4.68164ZM9.13458 6.97705H10.1882C10.3989 6.97705 10.5183 7.18072 10.5183 7.40554C10.5183 7.5952 10.4199 7.81993 10.1882 7.81993H9.13458V9.01394H11.017C11.2277 9.01394 11.347 9.23867 11.347 9.49863C11.347 9.72336 11.2487 9.96922 11.017 9.96922H8.51652C8.2777 9.96922 8.03887 9.85682 8.03887 9.63209V5.17194C8.03887 4.94721 8.2777 4.8348 8.51652 4.8348H11.017C11.2487 4.8348 11.347 5.08067 11.347 5.3054C11.347 5.56527 11.2276 5.79008 11.017 5.79008H9.13458V6.97705ZM13.7984 5.79C13.398 5.79 13.1662 6.01472 13.1662 6.49237V8.35369C13.1662 8.83124 13.398 9.05605 13.8055 9.05605C14.3674 9.05605 14.4025 8.62757 14.4236 8.35369C14.4447 8.09381 14.6835 8.02351 14.9644 8.02351C15.3437 8.02351 15.5193 8.12183 15.5193 8.54335C15.5193 9.47749 14.7607 10.0113 13.7563 10.0113C12.8362 10.0113 12.0705 9.56179 12.0705 8.35377V6.49245C12.0705 5.28434 12.8362 4.8348 13.7563 4.8348C14.7607 4.8348 15.5193 5.34054 15.5193 6.23258C15.5193 6.65401 15.3437 6.75233 14.9715 6.75233C14.6764 6.75233 14.4377 6.67507 14.4236 6.42224C14.4165 6.23954 14.3954 5.79 13.7984 5.79ZM17.5208 6.97705H18.5743C18.785 6.97705 18.9045 7.18072 18.9045 7.40554C18.9045 7.5952 18.8062 7.81993 18.5743 7.81993H17.5208V9.01394H19.4032C19.6139 9.01394 19.7333 9.23867 19.7333 9.49863C19.7333 9.72336 19.635 9.96922 19.4032 9.96922H16.9027C16.6639 9.96922 16.4251 9.85682 16.4251 9.63209V5.17194C16.4251 4.94721 16.6639 4.8348 16.9027 4.8348H19.4032C19.6349 4.8348 19.7333 5.08067 19.7333 5.3054C19.7333 5.56527 19.6139 5.79008 19.4032 5.79008H17.5208V6.97705ZM20.5618 5.16489C20.5618 4.93312 20.8357 4.8348 21.1096 4.8348C21.3836 4.8348 21.6575 4.93312 21.6575 5.16489V9.63209C21.6575 9.85682 21.3835 9.96922 21.1096 9.96922C20.8357 9.96922 20.5618 9.85682 20.5618 9.63209V5.16489ZM22.7671 5.16489C22.7671 4.98932 22.9287 4.8348 23.1745 4.8348H24.6285C25.5557 4.8348 26.2862 5.27025 26.2862 6.45026V6.4854C26.2862 7.66541 25.5276 8.11495 24.5583 8.11495H23.863V9.63209C23.863 9.85682 23.589 9.96922 23.3151 9.96922C23.0412 9.96922 22.7673 9.85682 22.7673 9.63209V5.16489H22.7671ZM23.8629 5.79V7.27208H24.5582C24.9515 7.27208 25.1904 7.04735 25.1904 6.56971V6.49245C25.1904 6.01481 24.9515 5.79008 24.5582 5.79008H23.8629V5.79ZM30.1561 4.8348C30.3879 4.8348 30.4862 5.08772 30.4862 5.31949C30.4862 5.58641 30.3668 5.81819 30.1561 5.81819H29.1868V9.63218C29.1868 9.8569 28.9128 9.96931 28.639 9.96931C28.365 9.96931 28.0911 9.8569 28.0911 9.63218V5.8181H27.1218C26.9111 5.8181 26.7917 5.58633 26.7917 5.3194C26.7917 5.08763 26.89 4.83472 27.1218 4.83472L30.1561 4.8348Z" fill="#FC502A"/>
<path d="M19.844 14.1267H3.635C3.45882 14.1267 3.28985 14.1967 3.16527 14.3213C3.04069 14.4459 2.9707 14.6148 2.9707 14.791C2.9707 14.9672 3.04069 15.1362 3.16527 15.2607C3.28985 15.3853 3.45882 15.4553 3.635 15.4553H19.844C20.211 15.4553 20.5083 15.1579 20.5083 14.791C20.5083 14.4241 20.211 14.1267 19.844 14.1267ZM19.844 17.9514H3.635C3.45882 17.9514 3.28985 18.0213 3.16527 18.1459C3.04069 18.2705 2.9707 18.4395 2.9707 18.6157C2.9707 18.7918 3.04069 18.9608 3.16527 19.0854C3.28985 19.21 3.45882 19.28 3.635 19.28H19.844C20.211 19.28 20.5083 18.9825 20.5083 18.6157C20.5083 18.2488 20.211 17.9514 19.844 17.9514ZM19.844 22.6288H3.635C3.45882 22.6288 3.28985 22.6988 3.16527 22.8233C3.04069 22.9479 2.9707 23.1169 2.9707 23.2931C2.9707 23.4692 3.04069 23.6382 3.16527 23.7628C3.28985 23.8874 3.45882 23.9574 3.635 23.9574H19.844C20.211 23.9574 20.5083 23.6599 20.5083 23.2931C20.5083 22.9262 20.211 22.6288 19.844 22.6288ZM19.844 26.4533H3.635C3.45882 26.4533 3.28985 26.5233 3.16527 26.6479C3.04069 26.7725 2.9707 26.9414 2.9707 27.1176C2.9707 27.2938 3.04069 27.4628 3.16527 27.5874C3.28985 27.7119 3.45882 27.7819 3.635 27.7819H19.844C20.211 27.7819 20.5083 27.4845 20.5083 27.1176C20.5083 26.7508 20.211 26.4533 19.844 26.4533ZM29.4458 14.1267H24.6449C24.278 14.1267 23.9806 14.4241 23.9806 14.791C23.9806 15.1579 24.278 15.4553 24.6449 15.4553H29.4458C29.622 15.4553 29.791 15.3853 29.9155 15.2607C30.0401 15.1362 30.1101 14.9672 30.1101 14.791C30.1101 14.7038 30.0929 14.6174 30.0596 14.5368C30.0262 14.4562 29.9773 14.3829 29.9156 14.3213C29.8539 14.2596 29.7806 14.2106 29.7 14.1773C29.6194 14.1439 29.5331 14.1267 29.4458 14.1267ZM29.4458 17.9514H24.6449C24.278 17.9514 23.9806 18.2488 23.9806 18.6157C23.9806 18.9825 24.278 19.28 24.6449 19.28H29.4458C29.8128 19.28 30.1101 18.9825 30.1101 18.6157C30.1101 18.2488 29.8128 17.9514 29.4458 17.9514ZM29.4458 22.6288H24.6449C24.278 22.6288 23.9806 22.9262 23.9806 23.2931C23.9806 23.6599 24.278 23.9574 24.6449 23.9574H29.4458C29.622 23.9574 29.791 23.8874 29.9155 23.7628C30.0401 23.6382 30.1101 23.4692 30.1101 23.2931C30.1101 23.2058 30.0929 23.1194 30.0596 23.0388C30.0262 22.9582 29.9773 22.885 29.9156 22.8233C29.8539 22.7616 29.7806 22.7127 29.7 22.6793C29.6194 22.6459 29.5331 22.6288 29.4458 22.6288ZM29.4458 26.4533H24.6449C24.278 26.4533 23.9806 26.7508 23.9806 27.1176C23.9806 27.4845 24.278 27.7819 24.6449 27.7819H29.4458C29.622 27.7819 29.791 27.7119 29.9155 27.5874C30.0401 27.4628 30.1101 27.2938 30.1101 27.1176C30.1101 27.0304 30.0929 26.944 30.0596 26.8634C30.0262 26.7828 29.9773 26.7096 29.9156 26.6479C29.8539 26.5862 29.7806 26.5373 29.7 26.5039C29.6194 26.4705 29.5331 26.4533 29.4458 26.4533ZM19.844 33.0186H3.635C3.45882 33.0186 3.28985 33.0886 3.16527 33.2132C3.04069 33.3378 2.9707 33.5067 2.9707 33.6829C2.9707 33.8591 3.04069 34.0281 3.16527 34.1526C3.28985 34.2772 3.45882 34.3472 3.635 34.3472H19.844C20.211 34.3472 20.5083 34.0498 20.5083 33.6829C20.5083 33.316 20.211 33.0186 19.844 33.0186ZM19.844 36.8433H3.635C3.45882 36.8433 3.28985 36.9132 3.16527 37.0378C3.04069 37.1624 2.9707 37.3314 2.9707 37.5076C2.9707 37.6837 3.04069 37.8527 3.16527 37.9773C3.28985 38.1019 3.45882 38.1719 3.635 38.1719H19.844C20.211 38.1719 20.5083 37.8744 20.5083 37.5076C20.5083 37.1407 20.211 36.8433 19.844 36.8433Z" fill="#5C5469"/>
</svg>
