<svg width="45" height="45" viewBox="0 0 45 45" fill="none" xmlns="http://www.w3.org/2000/svg">
<path d="M7.81055 0.5C8.6223 0.5 9.35633 0.874682 9.89222 1.48787C10.1669 1.80092 10.3845 2.17319 10.5326 2.58312C10.6807 2.99305 10.7562 3.43251 10.7549 3.87608V41.1239C10.7549 42.3889 11.3644 43.4932 12.267 44.0734C12.7065 44.3544 13.2019 44.5013 13.7054 44.5H40.7961V3.89576C40.7961 3.599 40.7624 3.31484 40.695 3.04327C40.5304 2.31639 40.1598 1.67249 39.6412 1.21241C39.1226 0.752326 38.4853 0.502053 37.8291 0.500787L7.81055 0.5Z" fill="#E9E9FF"/>
<path d="M16.1025 9.26169C16.0766 9.23258 16.0563 9.19773 16.0427 9.15928C16.0291 9.12084 16.0225 9.07961 16.0234 9.03814V4.73245C16.0227 4.66949 16.0386 4.60775 16.0688 4.55513C16.099 4.50252 16.1422 4.46141 16.193 4.43706C16.2437 4.41272 16.2997 4.40626 16.3536 4.41849C16.4076 4.43073 16.4572 4.46111 16.496 4.50575C16.551 4.56872 16.5785 4.64428 16.5785 4.73245V9.03814C16.5785 9.12709 16.551 9.20108 16.496 9.26169C16.4409 9.3223 16.3749 9.35222 16.2978 9.35222C16.2208 9.35222 16.1554 9.3223 16.1025 9.26169ZM17.6696 9.26169C17.6438 9.23258 17.6234 9.19773 17.6098 9.15928C17.5962 9.12084 17.5896 9.07961 17.5905 9.03814V6.04462C17.5897 5.9815 17.6055 5.91956 17.6357 5.86677C17.666 5.81398 17.7093 5.77275 17.7602 5.74837C17.8111 5.724 17.8672 5.71759 17.9213 5.72999C17.9754 5.74238 18.025 5.77301 18.0638 5.81792C18.1188 5.88089 18.1463 5.95646 18.1463 6.04462V6.33036C18.3004 6.13514 18.4669 5.97929 18.6458 5.86279C18.8246 5.74629 19.0365 5.68883 19.28 5.68883C19.5036 5.68883 19.6983 5.74865 19.8627 5.86987C20.0274 5.99079 20.1586 6.16278 20.2411 6.36578C20.3284 6.57437 20.3718 6.80501 20.3718 7.05611V9.03814C20.3718 9.12709 20.3443 9.20108 20.2892 9.26169C20.2342 9.3223 20.1688 9.35222 20.0911 9.35222C20.0134 9.35222 19.9487 9.3223 19.8964 9.26169C19.8705 9.23264 19.8501 9.1978 19.8365 9.15934C19.8229 9.12088 19.8164 9.07962 19.8173 9.03814V7.12537C19.8173 6.55863 19.593 6.27525 19.1459 6.27525C18.9429 6.27525 18.7606 6.33508 18.5997 6.4563C18.4267 6.59046 18.2734 6.75519 18.1456 6.94433V9.03814C18.1456 9.12709 18.1181 9.20108 18.0631 9.26169C18.037 9.29095 18.0062 9.31401 17.9723 9.32954C17.9384 9.34508 17.9021 9.35279 17.8656 9.35222C17.8293 9.35329 17.7931 9.34581 17.7594 9.33024C17.7257 9.31467 17.6951 9.29134 17.6696 9.26169ZM22.1528 9.27901C22.0939 9.23292 22.0474 9.16883 22.0187 9.09403L20.9579 6.19103C20.9393 6.14502 20.9288 6.09527 20.9269 6.04462C20.9264 6.0028 20.9331 5.96128 20.9467 5.92244C20.9602 5.88361 20.9804 5.84823 21.006 5.81837C21.0316 5.7885 21.0621 5.76474 21.0957 5.74845C21.1294 5.73216 21.1656 5.72367 21.2021 5.72346C21.2544 5.72346 21.3046 5.74078 21.3507 5.77542C21.3945 5.80644 21.4296 5.85125 21.4518 5.90451L22.3847 8.6123L23.3182 5.90451C23.34 5.85126 23.3749 5.80641 23.4186 5.77542C23.4712 5.73523 23.5345 5.71747 23.5973 5.72524C23.6602 5.73301 23.7187 5.76581 23.7626 5.81792C23.8155 5.88089 23.8424 5.95646 23.8424 6.04462C23.8408 6.09522 23.8305 6.14497 23.8121 6.19103L22.7506 9.09403C22.7218 9.16879 22.6754 9.23285 22.6165 9.27901C22.5577 9.32698 22.4872 9.35259 22.4149 9.35222H22.3544C22.2821 9.35269 22.2116 9.32708 22.1528 9.27901ZM24.9892 9.157C24.755 9.00546 24.5653 8.77817 24.4436 8.50367C24.3117 8.20447 24.2455 7.87292 24.251 7.53784C24.251 7.17496 24.315 6.85302 24.4436 6.57122C24.5716 6.29021 24.7532 6.07217 24.9892 5.91868C25.2244 5.76518 25.4996 5.68883 25.8126 5.68883C26.1222 5.68883 26.3939 5.76518 26.6299 5.91868C26.8658 6.07217 27.0488 6.29021 27.1788 6.57201C27.3089 6.85302 27.3735 7.17496 27.3735 7.53784C27.3735 7.90071 27.3089 8.22266 27.1788 8.50446C27.0481 8.78626 26.8658 9.00351 26.6299 9.157C26.3939 9.3105 26.1215 9.38685 25.8126 9.38685C25.4996 9.38685 25.2244 9.3105 24.9892 9.157ZM26.2914 8.67527C26.4434 8.58711 26.5693 8.447 26.6698 8.25651C26.7688 8.06602 26.819 7.82357 26.819 7.53076C26.819 7.24266 26.7688 7.00337 26.6691 6.81209C26.5812 6.63421 26.4496 6.48972 26.2907 6.39648C26.1411 6.31151 25.9762 6.2673 25.8092 6.2673C25.6421 6.2673 25.4773 6.31151 25.3276 6.39648C25.1749 6.48306 25.0497 6.6216 24.9527 6.81209C24.855 7.00258 24.8062 7.24266 24.8062 7.53076C24.8062 7.82436 24.8543 8.06602 24.9527 8.25651C25.0497 8.44778 25.1749 8.58711 25.3276 8.67527C25.4768 8.76215 25.6418 8.80745 25.8092 8.80745C25.9765 8.80745 26.1422 8.76215 26.2914 8.67527ZM28.1908 4.92766C28.1613 4.89518 28.138 4.85614 28.1223 4.81295C28.1066 4.76976 28.0987 4.72334 28.0993 4.67656V4.64901C28.0993 4.55061 28.1296 4.46718 28.1908 4.39712C28.2192 4.3633 28.2534 4.33656 28.2913 4.31854C28.3292 4.30053 28.3699 4.29164 28.4109 4.29243H28.4467C28.532 4.29243 28.6049 4.32785 28.6668 4.39712C28.6963 4.42972 28.7196 4.46889 28.7354 4.51222C28.7511 4.55554 28.7589 4.6021 28.7583 4.64901V4.67656C28.7583 4.77416 28.7274 4.8576 28.6668 4.92844C28.6383 4.96204 28.604 4.9886 28.5662 5.00647C28.5283 5.02434 28.4876 5.03314 28.4467 5.03235H28.4102C28.3693 5.03303 28.3288 5.02409 28.291 5.00608C28.2533 4.98807 28.2191 4.96138 28.1908 4.92766ZM28.2272 9.26169C28.2014 9.23258 28.1811 9.19773 28.1675 9.15928C28.1539 9.12084 28.1473 9.07961 28.1481 9.03814V6.04462C28.1476 6.0028 28.1543 5.96128 28.1679 5.92244C28.1814 5.88361 28.2016 5.84823 28.2272 5.81837C28.2528 5.7885 28.2833 5.76474 28.3169 5.74845C28.3506 5.73216 28.3867 5.72367 28.4233 5.72346C28.5038 5.72346 28.5712 5.75416 28.6242 5.81399C28.6504 5.84423 28.671 5.88029 28.6846 5.91995C28.6982 5.95961 28.7045 6.00204 28.7033 6.04462V9.03814C28.7033 9.12709 28.6758 9.20108 28.6207 9.26169C28.5946 9.29104 28.5636 9.31415 28.5296 9.32969C28.4956 9.34523 28.4592 9.35289 28.4226 9.35222C28.3864 9.35319 28.3503 9.34565 28.3167 9.33009C28.2831 9.31452 28.2527 9.29124 28.2272 9.26169ZM30.2952 9.16409C30.0486 9.01718 29.8426 8.79481 29.7001 8.52178C29.5515 8.24312 29.4779 7.91488 29.4779 7.53784C29.4779 7.1608 29.5515 6.83334 29.7001 6.55391C29.8487 6.27447 30.0468 6.06115 30.2952 5.91159C30.5456 5.76218 30.8244 5.68568 31.1069 5.68883C31.3215 5.68883 31.508 5.72032 31.6641 5.78329C31.821 5.84547 31.9668 5.92576 32.1003 6.02337C32.1324 6.04462 32.1599 6.07399 32.1806 6.10924C32.2013 6.14449 32.2147 6.18469 32.2197 6.22676C32.2248 6.26884 32.2213 6.31168 32.2097 6.352C32.1981 6.39233 32.1785 6.42908 32.1526 6.45945C32.1326 6.48655 32.1078 6.50839 32.0798 6.52348C32.0517 6.53856 32.0212 6.54652 31.9902 6.54682C31.9431 6.54614 31.897 6.53179 31.8561 6.5051C31.7456 6.43771 31.6306 6.38059 31.5121 6.33429C31.3959 6.29598 31.2753 6.2782 31.1544 6.28155C30.8056 6.28155 30.5311 6.39648 30.3316 6.6279C30.1321 6.85774 30.0331 7.1608 30.0331 7.53784C30.0331 7.91488 30.1321 8.21794 30.3316 8.44857C30.5311 8.6792 30.8056 8.79413 31.1551 8.79413C31.2968 8.79413 31.4165 8.77681 31.5121 8.74139C31.6306 8.69508 31.7456 8.63796 31.8561 8.57058C31.897 8.54389 31.9431 8.52954 31.9902 8.52886C32.0521 8.52886 32.1051 8.55798 32.1526 8.61545C32.1788 8.64574 32.1985 8.68253 32.2103 8.72296C32.2221 8.7634 32.2256 8.8064 32.2206 8.84863C32.2155 8.89087 32.2021 8.9312 32.1812 8.96652C32.1603 9.00184 32.1327 9.0312 32.1003 9.05231C31.9661 9.14992 31.821 9.23021 31.6641 9.29318C31.5073 9.35615 31.3215 9.38764 31.1069 9.38764C30.8132 9.38764 30.5428 9.31286 30.2952 9.16409ZM33.1219 8.90197C32.8439 8.57924 32.7043 8.12426 32.7043 7.53784C32.7043 7.20724 32.7573 6.90261 32.8625 6.62396C32.9685 6.34452 33.1315 6.11861 33.3509 5.94701C33.5711 5.77463 33.8407 5.68883 34.162 5.68883C34.4633 5.68883 34.7234 5.76912 34.9428 5.92891C35.163 6.08949 35.3287 6.30359 35.4429 6.57122C35.5564 6.83885 35.6135 7.13088 35.6135 7.44732C35.6145 7.48846 35.6083 7.52942 35.5954 7.5678C35.5824 7.60618 35.5628 7.64122 35.5379 7.67087C35.5111 7.70154 35.4791 7.72544 35.4438 7.74103C35.4085 7.75663 35.3707 7.76356 35.3329 7.76139H33.2656C33.298 8.08727 33.4032 8.34073 33.5821 8.52178C33.7609 8.70282 34.0114 8.79413 34.3333 8.79413C34.5039 8.79413 34.6532 8.77524 34.7805 8.73824C34.9077 8.70124 35.035 8.64772 35.1561 8.57766C35.1903 8.55865 35.2281 8.5492 35.2661 8.55011C35.3308 8.55011 35.3879 8.5753 35.4367 8.62647C35.4849 8.67763 35.5104 8.74296 35.5104 8.82168C35.5104 8.92401 35.4567 9.01059 35.3514 9.07986C35.1932 9.18219 35.0364 9.25933 34.8816 9.3105C34.7268 9.36166 34.528 9.38685 34.2838 9.38685C33.7885 9.38685 33.4005 9.22548 33.1219 8.90197ZM35.0646 7.24502C35.0593 7.04161 35.0056 6.84372 34.9091 6.67276C34.8253 6.52682 34.7083 6.4098 34.5706 6.33429C34.4365 6.26187 34.3003 6.22566 34.162 6.22566C34.0237 6.22566 33.8875 6.26187 33.7534 6.33429C33.6192 6.40592 33.5071 6.51927 33.4177 6.67276C33.3282 6.82626 33.2773 7.01675 33.2656 7.24502H35.0646ZM10.7559 7.25053V3.87603C10.7572 3.43258 10.6816 2.99325 10.5336 2.58344C10.3855 2.17364 10.1678 1.80152 9.89322 1.48861C9.62047 1.17477 9.29607 0.925877 8.93878 0.756319C8.58147 0.58676 8.19835 0.499894 7.81154 0.500739C6.99979 0.500739 6.26645 0.874634 5.73055 1.48861C5.45582 1.80145 5.23805 2.17355 5.08985 2.58335C4.94166 2.99316 4.86598 3.43253 4.8672 3.87603V7.25053H10.7559ZM13.7071 44.4999H41.2174C41.605 44.5 41.9888 44.4128 42.3469 44.2431C42.705 44.0734 43.0304 43.8247 43.3044 43.5111C43.5785 43.1975 43.7959 42.8252 43.9442 42.4155C44.0925 42.0057 44.1687 41.5666 44.1686 41.1231V38.5806H16.6514V41.1231C16.6528 41.5668 16.5772 42.0065 16.429 42.4166C16.2808 42.8267 16.063 43.199 15.7881 43.5121C15.5153 43.8259 15.1909 44.0747 14.8336 44.2443C14.4763 44.4139 14.0932 44.5007 13.7064 44.4999H13.7071Z" fill="#ED524E"/>
<path d="M27.2466 18.4367V19.3624C27.2466 19.4021 27.2328 19.4403 27.2083 19.4684C27.1838 19.4966 27.1506 19.5125 27.1159 19.5128H14.0872C14.0699 19.5129 14.0528 19.5091 14.0368 19.5016C14.0208 19.4942 14.0063 19.4832 13.994 19.4693C13.9818 19.4554 13.972 19.4389 13.9653 19.4207C13.9587 19.4025 13.9552 19.3829 13.9551 19.3632V18.4367C13.9551 18.3541 14.0142 18.2864 14.0872 18.2864H27.1152C27.1881 18.2864 27.2466 18.3541 27.2466 18.4367ZM33.8445 18.4367V19.3624C33.8445 19.4458 33.9037 19.5128 33.9759 19.5128H37.3C37.3347 19.5128 37.368 19.497 37.3926 19.469C37.4173 19.441 37.4312 19.4029 37.4314 19.3632V18.4367C37.4314 18.397 37.4176 18.3589 37.3931 18.3307C37.3686 18.3025 37.3354 18.2866 37.3007 18.2864H33.9759C33.9412 18.2866 33.9079 18.3025 33.8834 18.3307C33.8589 18.3589 33.8445 18.397 33.8445 18.4367ZM23.9576 22.0371V22.9628C23.9576 23.0026 23.9438 23.0407 23.9193 23.0689C23.8948 23.097 23.8616 23.113 23.8269 23.1132H14.0878C14.0705 23.1133 14.0534 23.1095 14.0374 23.1019C14.0213 23.0944 14.0068 23.0834 13.9945 23.0694C13.9822 23.0554 13.9725 23.0388 13.9658 23.0205C13.9592 23.0022 13.9558 22.9826 13.9558 22.9628V22.0371C13.9558 21.9537 14.0149 21.8868 14.0878 21.8868H23.8269C23.8991 21.8868 23.9576 21.9537 23.9576 22.0371Z" fill="#CFCFFF"/>
<path d="M23.9576 18.4367V19.3624C23.9576 19.4022 23.9438 19.4403 23.9193 19.4685C23.8948 19.4966 23.8616 19.5126 23.8269 19.5128H14.0878C14.0706 19.5129 14.0535 19.5091 14.0375 19.5016C14.0215 19.4942 14.007 19.4832 13.9947 19.4693C13.9825 19.4554 13.9727 19.4389 13.966 19.4207C13.9593 19.4025 13.9559 19.383 13.9558 19.3632V18.4367C13.9558 18.3541 14.0149 18.2864 14.0878 18.2864H23.8269C23.8991 18.2864 23.9576 18.3541 23.9576 18.4367ZM23.9576 14.8363V15.762C23.9577 15.7818 23.9544 15.8013 23.9478 15.8196C23.9413 15.8379 23.9317 15.8545 23.9196 15.8686C23.9074 15.8826 23.893 15.8937 23.8771 15.9014C23.8612 15.909 23.8441 15.913 23.8269 15.9131H14.0878C14.0705 15.9132 14.0533 15.9094 14.0372 15.9019C14.0211 15.8943 14.0065 15.8832 13.9942 15.8691C13.982 15.8551 13.9722 15.8384 13.9656 15.82C13.959 15.8016 13.9557 15.7819 13.9558 15.762V14.8363C13.9558 14.7537 14.0149 14.6868 14.0878 14.6868H23.8269C23.8991 14.6868 23.9576 14.7537 23.9576 14.8363ZM30.5562 22.0372V22.9628C30.5562 23.0463 30.6147 23.1132 30.6869 23.1132H37.3C37.3348 23.1132 37.3682 23.0973 37.3929 23.0691C37.4175 23.041 37.4314 23.0027 37.4314 22.9628V22.0372C37.4314 21.9974 37.4176 21.9593 37.3931 21.9311C37.3686 21.9029 37.3354 21.887 37.3007 21.8868H30.6876C30.6703 21.8868 30.6533 21.8907 30.6373 21.8983C30.6214 21.9058 30.6069 21.9169 30.5947 21.9308C30.5825 21.9448 30.5728 21.9614 30.5662 21.9796C30.5596 21.9979 30.5562 22.0174 30.5562 22.0372ZM24.9448 25.6376V26.5633C24.9448 26.583 24.9414 26.6025 24.9348 26.6208C24.9282 26.639 24.9185 26.6556 24.9063 26.6696C24.8941 26.6835 24.8796 26.6946 24.8636 26.7022C24.8477 26.7097 24.8306 26.7136 24.8134 26.7136H14.0878C14.0705 26.7137 14.0534 26.7099 14.0374 26.7024C14.0213 26.6949 14.0068 26.6838 13.9945 26.6698C13.9822 26.6559 13.9725 26.6393 13.9658 26.621C13.9592 26.6027 13.9558 26.5831 13.9558 26.5633V25.6376C13.9558 25.5541 14.0149 25.4872 14.0878 25.4872H24.8127C24.8856 25.4872 24.9448 25.5549 24.9448 25.6376ZM31.5427 25.6376V26.5633C31.5427 26.6459 31.6012 26.7136 31.6741 26.7136H37.3C37.3172 26.7136 37.3343 26.7097 37.3503 26.7022C37.3662 26.6946 37.3807 26.6835 37.3929 26.6696C37.4051 26.6556 37.4148 26.639 37.4214 26.6208C37.428 26.6025 37.4314 26.583 37.4314 26.5633V25.6376C37.4314 25.5978 37.4176 25.5597 37.3931 25.5315C37.3686 25.5034 37.3354 25.4874 37.3007 25.4872H31.6741C31.6394 25.4872 31.606 25.503 31.5814 25.531C31.5568 25.559 31.5429 25.5978 31.5427 25.6376ZM27.2466 29.7166V30.6423C27.2466 30.682 27.2328 30.7201 27.2083 30.7483C27.1838 30.7765 27.1506 30.7924 27.1159 30.7926H14.0872C14.0698 30.7927 14.0527 30.7889 14.0367 30.7814C14.0206 30.7739 14.0061 30.7628 13.9938 30.7488C13.9815 30.7349 13.9718 30.7183 13.9651 30.7C13.9585 30.6817 13.9551 30.6621 13.9551 30.6423V29.7166C13.9551 29.6331 14.0142 29.5662 14.0872 29.5662H27.1152C27.1881 29.5662 27.2466 29.6331 27.2466 29.7166ZM33.8445 29.7166V30.6423C33.8445 30.7257 33.9037 30.7926 33.9759 30.7926H37.3C37.3348 30.7926 37.3682 30.7768 37.3929 30.7486C37.4175 30.7204 37.4314 30.6821 37.4314 30.6423V29.7166C37.4314 29.6768 37.4176 29.6387 37.3931 29.6105C37.3686 29.5824 37.3354 29.5664 37.3007 29.5662H33.9759C33.9412 29.5664 33.9079 29.5824 33.8834 29.6105C33.8589 29.6387 33.8445 29.6768 33.8445 29.7166ZM23.9576 33.317V34.2427C23.9576 34.2824 23.9438 34.3205 23.9193 34.3487C23.8948 34.3769 23.8616 34.3928 23.8269 34.393H14.0878C14.0705 34.3931 14.0534 34.3893 14.0374 34.3818C14.0213 34.3743 14.0068 34.3632 13.9945 34.3493C13.9822 34.3353 13.9725 34.3187 13.9658 34.3004C13.9592 34.2821 13.9558 34.2625 13.9558 34.2427V33.317C13.9558 33.2335 14.0149 33.1666 14.0878 33.1666H23.8269C23.8991 33.1666 23.9576 33.2343 23.9576 33.317ZM30.5562 33.317V34.2427C30.5562 34.3253 30.6147 34.393 30.6869 34.393H37.3C37.3348 34.393 37.3682 34.3772 37.3929 34.349C37.4175 34.3208 37.4314 34.2825 37.4314 34.2427V33.317C37.4314 33.2772 37.4176 33.2391 37.3931 33.2109C37.3686 33.1828 37.3354 33.1668 37.3007 33.1666H30.6876C30.6529 33.1666 30.6196 33.1824 30.5949 33.2104C30.5703 33.2384 30.5564 33.2772 30.5562 33.317Z" fill="#CFCFFF"/>
<g opacity="0.2">
<path d="M11.6465 0.620605L24.5417 44.5002H35.3615L22.4594 0.620605H11.6465ZM27.2646 0.620605H25.2407L38.1407 44.5002H40.1577L27.2646 0.620605Z" fill="white"/>
</g>
<path d="M30.4043 14.8363V15.762C30.4043 15.8455 30.4628 15.9131 30.535 15.9131H37.2987C37.316 15.9131 37.3332 15.9092 37.3492 15.9016C37.3652 15.894 37.3797 15.8829 37.3919 15.8688C37.4041 15.8548 37.4138 15.8381 37.4203 15.8198C37.4269 15.8015 37.4302 15.7818 37.4301 15.762V14.8363C37.4299 14.7967 37.4161 14.7588 37.3916 14.7308C37.3672 14.7028 37.334 14.687 37.2994 14.6868H30.5357C30.501 14.6868 30.4676 14.7025 30.443 14.7305C30.4184 14.7586 30.4045 14.7966 30.4043 14.8363Z" fill="#CFCFFF"/>
<path d="M17.8182 26.7246V43.2626C17.8182 43.9459 17.3339 44.5 16.7368 44.5H1.24939C0.962583 44.5 0.687518 44.3696 0.484711 44.1376C0.281904 43.9055 0.167969 43.5908 0.167969 43.2626V26.7246C0.167969 26.0414 0.652271 25.488 1.24939 25.488H16.7368C17.3339 25.488 17.8182 26.0414 17.8182 26.7246Z" fill="#FDC72E"/>
<path d="M11.0121 25.488V30.3022C11.012 30.3466 11.0012 30.3902 10.9809 30.428C10.9606 30.4658 10.9315 30.4965 10.8969 30.5166C10.8623 30.5367 10.8236 30.5455 10.7849 30.542C10.7462 30.5385 10.7091 30.5228 10.6777 30.4967L9.1182 29.2105C9.08211 29.1797 9.03833 29.1631 8.99334 29.1631C8.94836 29.1631 8.90457 29.1797 8.86848 29.2105L7.30963 30.4967C7.27825 30.523 7.2411 30.5389 7.20231 30.5425C7.16352 30.5461 7.12461 30.5374 7.0899 30.5173C7.05519 30.4971 7.02604 30.4664 7.00568 30.4284C6.98533 30.3904 6.97457 30.3468 6.97461 30.3022V25.488H11.0121Z" fill="#ED524E"/>
<path d="M10.4844 39.9006H15.8089V40.8192H10.4844V39.9006ZM7.72852 42.0503H15.8089V42.9689H7.72852V42.0503Z" fill="#F9AC00"/>
<g opacity="0.2">
<path d="M13.5238 44.4999H5.97579L0.490234 25.8405C0.693302 25.6131 0.966246 25.4859 1.2504 25.4863H7.92744L13.5238 44.4999ZM17.5021 44.1386C17.298 44.3691 17.0231 44.4989 16.7364 44.4999H15.4637L9.86741 25.4871H12.011L17.5021 44.1386Z" fill="white"/>
</g>
</svg>
