<svg width="45" height="45" viewBox="0 0 45 45" fill="none" xmlns="http://www.w3.org/2000/svg">
<path d="M22.1676 39.1891H42.6521C43.0545 39.1891 43.4405 39.0292 43.725 38.7447C44.0096 38.4601 44.1695 38.0742 44.1695 37.6717V16.4285C44.1695 16.0261 44.0096 15.6401 43.725 15.3556C43.4405 15.071 43.0545 14.9111 42.6521 14.9111H36.5826C36.1802 14.9111 35.7942 15.071 35.5097 15.3556C35.2251 15.6401 35.0652 16.0261 35.0652 16.4285V19.4633H28.237C27.8346 19.4633 27.4487 19.6231 27.1641 19.9077C26.8795 20.1922 26.7197 20.5782 26.7197 20.9806V24.0154H20.6502C20.2478 24.0154 19.8618 24.1752 19.5772 24.4598C19.2927 24.7444 19.1328 25.1303 19.1328 25.5327V28.5675L22.1676 39.1891Z" fill="#F0C419"/>
<path d="M22.167 35.085V42.9829C22.1658 43.3849 22.0056 43.7702 21.7213 44.0545C21.437 44.3388 21.0517 44.4991 20.6497 44.5003H2.4412C2.03914 44.4991 1.65389 44.3388 1.36958 44.0545C1.08528 43.7702 0.925029 43.3849 0.923828 42.9829V35.085H22.167Z" fill="#A56A43"/>
<path d="M41.8879 1.71995L41.4327 6.703C41.4146 6.91596 41.3358 7.11926 41.2057 7.28883C41.0755 7.45839 40.8996 7.58712 40.6986 7.65976C40.4975 7.7324 40.2799 7.74592 40.0715 7.69872C39.863 7.65151 39.6725 7.54556 39.5224 7.39341L38.6878 6.55885L31.5038 13.7345C31.1268 14.1132 30.6787 14.4137 30.1853 14.6187C29.6918 14.8237 29.1627 14.9293 28.6284 14.9293C28.094 14.9293 27.5649 14.8237 27.0715 14.6187C26.578 14.4137 26.13 14.1132 25.753 13.7345L22.1666 10.1543C21.9748 9.96449 21.7158 9.85806 21.4459 9.85806C21.176 9.85806 20.917 9.96449 20.7251 10.1543L14.334 16.5272C13.9943 16.8859 13.5388 17.1131 13.048 17.1686C12.5571 17.2241 12.0625 17.1044 11.6513 16.8307C11.4088 16.6606 11.2066 16.4393 11.0589 16.1826C10.9112 15.9258 10.8216 15.6398 10.7964 15.3446C10.7712 15.0495 10.8111 14.7524 10.9132 14.4744C11.0152 14.1963 11.1771 13.944 11.3872 13.7353L18.5712 6.55961C19.3349 5.79906 20.3688 5.37206 21.4467 5.37206C22.5245 5.37206 23.5584 5.79906 24.3221 6.55961L27.9091 10.1527C28.1012 10.3422 28.3601 10.4483 28.6299 10.4483C28.8997 10.4483 29.1586 10.3422 29.3506 10.1527L35.8131 3.68722L34.9786 2.85267C34.8304 2.70156 34.728 2.51159 34.6832 2.30472C34.6384 2.09786 34.6531 1.88255 34.7256 1.68368C34.798 1.48482 34.9253 1.31052 35.0926 1.18093C35.26 1.05135 35.4606 0.971772 35.6713 0.951401L40.6604 0.505294C40.8244 0.489307 40.99 0.509636 41.1453 0.564837C41.3006 0.620038 41.4419 0.708757 41.5591 0.824695C41.6762 0.940633 41.7664 1.08095 41.8233 1.23567C41.8801 1.39039 41.9022 1.55573 41.8879 1.71995Z" fill="#E64C3C"/>
<path d="M16.856 29.3264H15.3386V28.5677C15.3386 28.2643 15.1937 25.533 11.5452 25.533C7.89666 25.533 7.75554 28.2643 7.75175 28.5723L7.74188 29.3264L6.23438 29.3219V28.5677C6.23438 26.9935 7.34433 24.0156 11.5452 24.0156C15.746 24.0156 16.856 26.9935 16.856 28.5677V29.3264Z" fill="#805333"/>
<path d="M13.0637 36.9134C17.8799 36.9134 20.8091 35.7807 22.1171 35.1138C22.3626 34.9862 22.5681 34.7933 22.711 34.5564C22.8538 34.3194 22.9285 34.0476 22.9266 33.7709V30.0852C22.9266 29.6828 22.7668 29.2969 22.4822 29.0123C22.1976 28.7277 21.8117 28.5679 21.4093 28.5679H1.68342C1.28099 28.5679 0.895039 28.7277 0.610476 29.0123C0.325914 29.2969 0.166048 29.6828 0.166048 30.0852V33.7709C0.164226 34.0476 0.238852 34.3194 0.381696 34.5564C0.524539 34.7933 0.730051 34.9862 0.975566 35.1138C2.28354 35.7807 5.21283 36.9134 10.029 36.9134H13.0637Z" fill="#CB8252"/>
<path d="M13.064 36.9129C13.064 36.0749 12.3847 35.3955 11.5467 35.3955C10.7086 35.3955 10.0293 36.0749 10.0293 36.9129V37.6716C10.0293 38.5096 10.7086 39.1889 11.5467 39.1889C12.3847 39.1889 13.064 38.5096 13.064 37.6716V36.9129Z" fill="#D1D4D1"/>
</svg>
