<svg width="45" height="45" viewBox="0 0 45 45" fill="none" xmlns="http://www.w3.org/2000/svg">
<path d="M6.90234 0.5H44.8334V27.6983H6.90234V0.5Z" fill="#348FD9"/>
<path d="M9.9375 3.52197H41.7996V24.6762H9.9375V3.52197Z" fill="#9FE4ED"/>
<path d="M15.2466 11.0772C16.5035 11.0772 17.5224 10.0625 17.5224 8.81071C17.5224 7.55895 16.5035 6.54419 15.2466 6.54419C13.9896 6.54419 12.9707 7.55895 12.9707 8.81071C12.9707 10.0625 13.9896 11.0772 15.2466 11.0772Z" fill="#FFA912"/>
<path d="M0.833984 8.05518H38.765V35.2534H0.833984V8.05518Z" fill="#44546C"/>
<path d="M3.86914 11.0771H35.7312V32.2314H3.86914V11.0771Z" fill="#9FE4ED"/>
<path d="M9.17821 18.6324C10.4351 18.6324 11.4541 17.6177 11.4541 16.3659C11.4541 15.1141 10.4351 14.0994 9.17821 14.0994C7.92128 14.0994 6.90234 15.1141 6.90234 16.3659C6.90234 17.6177 7.92128 18.6324 9.17821 18.6324Z" fill="#FFA912"/>
<path d="M37.5025 9.38184L44.6214 34.0673L8.16968 44.4933L1.05078 19.8078L37.5025 9.38184Z" fill="#FFA912"/>
<path d="M35.4241 13.1201L40.868 31.9972L10.2485 40.7551L4.80469 21.878L35.4241 13.1201Z" fill="#9FE4ED"/>
<path d="M36.1139 23.0451L38.8624 32.5766L40.8682 32.0024L35.4236 13.1223L4.79883 21.8832L5.28738 23.5755L26.2185 17.5889C27.228 17.3001 28.2848 17.2122 29.3284 17.3301C30.3721 17.4481 31.3822 17.7696 32.3011 18.2763C33.22 18.7831 34.0296 19.4651 34.6838 20.2835C35.338 21.1018 35.824 22.0397 36.1139 23.0451Z" fill="black" fill-opacity="0.12549"/>
<path d="M27.8859 27.5471L17.7734 21.707L9.26172 37.3687L10.6955 42.0528L31.9369 36.0088L28.1438 27.6982" fill="#7EB457"/>
<path d="M28.1444 27.6982L27.8865 27.5471L17.7741 21.707L17.262 22.6499C18.2821 23.7855 19.0285 25.1381 19.4444 26.6044C19.8602 28.0708 19.9346 29.6124 19.6618 31.1117C19.389 32.611 18.7762 34.0285 17.8701 35.2563C16.964 36.4841 15.7885 37.4898 14.4331 38.1967L9.9375 40.5418L10.6961 42.0528L31.9375 36.0088L28.1444 27.6982Z" fill="black" fill-opacity="0.12549"/>
<path d="M22.1738 37.3461L27.8862 27.5472L30.6931 22.7271L40.2821 27.6983L41.7993 32.2313L22.1738 37.3461Z" fill="#7EB457"/>
<path d="M40.2821 27.6983L30.6931 22.7271L29.9618 23.9835C30.7811 24.5156 31.4459 25.2524 31.8898 26.1205C32.3337 26.9885 32.5412 27.9573 32.4915 28.9302C32.4418 29.903 32.1367 30.8459 31.6067 31.6646C31.0767 32.4833 30.3403 33.1492 29.471 33.5958L22.1738 37.3461L41.7993 32.2313L40.2821 27.6983Z" fill="black" fill-opacity="0.129412"/>
<path d="M37.502 9.38477L1.04492 19.8108L8.16458 44.5L44.6216 34.0725L37.502 9.38477ZM4.79858 21.8816L35.4226 13.1223L40.868 32.0024L10.2432 40.761L4.79858 21.8816Z" fill="#FFA912"/>
<path d="M26.4712 22.6656C27.7281 22.6656 28.747 21.6509 28.747 20.3991C28.747 19.1473 27.7281 18.1326 26.4712 18.1326C25.2143 18.1326 24.1953 19.1473 24.1953 20.3991C24.1953 21.6509 25.2143 22.6656 26.4712 22.6656Z" fill="#FFA912"/>
</svg>
