<svg width="45" height="45" viewBox="0 0 45 45" fill="none" xmlns="http://www.w3.org/2000/svg">
<path d="M42.983 11.8794H29.3278C28.491 11.882 27.8131 12.5599 27.8105 13.3966V20.9828C27.8131 21.8196 28.491 22.4975 29.3278 22.5001H32.3623V25.5346L35.3968 22.5001H42.983C43.8197 22.4975 44.4976 21.8196 44.5002 20.9828V13.3966C44.4976 12.5599 43.8197 11.882 42.983 11.8794Z" fill="#FFD422"/>
<path d="M21.7408 5.05167V11.1206C21.7382 11.9574 21.0603 12.6353 20.2235 12.6379H16.4304V15.6724L13.8434 13.0854C13.7022 12.9435 13.5343 12.831 13.3494 12.7542C13.1646 12.6774 12.9664 12.6379 12.7662 12.6379H8.0856C7.24884 12.6353 6.57092 11.9574 6.56836 11.1206V5.05167C6.57092 4.21491 7.24884 3.53698 8.0856 3.53442H20.2235C21.0603 3.53698 21.7382 4.21491 21.7408 5.05167Z" fill="#78B9EB"/>
<path d="M39.9481 0.5H27.8102C26.9735 0.50256 26.2955 1.18048 26.293 2.01724V8.08621C26.2955 8.92297 26.9735 9.60089 27.8102 9.60345H31.6033V12.6379L34.1903 10.0509C34.3316 9.9091 34.4994 9.79656 34.6843 9.71976C34.8692 9.64297 35.0674 9.60344 35.2675 9.60345H39.9481C40.7849 9.60089 41.4628 8.92297 41.4654 8.08621V2.01724C41.4628 1.18048 40.7849 0.50256 39.9481 0.5Z" fill="#FF9811"/>
<path d="M17.1897 19.4655V27.0517C17.1871 27.8884 16.5092 28.5664 15.6724 28.5689H12.6379V31.6034L9.60345 28.5689H2.01724C1.18048 28.5664 0.50256 27.8884 0.5 27.0517V19.4655C0.50256 18.6287 1.18048 17.9508 2.01724 17.9482H15.6724C16.5092 17.9508 17.1871 18.6287 17.1897 19.4655Z" fill="#00CCB3"/>
<path d="M30.8448 44.5001H13.3965V42.6642C13.3994 40.6125 14.7715 38.8152 16.7496 38.2718L20.7097 37.1946L24.0172 39.9484L27.3247 37.1946L31.2849 38.2718C33.2629 38.8152 34.6349 40.6125 34.6379 42.6642V44.5001H30.8448Z" fill="#3D9AE2"/>
<path d="M28.5683 29.3275V30.8447C28.5687 31.6431 28.3585 32.4276 27.9589 33.1188C27.5593 33.8101 26.9845 34.3837 26.2924 34.7819C25.6015 35.1844 24.8162 35.3965 24.0166 35.3965C23.217 35.3965 22.4317 35.1844 21.7407 34.7819C21.3958 34.5856 21.0793 34.3432 20.7998 34.0614C20.3753 33.6405 20.0386 33.1393 19.8094 32.5871C19.5802 32.0349 19.4631 31.4426 19.4649 30.8447V29.3275H20.2235C21.1656 29.3269 22.0947 29.1073 22.9373 28.686C23.7799 28.2646 24.513 27.6531 25.0787 26.8997L25.5338 26.293L25.8601 27.6054C25.9851 28.0965 26.2698 28.5322 26.6694 28.8439C27.069 29.1556 27.5608 29.3257 28.0676 29.3275H28.5683Z" fill="#FFDAAA"/>
<path d="M27.3259 37.1944L24.0184 39.9482L20.7109 37.1944L21.7426 36.9137V34.782C22.4335 35.1845 23.2188 35.3965 24.0184 35.3965C24.818 35.3965 25.6034 35.1845 26.2943 34.782V36.9137L27.3259 37.1944Z" fill="#FFDAAA"/>
<path d="M29.3277 27.0516V29.3274H28.0683C27.5615 29.3257 27.0697 29.1555 26.6702 28.8438C26.2706 28.5321 25.9859 28.0965 25.8609 27.6053L25.5346 26.2929L25.0794 26.8996C24.5138 27.6531 23.7807 28.2646 22.9381 28.6859C22.0955 29.1073 21.1664 29.3269 20.2243 29.3274H18.707V27.0516C18.707 24.1185 21.0844 21.7412 24.0174 21.7412C26.9504 21.7412 29.3277 24.1185 29.3277 27.0516Z" fill="#57565C"/>
<path d="M26.2939 34.782V35.5406C25.603 35.9431 24.8177 36.1551 24.018 36.1551C23.2184 36.1551 22.4331 35.9431 21.7422 35.5406V34.782C22.4331 35.1845 23.2184 35.3965 24.018 35.3965C24.8177 35.3965 25.603 35.1845 26.2939 34.782Z" fill="#F2CFA2"/>
<path d="M16.4316 41.4656H17.9489V44.5001H16.4316V41.4656ZM30.0868 41.4656H31.6041V44.5001H30.0868V41.4656Z" fill="#1E81CE"/>
<path d="M8.08722 22.5H9.60446V24.0172H8.08722V22.5ZM11.1217 22.5H12.6389V24.0172H11.1217V22.5ZM5.05273 22.5H6.56998V24.0172H5.05273V22.5Z" fill="#009986"/>
<path d="M13.3958 7.32764H14.9131V8.84488H13.3958V7.32764ZM16.4303 7.32764H17.9475V8.84488H16.4303V7.32764ZM10.3613 7.32764H11.8786V8.84488H10.3613V7.32764Z" fill="#1A6FB0"/>
<path d="M33.1204 4.29297H34.6377V5.81021H33.1204V4.29297ZM36.1549 4.29297H37.6721V5.81021H36.1549V4.29297ZM30.0859 4.29297H31.6032V5.81021H30.0859V4.29297Z" fill="#CC7400"/>
<path d="M35.3958 16.4309H36.9131V17.9481H35.3958V16.4309ZM38.4303 16.4309H39.9475V17.9481H38.4303V16.4309ZM32.3613 16.4309H33.8786V17.9481H32.3613V16.4309Z" fill="#DDB200"/>
</svg>
