<svg width="37" height="45" viewBox="0 0 37 45" fill="none" xmlns="http://www.w3.org/2000/svg">
<path fill-rule="evenodd" clip-rule="evenodd" d="M29.8946 3.60059H13.7438C13.0631 3.60059 12.5078 4.15589 12.5078 4.83672V14.957C12.5078 15.6378 13.0631 16.1931 13.7438 16.1931H22.9285L28.162 19.9509V16.1932H29.8946C30.5756 16.1932 31.1308 15.6379 31.1308 14.9571V4.83672C31.1308 4.15589 30.5756 3.60059 29.8946 3.60059Z" fill="#22C269"/>
<path fill-rule="evenodd" clip-rule="evenodd" d="M7.07776 0.5H23.2286C23.9096 0.5 24.4649 1.0553 24.4649 1.73614V11.8564C24.4649 12.5372 23.9096 13.0925 23.2286 13.0925H14.0439L8.81052 16.8504V13.0925H7.07776C6.3971 13.0925 5.8418 12.5372 5.8418 11.8564V1.73614C5.8418 1.0553 6.3971 0.5 7.07776 0.5Z" fill="#FAD808"/>
<path fill-rule="evenodd" clip-rule="evenodd" d="M9.5296 10.6557C9.34097 10.6557 9.16006 10.5808 9.02668 10.4474C8.89329 10.314 8.81836 10.1331 8.81836 9.94447C8.81836 9.75583 8.89329 9.57493 9.02668 9.44154C9.16006 9.30816 9.34097 9.23323 9.5296 9.23323H20.7806C20.9693 9.23323 21.1502 9.30816 21.2836 9.44154C21.4169 9.57493 21.4919 9.75583 21.4919 9.94447C21.4919 10.1331 21.4169 10.314 21.2836 10.4474C21.1502 10.5808 20.9693 10.6557 20.7806 10.6557H9.5296ZM9.5296 4.359C9.34097 4.359 9.16006 4.28407 9.02668 4.15069C8.89329 4.0173 8.81836 3.8364 8.81836 3.64776C8.81836 3.45913 8.89329 3.27822 9.02668 3.14484C9.16006 3.01146 9.34097 2.93652 9.5296 2.93652H20.7806C20.9693 2.93652 21.1502 3.01146 21.2836 3.14484C21.4169 3.27822 21.4919 3.45913 21.4919 3.64776C21.4919 3.8364 21.4169 4.0173 21.2836 4.15069C21.1502 4.28407 20.9693 4.359 20.7806 4.359H9.5296ZM9.5296 7.5074C9.34097 7.5074 9.16006 7.43247 9.02668 7.29908C8.89329 7.1657 8.81836 6.98479 8.81836 6.79616C8.81836 6.60753 8.89329 6.42662 9.02668 6.29324C9.16006 6.15985 9.34097 6.08492 9.5296 6.08492H20.7806C20.9693 6.08492 21.1502 6.15985 21.2836 6.29324C21.4169 6.42662 21.4919 6.60753 21.4919 6.79616C21.4919 6.98479 21.4169 7.1657 21.2836 7.29908C21.1502 7.43247 20.9693 7.5074 20.7806 7.5074H9.5296Z" fill="#E6F8FF"/>
<path fill-rule="evenodd" clip-rule="evenodd" d="M17.8791 24.1707C24.9846 32.9948 28.5375 37.4069 28.5375 37.4069C29.2604 38.13 29.2604 39.3127 28.5374 40.0357C27.8143 40.7587 26.6316 40.7589 25.9088 40.0359C26.6315 40.7587 26.6315 41.9416 25.9088 42.6644C25.1857 43.3875 24.0028 43.3875 23.2799 42.6646L21.8461 41.2306C22.569 41.9535 22.569 43.1364 21.8461 43.8593C21.1232 44.5822 19.9403 44.5823 19.2173 43.8594L16.687 41.3291C17.4101 42.052 17.4101 43.2348 16.687 43.9577C15.964 44.6806 14.7811 44.6805 14.0581 43.9577L3.68945 33.5893C3.68945 33.5893 4.39047 30.4498 5.79224 24.1707H17.8791Z" fill="#FFD6BD"/>
<path fill-rule="evenodd" clip-rule="evenodd" d="M19.8414 35.0337C19.7715 34.9639 19.7161 34.8809 19.6783 34.7896C19.6404 34.6982 19.6209 34.6004 19.6209 34.5015C19.6209 34.4027 19.6404 34.3048 19.6783 34.2135C19.7161 34.1221 19.7715 34.0392 19.8414 33.9693C19.9113 33.8994 19.9943 33.8439 20.0856 33.8061C20.177 33.7683 20.2748 33.7488 20.3737 33.7488C20.4725 33.7488 20.5704 33.7683 20.6617 33.8061C20.7531 33.8439 20.836 33.8994 20.9059 33.9693L26.0267 39.0899C26.0966 39.1598 26.152 39.2427 26.1899 39.3341C26.2277 39.4254 26.2472 39.5233 26.2472 39.6222C26.2472 39.721 26.2277 39.8189 26.1899 39.9103C26.152 40.0016 26.0966 40.0846 26.0267 40.1545C25.9568 40.2244 25.8738 40.2799 25.7825 40.3177C25.6912 40.3555 25.5933 40.375 25.4944 40.375C25.3956 40.375 25.2977 40.3555 25.2064 40.3177C25.1151 40.2799 25.0321 40.2244 24.9622 40.1545L19.8414 35.0337ZM13.9568 39.6643C13.8156 39.5231 13.7363 39.3316 13.7363 39.132C13.7363 38.9323 13.8156 38.7408 13.9568 38.5996C14.098 38.4585 14.2895 38.3791 14.4891 38.3791C14.6888 38.3791 14.8803 38.4585 15.0215 38.5996L16.8174 40.3958C16.8873 40.4657 16.9428 40.5487 16.9806 40.64C17.0185 40.7313 17.0379 40.8292 17.0379 40.9281C17.0379 41.0269 17.0185 41.1248 16.9806 41.2161C16.9428 41.3075 16.8873 41.3904 16.8174 41.4603C16.6762 41.6015 16.4848 41.6807 16.2851 41.6807C16.0855 41.6807 15.894 41.6015 15.7528 41.4603L13.9568 39.6643ZM16.8992 37.3489L20.8996 41.3493C20.9695 41.4192 21.0525 41.4746 21.1438 41.5125C21.2351 41.5503 21.333 41.5698 21.4318 41.5698C21.5307 41.5698 21.6286 41.5503 21.7199 41.5125C21.8112 41.4746 21.8942 41.4192 21.9641 41.3493C22.034 41.2794 22.0894 41.1964 22.1273 41.1051C22.1651 41.0138 22.1846 40.9159 22.1846 40.8171C22.1846 40.7182 22.1651 40.6203 22.1273 40.529C22.0894 40.4377 22.034 40.3547 21.9641 40.2848L17.9637 36.2845C17.8938 36.2146 17.8108 36.1591 17.7195 36.1213C17.6282 36.0834 17.5303 36.064 17.4315 36.064C17.3326 36.064 17.2347 36.0834 17.1434 36.1213C17.0521 36.1591 16.9691 36.2146 16.8992 36.2845C16.8293 36.3543 16.7739 36.4373 16.736 36.5286C16.6982 36.62 16.6787 36.7178 16.6787 36.8167C16.6787 36.9155 16.6982 37.0134 16.736 37.1047C16.7739 37.1961 16.8293 37.279 16.8992 37.3489Z" fill="#F9C6AA"/>
<path fill-rule="evenodd" clip-rule="evenodd" d="M3.50227 22.3892L8.02674 23.2885L5.25103 37.2525L0.726562 36.3531L3.50227 22.3892Z" fill="#E04F5F"/>
<path fill-rule="evenodd" clip-rule="evenodd" d="M33.8761 32.8434C33.7865 32.8775 30.3237 24.1299 30.2351 24.1629C26.9094 25.4058 24.3594 25.8589 20.9326 23.0317C19.8485 22.1372 18.3868 22.0379 17.3081 22.9386L12.9459 26.5808C12.4246 27.0161 12.1388 27.6213 12.2836 28.2848L13.6068 34.3484C16.9711 33.5194 16.9553 31.1254 17.1923 28.6083C17.3064 27.6442 18.8644 27.9082 20.8196 29.6896L28.8662 37.8532L33.8761 32.8434Z" fill="#EAAB92"/>
<path fill-rule="evenodd" clip-rule="evenodd" d="M36.2728 36.326L31.7484 37.2254L28.9727 23.2614L33.4971 22.3621L36.2728 36.326Z" fill="#E04F5F"/>
</svg>
