<svg width="45" height="45" viewBox="0 0 45 45" fill="none" xmlns="http://www.w3.org/2000/svg">
<path d="M27.8672 37.5945H37.2515V41.6669H27.8672V37.5945Z" fill="#FDAA8E"/>
<path d="M37.9275 28.9627V35.3563C37.9275 37.497 36.192 39.2323 34.0514 39.2323H30.1107C27.2892 39.2323 25.002 36.9451 25.002 34.1236V22.2343C25.002 21.3053 25.755 20.5522 26.684 20.5522C27.613 20.5522 28.3661 21.3053 28.3661 22.2343V26.4213C28.3661 27.8249 29.5039 28.9626 30.9073 28.9626H37.9275V28.9627Z" fill="#FFC6A1"/>
<path d="M35.5668 33.9648H30.5372C30.4424 33.9648 30.3514 33.9272 30.2844 33.8601C30.2174 33.7931 30.1797 33.7021 30.1797 33.6073V16.7898H35.9243V33.6073C35.9243 33.7021 35.8866 33.7931 35.8196 33.8601C35.7525 33.9272 35.6616 33.9648 35.5668 33.9648Z" fill="#D67B42"/>
<path d="M33.0527 16.7898V33.9648H35.5533C35.7586 33.9648 35.925 33.8109 35.925 33.6211V16.7898H33.0527Z" fill="#BF6724"/>
<path d="M39.8184 21.166C39.3663 20.3614 38.3469 20.0746 37.5416 20.5254L34.4613 22.2499C33.656 22.7008 33.3697 23.7186 33.8218 24.5231C34.2739 25.3278 35.2933 25.6146 36.0986 25.1636L39.179 23.4391C39.9842 22.9884 40.2705 21.9706 39.8184 21.166Z" fill="#FFC6A1"/>
<path d="M39.8184 24.9936C39.3663 24.189 38.3469 23.9022 37.5416 24.3531L34.4613 26.0776C33.656 26.5285 33.3697 27.5463 33.8218 28.3508C34.2739 29.1555 35.2933 29.4422 36.0986 28.9913L39.179 27.2668C39.9842 26.816 40.2705 25.7982 39.8184 24.9936Z" fill="#FDAA8E"/>
<path d="M39.8184 28.8208C39.3663 28.0161 38.3469 27.7293 37.5416 28.1803L34.4613 29.9048C33.656 30.3556 33.3697 31.3734 33.8218 32.178C34.2739 32.9826 35.2933 33.2694 36.0986 32.8185L39.179 31.094C39.9842 30.6431 40.2705 29.6254 39.8184 28.8208Z" fill="#FFC6A1"/>
<path d="M39.8184 32.6479C39.3663 31.8433 38.3469 31.5565 37.5416 32.0074L34.4613 33.7319C33.656 34.1827 33.3697 35.2006 33.8218 36.0051C34.2739 36.8098 35.2933 37.0965 36.0986 36.6456L39.179 34.9211C39.9842 34.4702 40.2705 33.4524 39.8184 32.6479Z" fill="#FDAA8E"/>
<path d="M40.2725 17.675H25.3993C23.2479 17.675 21.5039 15.931 21.5039 13.7797V4.39538C21.5039 2.24402 23.2479 0.5 25.3993 0.5H40.2725C42.4238 0.5 44.1679 2.24402 44.1679 4.39538V13.7797C44.1679 15.931 42.4238 17.675 40.2725 17.675Z" fill="#FFD54F"/>
<path d="M40.2731 0.5H37.6172C39.7685 0.5 41.5126 2.24402 41.5126 4.39538V13.7797C41.5126 15.931 39.7685 17.675 37.6172 17.675H40.2731C42.4244 17.675 44.1685 15.931 44.1685 13.7797V4.39538C44.1685 2.24402 42.4244 0.5 40.2731 0.5Z" fill="#FFC328"/>
<path d="M34.021 8.42594C33.8203 8.35522 33.6204 8.28223 33.4214 8.20697V5.03072C33.8316 5.12482 34.1127 5.31002 34.2258 5.39596C34.362 5.49925 34.5337 5.54424 34.703 5.52103C34.8724 5.49783 35.0256 5.40833 35.1289 5.27221C35.2323 5.13602 35.2773 4.96438 35.2541 4.79503C35.2309 4.62567 35.1413 4.47246 35.0052 4.36909C34.7963 4.21062 34.233 3.83963 33.4214 3.72129V3.06104C33.4214 2.705 33.1329 2.4165 32.7768 2.4165C32.4208 2.4165 32.1323 2.705 32.1323 3.06104V3.7683C32.0264 3.79111 31.9215 3.81814 31.8178 3.84934C30.8749 4.13345 30.1704 4.94049 29.9791 5.95575C29.8048 6.88079 30.1007 7.77247 30.7513 8.28277C31.1002 8.55639 31.5351 8.80699 32.1323 9.07211V13.0873C31.6051 13.0513 31.2455 12.9268 30.6518 12.5384C30.5087 12.4448 30.3343 12.4119 30.167 12.4468C29.9997 12.4818 29.8531 12.5818 29.7595 12.7249C29.6659 12.8679 29.633 13.0423 29.6679 13.2096C29.7029 13.377 29.8029 13.5236 29.946 13.6172C30.7976 14.1743 31.3779 14.3373 32.1322 14.3778V15.1145C32.1322 15.4705 32.4207 15.759 32.7768 15.759C33.1328 15.759 33.4213 15.4705 33.4213 15.1145V14.3273C34.9114 14.0421 35.7819 12.8169 35.9743 11.6724C36.2208 10.2067 35.4541 8.93246 34.021 8.42594ZM31.5469 7.26836C31.2764 7.05618 31.161 6.64463 31.2459 6.19432C31.3229 5.78525 31.5967 5.29257 32.1323 5.10351V7.6397C31.9114 7.52136 31.7118 7.3977 31.5469 7.26836ZM34.7031 11.4585C34.5986 12.0801 34.1628 12.7409 33.4214 12.9935V9.58043C33.4776 9.60062 33.5332 9.62073 33.5914 9.64127C34.8327 10.0801 34.7562 11.1431 34.7031 11.4585Z" fill="#43809F"/>
<path d="M13.2806 44.5001H8.65625C8.56508 44.5001 8.47765 44.4639 8.41318 44.3994C8.34872 44.3349 8.3125 44.2475 8.3125 44.1563V34.2305H13.6244V44.1563C13.6244 44.2475 13.5882 44.3349 13.5237 44.3994C13.4592 44.4639 13.3718 44.5001 13.2806 44.5001Z" fill="#D67B42"/>
<path d="M10.9688 34.2305V44.5001H13.2809C13.3721 44.5001 13.4595 44.4639 13.524 44.3994C13.5884 44.3349 13.6246 44.2475 13.6246 44.1563V34.2305H10.9688Z" fill="#BF6724"/>
<path d="M10.9688 36.8418C16.9339 36.8418 21.7696 32.0061 21.7696 26.041C21.7696 20.0759 16.9339 15.2402 10.9688 15.2402C5.00365 15.2402 0.167969 20.0759 0.167969 26.041C0.167969 32.0061 5.00365 36.8418 10.9688 36.8418Z" fill="#7BE492"/>
<path d="M10.9686 15.2402C10.519 15.2402 10.0759 15.2682 9.64062 15.3215C14.9791 15.9761 19.1134 20.5256 19.1134 26.041C19.1134 31.5565 14.9791 36.1059 9.64062 36.7605C10.0759 36.8139 10.5189 36.8418 10.9686 36.8418C16.9337 36.8418 21.7694 32.0061 21.7694 26.041C21.7694 20.0759 16.9337 15.2402 10.9686 15.2402Z" fill="#45D987"/>
<path d="M12.1537 25.8222C11.953 25.7515 11.7531 25.6785 11.5541 25.6032V22.427C11.9643 22.5211 12.2453 22.7063 12.3585 22.7923C12.4947 22.8956 12.6663 22.9406 12.8357 22.9174C13.005 22.8942 13.1582 22.8047 13.2616 22.6685C13.3649 22.5323 13.4099 22.3607 13.3867 22.1914C13.3635 22.022 13.274 21.8688 13.1379 21.7654C12.929 21.6069 12.3656 21.236 11.5541 21.1175V20.4573C11.5541 20.1012 11.2656 19.8127 10.9095 19.8127C10.5535 19.8127 10.265 20.1012 10.265 20.4573V21.1645C10.1591 21.1873 10.0542 21.2144 9.95046 21.2456C9.00755 21.5297 8.30303 22.3367 8.11174 23.352C7.93746 24.277 8.23334 25.1687 8.88397 25.679C9.23296 25.9526 9.66781 26.2032 10.265 26.4683V30.4838C9.73776 30.4479 9.37837 30.3231 8.78446 29.9346C8.71363 29.8883 8.63436 29.8564 8.55119 29.8407C8.46801 29.8249 8.38256 29.8258 8.29971 29.8431C8.21686 29.8604 8.13823 29.8939 8.06832 29.9416C7.9984 29.9893 7.93858 30.0504 7.89225 30.1212C7.79868 30.2643 7.76577 30.4386 7.80076 30.6059C7.83575 30.7733 7.93577 30.9198 8.07882 31.0134C8.93046 31.5705 9.51071 31.7336 10.2649 31.774V32.5107C10.2649 32.8667 10.5534 33.1552 10.9094 33.1552C11.2655 33.1552 11.554 32.8667 11.554 32.5107V31.7235C13.0441 31.4384 13.9146 30.2131 14.107 29.0686C14.3534 27.603 13.5867 26.3288 12.1537 25.8222ZM9.67958 24.6646C9.40905 24.4524 9.29364 24.0409 9.37854 23.5906C9.45563 23.1815 9.72934 22.6888 10.265 22.4998V25.0359C10.0441 24.9177 9.8445 24.794 9.67958 24.6646ZM12.8358 28.8547C12.7313 29.4762 12.2954 30.1372 11.5541 30.3897V26.9767C11.6103 26.9969 11.6659 27.017 11.7241 27.0375C12.9653 27.4763 12.8888 28.5394 12.8358 28.8547ZM38.3355 44.5H27.3369C27.2457 44.5 27.1583 44.4638 27.0938 44.3993C27.0294 44.3349 26.9932 44.2474 26.9932 44.1563V41.3336C26.9932 41.2424 27.0294 41.155 27.0938 41.0905C27.1583 41.026 27.2457 40.9898 27.3369 40.9898H38.3355C38.4267 40.9898 38.5141 41.026 38.5786 41.0905C38.6431 41.155 38.6793 41.2424 38.6793 41.3336V44.1563C38.6793 44.2474 38.6431 44.3349 38.5786 44.3993C38.5141 44.4638 38.4267 44.5 38.3355 44.5Z" fill="#43809F"/>
<path d="M36.0234 40.9897V44.4999H38.3356C38.4268 44.4999 38.5142 44.4637 38.5787 44.3993C38.6431 44.3348 38.6793 44.2474 38.6793 44.1562V41.3335C38.6793 41.2423 38.6431 41.1549 38.5787 41.0904C38.5142 41.026 38.4268 40.9897 38.3356 40.9897H36.0234Z" fill="#3A7190"/>
</svg>
