<svg width="45" height="45" viewBox="0 0 45 45" fill="none" xmlns="http://www.w3.org/2000/svg">
<path d="M22.5 44.5C34.6503 44.5 44.5 34.6503 44.5 22.5C44.5 10.3497 34.6503 0.5 22.5 0.5C10.3497 0.5 0.5 10.3497 0.5 22.5C0.5 34.6503 10.3497 44.5 22.5 44.5Z" fill="#E04F5F"/>
<path fill-rule="evenodd" clip-rule="evenodd" d="M23.6679 14.5587C26.2142 11.8049 30.3889 11.7955 32.9438 14.5587C35.4948 17.3177 35.4949 21.8318 32.9439 24.5908C29.6871 28.1132 26.4307 31.6352 23.1739 35.1576C22.9941 35.352 22.7659 35.4518 22.5009 35.4518C22.2359 35.4518 22.0078 35.352 21.8279 35.1576L12.0577 24.591C9.50681 21.8321 9.50681 17.3178 12.0577 14.559C14.6087 11.8 18.7827 11.8 21.3336 14.5589L22.5007 15.8211L23.6679 14.5587Z" fill="white"/>
</svg>
