<svg width="24" height="24" viewBox="0 0 24 24" fill="none" xmlns="http://www.w3.org/2000/svg">
<g clip-path="url(#clip0_1564_35687)">
<path d="M17.5 3C18.9587 3 20.3576 3.57946 21.3891 4.61091C22.4205 5.64236 23 7.04131 23 8.5C23 10.744 21.832 12.914 20.089 13.333C19.416 13.495 18.881 14.358 18.996 15.343C19.15 16.661 20.342 17.993 22.703 19.043C23.229 19.277 23.009 20.068 22.438 19.996C16.285 19.226 12.02 15.215 12 9.54C12 5.637 14.306 3 17.5 3ZM5.5 3C6.95869 3 8.35764 3.57946 9.38909 4.61091C10.4205 5.64236 11 7.04131 11 8.5C11 10.744 9.832 12.914 8.089 13.333C7.416 13.495 6.881 14.358 6.996 15.343C7.15 16.661 8.342 17.993 10.703 19.043C11.229 19.277 11.009 20.068 10.438 19.996C4.285 19.226 0.02 15.215 0 9.54C0 5.637 2.306 3 5.5 3Z" fill="#FAC14C"/>
</g>
<defs>
<clipPath id="clip0_1564_35687">
<rect width="24" height="24" fill="white"/>
</clipPath>
</defs>
</svg>
