<svg width="19" height="24" viewBox="0 0 19 24" fill="none" xmlns="http://www.w3.org/2000/svg">
<path d="M15.1711 0.00421784L13.328 0.566624C13.3095 0.572249 13.2896 0.572249 13.2711 0.566624L11.4279 0.00421784C11.4094 -0.00140595 11.3896 -0.00140595 11.3711 0.00421784L9.52794 0.566624C9.50945 0.572249 9.48961 0.572249 9.47111 0.566624L7.62798 0.00421784C7.60951 -0.00140595 7.58963 -0.00140595 7.57115 0.00421784L5.72827 0.566624C5.70977 0.572249 5.68994 0.572249 5.67144 0.566624L3.82841 0.00421784C3.80993 -0.00140595 3.79006 -0.00140595 3.77158 0.00421784L1.9284 0.566624C1.9099 0.572249 1.89007 0.572249 1.87157 0.566624L0.121128 0.0325303C0.107222 0.0282816 0.092453 0.0272087 0.0780261 0.0293992C0.0635993 0.0315896 0.049923 0.0369814 0.0381134 0.0451346C0.0263037 0.0532878 0.0166953 0.0639715 0.0100717 0.076314C0.00344804 0.0886565 -3.06852e-06 0.102308 2.04719e-09 0.116155V23.6357C2.04719e-09 23.7323 0.0404994 23.825 0.112589 23.8933C0.184679 23.9616 0.282454 24 0.384404 24H18.6156C18.7175 24 18.8153 23.9616 18.8874 23.8933C18.9595 23.825 19 23.7323 19 23.6357V0.116155C19 0.102308 18.9966 0.0886565 18.9899 0.076314C18.9833 0.0639715 18.9737 0.0532878 18.9619 0.0451346C18.9501 0.0369814 18.9364 0.0315896 18.922 0.0293992C18.9075 0.0272087 18.8928 0.0282816 18.8789 0.0325303L17.1281 0.566671C17.1097 0.572296 17.0898 0.572296 17.0713 0.566671L15.228 0.00421784C15.2095 -0.00140595 15.1896 -0.00140595 15.1711 0.00421784Z" fill="#F3E8D6"/>
<path d="M18.8612 0.00424461L18.2985 0.153483L16.8449 0.539016L16.8122 0.547698L16.7795 0.539016H16.7795L15.9899 0.329613L15.834 0.288267V24H18.5579C18.6754 24 18.788 23.9616 18.871 23.8932C18.954 23.8248 19.0007 23.732 19.0007 23.6353V0.0879683C19.0007 0.0741068 18.9967 0.0604392 18.9891 0.0480815C18.9815 0.0357238 18.9704 0.0250263 18.9568 0.0168624C18.9432 0.00869858 18.9275 0.00329982 18.9108 0.00110693C18.8942 -0.00108596 18.8772 -1.0809e-05 18.8612 0.00424461Z" fill="#CEBEAB"/>
<path d="M15.1541 21.6122C14.3371 21.5902 13.7227 21.1146 13.7227 20.7049C13.7227 20.5 13.8915 20.1927 14.1008 20.1927C14.3574 20.1927 14.5599 20.6683 15.1541 20.7414V19.2853C14.5396 19.0366 13.8442 18.7512 13.8442 17.8147C13.8442 16.8854 14.4789 16.483 15.1541 16.3878V16.183C15.1541 16.0878 15.2554 16 15.3837 16C15.4985 16 15.6132 16.0878 15.6132 16.183V16.3732C16.0521 16.3878 16.7678 16.5268 16.7678 16.9512C16.7678 17.1195 16.6598 17.4561 16.4099 17.4561C16.2209 17.4561 16.0656 17.222 15.6132 17.1854V18.4731C16.2142 18.7146 16.8893 19.0439 16.8893 20.039C16.8893 20.939 16.3694 21.4585 15.6132 21.5902V21.817C15.6132 21.9122 15.4985 22 15.3837 22C15.2554 22 15.1541 21.9122 15.1541 21.817V21.6122ZM15.208 18.3122V17.2073C14.8704 17.2659 14.6679 17.4415 14.6679 17.7195C14.6679 18.0415 14.8975 18.1805 15.208 18.3122ZM15.5591 19.461V20.7341C15.8562 20.6683 16.0655 20.4781 16.0655 20.1342C16.0655 19.7756 15.8495 19.6 15.5591 19.461Z" fill="#62B240"/>
<path d="M2.11133 2.19134C2.11133 2.08959 2.18465 2.00005 2.29653 2.00005H3.09528C3.6239 2.00005 4.04449 2.20763 4.04449 2.87114C4.04449 3.32704 3.84772 3.58755 3.57758 3.69742L4.04836 4.597C4.0638 4.62145 4.06767 4.64989 4.06767 4.67031C4.06767 4.82903 3.86703 5 3.68952 5C3.61233 5 3.53901 4.96743 3.49662 4.88197L2.96791 3.79921H2.71326V4.78022C2.71326 4.91046 2.56275 4.9756 2.41229 4.9756C2.26179 4.9756 2.11133 4.91046 2.11133 4.78022V2.19134ZM2.71326 2.5536V3.3107H3.09528C3.31136 3.3107 3.44256 3.21707 3.44256 2.93215C3.44256 2.64723 3.31136 2.5536 3.09528 2.5536H2.71326ZM5.1595 3.24153H5.7383C5.85406 3.24153 5.91963 3.35956 5.91963 3.48984C5.91963 3.59975 5.86562 3.72999 5.7383 3.72999H5.1595V4.42194H6.19359C6.30935 4.42194 6.37493 4.55218 6.37493 4.70283C6.37493 4.83306 6.32092 4.97555 6.19359 4.97555H4.81997C4.68877 4.97555 4.55757 4.91041 4.55757 4.78017V2.19542C4.55757 2.06519 4.68877 2.00005 4.81997 2.00005H6.19359C6.32092 2.00005 6.37493 2.14253 6.37493 2.27277C6.37493 2.42337 6.3093 2.55365 6.19359 2.55365H5.1595V3.24153ZM7.7216 2.5536C7.50164 2.5536 7.37432 2.68384 7.37432 2.96064V4.03931C7.37432 4.31606 7.50164 4.44635 7.72547 4.44635C8.03417 4.44635 8.05344 4.19803 8.06505 4.03931C8.07662 3.88871 8.20781 3.84797 8.36214 3.84797C8.57053 3.84797 8.66698 3.90494 8.66698 4.14922C8.66698 4.69058 8.25026 4.99995 7.69846 4.99995C7.19298 4.99995 6.77239 4.73943 6.77239 4.03936V2.96069C6.77239 2.26057 7.19298 2.00005 7.69846 2.00005C8.25026 2.00005 8.66698 2.29314 8.66698 2.81009C8.66698 3.05432 8.57053 3.11129 8.36602 3.11129C8.20394 3.11129 8.07279 3.06652 8.06505 2.92C8.06113 2.81412 8.04957 2.5536 7.7216 2.5536ZM9.76651 3.24153H10.3453C10.461 3.24153 10.5266 3.35956 10.5266 3.48984C10.5266 3.59975 10.4726 3.72999 10.3453 3.72999H9.76651V4.42194H10.8006C10.9164 4.42194 10.982 4.55218 10.982 4.70283C10.982 4.83306 10.928 4.97555 10.8006 4.97555H9.42697C9.29577 4.97555 9.16458 4.91041 9.16458 4.78017V2.19542C9.16458 2.06519 9.29577 2.00005 9.42697 2.00005H10.8006C10.9279 2.00005 10.982 2.14253 10.982 2.27277C10.982 2.42337 10.9164 2.55365 10.8006 2.55365H9.76651V3.24153ZM11.4371 2.19134C11.4371 2.05702 11.5876 2.00005 11.738 2.00005C11.8886 2.00005 12.039 2.05702 12.039 2.19134V4.78017C12.039 4.91041 11.8885 4.97555 11.738 4.97555C11.5875 4.97555 11.4371 4.91041 11.4371 4.78017V2.19134ZM12.6486 2.19134C12.6486 2.08959 12.7373 2.00005 12.8724 2.00005H13.6712C14.1805 2.00005 14.5818 2.2524 14.5818 2.93624V2.95661C14.5818 3.64044 14.1651 3.90096 13.6326 3.90096H13.2506V4.78017C13.2506 4.91041 13.1001 4.97555 12.9497 4.97555C12.7991 4.97555 12.6487 4.91041 12.6487 4.78017V2.19134H12.6486ZM13.2506 2.5536V3.4125H13.6325C13.8486 3.4125 13.9798 3.28226 13.9798 3.00546V2.96069C13.9798 2.68389 13.8486 2.55365 13.6325 2.55365H13.2506V2.5536ZM16.7078 2.00005C16.8351 2.00005 16.8891 2.14662 16.8891 2.28094C16.8891 2.43562 16.8235 2.56994 16.7078 2.56994H16.1753V4.78022C16.1753 4.91046 16.0248 4.9756 15.8743 4.9756C15.7238 4.9756 15.5734 4.91046 15.5734 4.78022V2.56989H15.0409C14.9251 2.56989 14.8595 2.43557 14.8595 2.28089C14.8595 2.14657 14.9135 2 15.0409 2L16.7078 2.00005Z" fill="#FC502A"/>
<path d="M10.9007 7H1.4442C1.34141 7 1.24283 7.04075 1.17015 7.11329C1.09747 7.18582 1.05664 7.2842 1.05664 7.38678C1.05664 7.48936 1.09747 7.58774 1.17015 7.66027C1.24283 7.73281 1.34141 7.77356 1.4442 7.77356H10.9007C11.1147 7.77356 11.2882 7.60038 11.2882 7.38678C11.2882 7.17318 11.1147 7 10.9007 7ZM10.9007 9.22686H1.4442C1.34141 9.22686 1.24283 9.26761 1.17015 9.34014C1.09747 9.41268 1.05664 9.51105 1.05664 9.61364C1.05664 9.71622 1.09747 9.81459 1.17015 9.88713C1.24283 9.95966 1.34141 10.0004 1.4442 10.0004H10.9007C11.1147 10.0004 11.2882 9.82724 11.2882 9.61364C11.2882 9.40003 11.1147 9.22686 10.9007 9.22686ZM10.9007 11.9502H1.4442C1.34141 11.9502 1.24283 11.991 1.17015 12.0635C1.09747 12.136 1.05664 12.2344 1.05664 12.337C1.05664 12.4396 1.09747 12.538 1.17015 12.6105C1.24283 12.683 1.34141 12.7238 1.4442 12.7238H10.9007C11.1147 12.7238 11.2882 12.5506 11.2882 12.337C11.2882 12.1234 11.1147 11.9502 10.9007 11.9502ZM10.9007 14.177H1.4442C1.34141 14.177 1.24283 14.2178 1.17015 14.2903C1.09747 14.3628 1.05664 14.4612 1.05664 14.5638C1.05664 14.6664 1.09747 14.7648 1.17015 14.8373C1.24283 14.9098 1.34141 14.9506 1.4442 14.9506H10.9007C11.1147 14.9506 11.2882 14.7774 11.2882 14.5638C11.2882 14.3502 11.1147 14.177 10.9007 14.177ZM16.5024 7H13.7015C13.4875 7 13.314 7.17318 13.314 7.38678C13.314 7.60038 13.4875 7.77356 13.7015 7.77356H16.5024C16.6052 7.77356 16.7038 7.73281 16.7765 7.66027C16.8491 7.58774 16.89 7.48936 16.89 7.38678C16.89 7.33599 16.88 7.28569 16.8605 7.23876C16.841 7.19183 16.8125 7.14919 16.7765 7.11327C16.7405 7.07735 16.6978 7.04886 16.6507 7.02943C16.6037 7.00999 16.5533 6.99999 16.5024 7ZM16.5024 9.22686H13.7015C13.4875 9.22686 13.314 9.40003 13.314 9.61364C13.314 9.82724 13.4875 10.0004 13.7015 10.0004H16.5024C16.7165 10.0004 16.89 9.82724 16.89 9.61364C16.89 9.40003 16.7165 9.22686 16.5024 9.22686ZM16.5024 11.9502H13.7015C13.4875 11.9502 13.314 12.1234 13.314 12.337C13.314 12.5506 13.4875 12.7238 13.7015 12.7238H16.5024C16.6052 12.7238 16.7038 12.683 16.7765 12.6105C16.8491 12.538 16.89 12.4396 16.89 12.337C16.89 12.2862 16.88 12.2359 16.8605 12.189C16.841 12.142 16.8125 12.0994 16.7765 12.0635C16.7405 12.0276 16.6978 11.9991 16.6507 11.9797C16.6037 11.9602 16.5533 11.9502 16.5024 11.9502ZM16.5024 14.177H13.7015C13.4875 14.177 13.314 14.3502 13.314 14.5638C13.314 14.7774 13.4875 14.9506 13.7015 14.9506H16.5024C16.6052 14.9506 16.7038 14.9098 16.7765 14.8373C16.8491 14.7648 16.89 14.6664 16.89 14.5638C16.89 14.513 16.88 14.4627 16.8605 14.4158C16.841 14.3689 16.8125 14.3262 16.7765 14.2903C16.7405 14.2544 16.6978 14.2259 16.6507 14.2065C16.6037 14.187 16.5533 14.177 16.5024 14.177ZM10.9007 17.9996H1.4442C1.34141 17.9996 1.24283 18.0403 1.17015 18.1129C1.09747 18.1854 1.05664 18.2838 1.05664 18.3864C1.05664 18.4889 1.09747 18.5873 1.17015 18.6599C1.24283 18.7324 1.34141 18.7731 1.4442 18.7731H10.9007C11.1147 18.7731 11.2882 18.6 11.2882 18.3864C11.2882 18.1728 11.1147 17.9996 10.9007 17.9996ZM10.9007 20.2264H1.4442C1.34141 20.2264 1.24283 20.2672 1.17015 20.3397C1.09747 20.4123 1.05664 20.5106 1.05664 20.6132C1.05664 20.7158 1.09747 20.8142 1.17015 20.8867C1.24283 20.9593 1.34141 21 1.4442 21H10.9007C11.1147 21 11.2882 20.8268 11.2882 20.6132C11.2882 20.3996 11.1147 20.2264 10.9007 20.2264Z" fill="#5C5469"/>
</svg>
