<svg width="65" height="64" viewBox="0 0 65 64" fill="none" xmlns="http://www.w3.org/2000/svg">
<path d="M61.3275 34L36.5 9.17252C36.1299 8.79947 35.6894 8.5037 35.204 8.30242C34.7186 8.10113 34.198 7.99834 33.6725 8.00002H10.5C9.96959 8.00002 9.46088 8.21073 9.08581 8.58581C8.71073 8.96088 8.50002 9.46959 8.50002 10V33.1725C8.49834 33.698 8.60113 34.2186 8.80242 34.704C9.0037 35.1894 9.29947 35.6299 9.67252 36L34.5 60.8275C34.8715 61.1991 35.3125 61.4938 35.7978 61.6948C36.2832 61.8959 36.8034 61.9994 37.3288 61.9994C37.8541 61.9994 38.3744 61.8959 38.8597 61.6948C39.3451 61.4938 39.7861 61.1991 40.1575 60.8275L61.3275 39.6575C61.6991 39.2861 61.9938 38.8451 62.1948 38.3597C62.3959 37.8744 62.4994 37.3541 62.4994 36.8288C62.4994 36.3034 62.3959 35.7832 62.1948 35.2978C61.9938 34.8125 61.6991 34.3715 61.3275 34ZM21.5 24C20.9067 24 20.3267 23.8241 19.8333 23.4944C19.34 23.1648 18.9554 22.6962 18.7284 22.1481C18.5013 21.5999 18.4419 20.9967 18.5577 20.4147C18.6734 19.8328 18.9591 19.2983 19.3787 18.8787C19.7983 18.4591 20.3328 18.1734 20.9147 18.0577C21.4967 17.9419 22.0999 18.0013 22.6481 18.2284C23.1962 18.4554 23.6648 18.84 23.9944 19.3333C24.3241 19.8267 24.5 20.4067 24.5 21C24.5 21.7957 24.1839 22.5587 23.6213 23.1213C23.0587 23.6839 22.2957 24 21.5 24Z" fill="#FFC107"/>
</svg>
