<svg width="16" height="18" viewBox="0 0 16 18" fill="none" xmlns="http://www.w3.org/2000/svg">
<path d="M11.3326 17.0008C11.3326 17.1776 11.2624 17.3472 11.1373 17.4722C11.0123 17.5973 10.8427 17.6675 10.6659 17.6675H5.33204C5.15521 17.6675 4.98563 17.5973 4.86059 17.4722C4.73556 17.3472 4.66531 17.1776 4.66531 17.0008C4.66531 16.8239 4.73556 16.6544 4.86059 16.5293C4.98563 16.4043 5.15521 16.334 5.33204 16.334H10.6659C10.8427 16.334 11.0123 16.4043 11.1373 16.5293C11.2624 16.6544 11.3326 16.8239 11.3326 17.0008ZM15.8205 14.3339C15.7049 14.5376 15.5369 14.7069 15.334 14.8241C15.1311 14.9413 14.9006 15.0022 14.6663 15.0006H1.33166C1.09725 15.0003 0.867069 14.9382 0.664311 14.8205C0.461553 14.7029 0.293386 14.5339 0.176759 14.3306C0.0601322 14.1272 -0.000832863 13.8967 8.59387e-06 13.6623C0.000850051 13.4279 0.0634684 13.1979 0.181552 12.9954C0.644096 12.1986 1.33166 9.9451 1.33166 6.99982C1.33166 5.23154 2.03411 3.53569 3.28447 2.28533C4.53483 1.03497 6.23068 0.33252 7.99896 0.33252C9.76724 0.33252 11.4631 1.03497 12.7135 2.28533C13.9638 3.53569 14.6663 5.23154 14.6663 6.99982C14.6663 9.94427 15.3547 12.1986 15.8172 12.9954C15.9365 13.1982 15.9996 13.429 16 13.6643C16.0004 13.8995 15.9382 14.1306 15.8197 14.3339H15.8205ZM14.6663 13.6671C14.022 12.5612 13.3328 10.0043 13.3328 6.99982C13.3328 5.5852 12.7708 4.22851 11.7706 3.22823C10.7703 2.22794 9.41359 1.66598 7.99896 1.66598C6.58434 1.66598 5.22766 2.22794 4.22737 3.22823C3.22708 4.22851 2.66512 5.5852 2.66512 6.99982C2.66512 10.0051 1.97506 12.562 1.33166 13.6671H14.6663Z" fill="black"/>
</svg>
