<svg width="17" height="17" viewBox="0 0 17 17" fill="none" xmlns="http://www.w3.org/2000/svg">
<rect width="17" height="17" rx="8.5" fill="white"/>
<path fill-rule="evenodd" clip-rule="evenodd" d="M7.90625 5.71875C6.69813 5.71875 5.71875 6.69813 5.71875 7.90625C5.71875 9.11437 6.69813 10.0938 7.90625 10.0938C9.11437 10.0938 10.0938 9.11437 10.0938 7.90625C10.0938 6.69813 9.11437 5.71875 7.90625 5.71875ZM4.625 7.90625C4.625 6.09407 6.09407 4.625 7.90625 4.625C9.71843 4.625 11.1875 6.09407 11.1875 7.90625C11.1875 8.61491 10.9628 9.27109 10.5809 9.80748L13.2148 12.4414C13.4284 12.655 13.4284 13.0013 13.2148 13.2148C13.0013 13.4284 12.655 13.4284 12.4414 13.2148L9.80748 10.5809C9.27109 10.9628 8.61491 11.1875 7.90625 11.1875C6.09407 11.1875 4.625 9.71843 4.625 7.90625Z" fill="black"/>
</svg>
