<svg width="32" height="32" viewBox="0 0 32 32" fill="none" xmlns="http://www.w3.org/2000/svg">
<path d="M16.0002 9.99989C14.8135 9.99989 13.6535 10.3518 12.6668 11.0111C11.6801 11.6704 10.9111 12.6074 10.457 13.7038C10.0028 14.8002 9.88402 16.0066 10.1155 17.1704C10.347 18.3343 10.9185 19.4034 11.7576 20.2425C12.5967 21.0817 13.6658 21.6531 14.8297 21.8846C15.9936 22.1161 17.2 21.9973 18.2963 21.5432C19.3927 21.089 20.3298 20.32 20.9891 19.3333C21.6483 18.3466 22.0002 17.1866 22.0002 15.9999C21.9986 14.4091 21.3659 12.8839 20.2411 11.7591C19.1162 10.6342 17.591 10.0015 16.0002 9.99989ZM16.0002 19.9999C15.2091 19.9999 14.4358 19.7653 13.778 19.3258C13.1202 18.8862 12.6075 18.2615 12.3047 17.5306C12.002 16.7997 11.9228 15.9955 12.0771 15.2195C12.2314 14.4436 12.6124 13.7309 13.1718 13.1715C13.7312 12.6121 14.444 12.2311 15.2199 12.0768C15.9958 11.9224 16.8001 12.0016 17.531 12.3044C18.2619 12.6071 18.8866 13.1198 19.3261 13.7776C19.7656 14.4354 20.0002 15.2088 20.0002 15.9999C20.0002 17.0608 19.5788 18.0782 18.8287 18.8283C18.0785 19.5785 17.0611 19.9999 16.0002 19.9999ZM29.7427 13.4011C29.7149 13.2603 29.657 13.1272 29.5731 13.0107C29.4892 12.8942 29.3812 12.7972 29.2565 12.7261L25.5277 10.6011L25.5127 6.39864C25.5123 6.25391 25.4804 6.111 25.4193 5.97979C25.3583 5.84857 25.2694 5.73218 25.159 5.63864C23.8064 4.49452 22.2488 3.61773 20.569 3.05489C20.4367 3.01012 20.2965 2.99355 20.1574 3.00625C20.0184 3.01895 19.8835 3.06065 19.7615 3.12864L16.0002 5.23114L12.2352 3.12489C12.1132 3.05651 11.9781 3.01451 11.8388 3.00159C11.6995 2.98867 11.559 3.00513 11.4265 3.04989C9.74792 3.61684 8.1921 4.49698 6.84149 5.64364C6.7312 5.73704 6.64246 5.85323 6.58139 5.98422C6.52032 6.11521 6.48837 6.25787 6.48774 6.40239L6.46899 10.6086L2.74024 12.7336C2.61549 12.8047 2.50749 12.9017 2.42359 13.0182C2.33969 13.1347 2.28184 13.2678 2.25399 13.4086C1.91273 15.1235 1.91273 16.8888 2.25399 18.6036C2.28184 18.7445 2.33969 18.8776 2.42359 18.9941C2.50749 19.1106 2.61549 19.2076 2.74024 19.2786L6.46899 21.4036L6.48399 25.6061C6.48444 25.7509 6.51631 25.8938 6.57738 26.025C6.63846 26.1562 6.72729 26.2726 6.83774 26.3661C8.19033 27.5103 9.74793 28.3871 11.4277 28.9499C11.56 28.9947 11.7002 29.0112 11.8393 28.9985C11.9784 28.9858 12.1133 28.9441 12.2352 28.8761L16.0002 26.7686L19.7652 28.8749C19.9142 28.9579 20.0822 29.001 20.2527 28.9999C20.362 28.9999 20.4704 28.9821 20.574 28.9474C22.2524 28.3812 23.8082 27.5019 25.159 26.3561C25.2693 26.2627 25.358 26.1466 25.4191 26.0156C25.4802 25.8846 25.5121 25.7419 25.5127 25.5974L25.5315 21.3911L29.2602 19.2661C29.385 19.1951 29.493 19.0981 29.5769 18.9816C29.6608 18.8651 29.7186 18.732 29.7465 18.5911C30.0858 16.8777 30.0846 15.1141 29.7427 13.4011ZM27.8677 17.7649L24.2965 19.7961C24.14 19.8851 24.0105 20.0147 23.9215 20.1711C23.849 20.2961 23.7727 20.4286 23.6952 20.5536C23.596 20.7113 23.5432 20.8936 23.5427 21.0799L23.524 25.1111C22.5641 25.865 21.4947 26.4677 20.3527 26.8986L16.7502 24.8911C16.6007 24.8084 16.4324 24.7654 16.2615 24.7661H16.2377C16.0865 24.7661 15.934 24.7661 15.7827 24.7661C15.6038 24.7617 15.427 24.8048 15.2702 24.8911L11.6652 26.9036C10.5209 26.4761 9.44852 25.8762 8.48524 25.1249L8.47149 21.0999C8.47087 20.9133 8.41805 20.7306 8.31899 20.5724C8.24149 20.4474 8.16524 20.3224 8.09399 20.1899C8.00564 20.031 7.8761 19.8989 7.71899 19.8074L4.14399 17.7711C3.95899 16.6009 3.95899 15.4089 4.14399 14.2386L7.70899 12.2036C7.86546 12.1147 7.99502 11.9851 8.08399 11.8286C8.15649 11.7036 8.23274 11.5711 8.31024 11.4461C8.40944 11.2885 8.46229 11.1061 8.46274 10.9199L8.48149 6.88864C9.4414 6.13483 10.5108 5.53204 11.6527 5.10114L15.2502 7.10864C15.4068 7.19543 15.5838 7.2386 15.7627 7.23364C15.914 7.23364 16.0665 7.23364 16.2177 7.23364C16.3966 7.23811 16.5735 7.19498 16.7302 7.10864L20.3352 5.09614C21.4796 5.52374 22.552 6.12357 23.5152 6.87489L23.529 10.8999C23.5296 11.0865 23.5824 11.2692 23.6815 11.4274C23.759 11.5524 23.8352 11.6774 23.9065 11.8099C23.9948 11.9688 24.1244 12.1009 24.2815 12.1924L27.8565 14.2286C28.044 15.3998 28.0461 16.5931 27.8627 17.7649H27.8677Z" fill="white"/>
</svg>
