<svg width="24" height="24" viewBox="0 0 24 24" fill="none" xmlns="http://www.w3.org/2000/svg">
<path d="M11.7473 9.1356H4.55859V0.268614C4.55859 0.197373 4.58687 0.12905 4.63721 0.0786752C4.68754 0.0283003 4.75581 0 4.827 0H11.4789C11.5501 0 11.6183 0.0283003 11.6687 0.0786752C11.719 0.12905 11.7473 0.197373 11.7473 0.268614L11.7473 9.1356Z" fill="#EAB14D"/>
<path d="M10.916 0V9.1356H11.7479V0.268661C11.7479 0.19742 11.7196 0.129097 11.6692 0.0787221C11.6188 0.0283472 11.5505 4.69114e-05 11.4793 4.69114e-05H10.916V0Z" fill="#E49542"/>
<path d="M8.60761 2.06977H7.69856C7.67018 2.06978 7.64207 2.06419 7.61584 2.05332C7.58962 2.04245 7.56579 2.02652 7.54571 2.00643C7.52564 1.98634 7.50972 1.9625 7.49886 1.93625C7.488 1.91 7.48242 1.88187 7.48242 1.85346V0H8.82375V1.85346C8.82375 1.91083 8.80098 1.96585 8.76044 2.00642C8.71991 2.04698 8.66493 2.06977 8.60761 2.06977Z" fill="#DF6B57"/>
<path d="M20.0009 17.051H8.98438V6.17193C8.98438 6.11688 8.99521 6.06236 9.01626 6.01149C9.03732 5.96063 9.06817 5.91441 9.10707 5.87548C9.14597 5.83655 9.19216 5.80567 9.24298 5.7846C9.29381 5.76353 9.34828 5.75269 9.4033 5.75269H19.7325C19.8037 5.75269 19.8719 5.78099 19.9223 5.83136C19.9726 5.88174 20.0009 5.95006 20.0009 6.0213V17.051Z" fill="#F1CB86"/>
<path d="M19.1699 5.75269V17.051H20.0018V6.0213C20.0018 5.95006 19.9735 5.88174 19.9231 5.83136C19.8727 5.78099 19.8044 5.75269 19.7332 5.75269H19.1699Z" fill="#ECBE6B"/>
<path d="M14.9475 7.82246H14.0384C14.01 7.82246 13.9819 7.81687 13.9557 7.80601C13.9295 7.79514 13.9056 7.7792 13.8856 7.75912C13.8655 7.73903 13.8496 7.71518 13.8387 7.68893C13.8278 7.66269 13.8223 7.63456 13.8223 7.60615V5.75269H15.1636V7.60615C15.1636 7.63456 15.158 7.66269 15.1472 7.68893C15.1363 7.71518 15.1204 7.73903 15.1003 7.75912C15.0802 7.7792 15.0564 7.79514 15.0302 7.80601C15.0039 7.81687 14.9758 7.82246 14.9475 7.82246Z" fill="#365E7D"/>
<path d="M12.9835 23.9999H0.343219C0.252191 23.9999 0.164892 23.9637 0.100526 23.8993C0.0361604 23.8349 0 23.7475 0 23.6564V15.3865C0 15.3153 0.0282784 15.247 0.0786144 15.1966C0.12895 15.1462 0.19722 15.1179 0.268406 15.1179H12.6981C12.7356 15.1179 12.7727 15.1253 12.8073 15.1397C12.8419 15.154 12.8734 15.175 12.8999 15.2016C12.9264 15.2281 12.9474 15.2596 12.9618 15.2942C12.9761 15.3289 12.9835 15.366 12.9835 15.4035V23.9999Z" fill="#EAB14D"/>
<path d="M12.1523 15.1179V23.9999H12.9842V15.4035C12.9842 15.3278 12.9541 15.2551 12.9006 15.2016C12.847 15.148 12.7744 15.1179 12.6986 15.1179H12.1523Z" fill="#E49542"/>
<path d="M6.94648 17.1877H6.03743C6.00904 17.1877 5.98094 17.1821 5.95471 17.1712C5.92848 17.1604 5.90465 17.1444 5.88458 17.1244C5.86451 17.1043 5.84859 17.0804 5.83773 17.0542C5.82687 17.0279 5.82128 16.9998 5.82129 16.9714V15.1179H7.16262V16.9714C7.16262 16.9998 7.15704 17.0279 7.14618 17.0542C7.13532 17.0804 7.1194 17.1043 7.09933 17.1244C7.07925 17.1444 7.05542 17.1604 7.0292 17.1712C7.00297 17.1821 6.97486 17.1877 6.94648 17.1877Z" fill="#365E7D"/>
<path d="M23.6567 23.9999H12.9834V17.051H23.7315C23.8027 17.051 23.871 17.0793 23.9213 17.1297C23.9716 17.1801 23.9999 17.2484 23.9999 17.3196V23.6564C23.9999 23.7475 23.9638 23.8349 23.8994 23.8993C23.835 23.9637 23.7477 23.9999 23.6567 23.9999Z" fill="#EAB14D"/>
<path d="M23.1689 17.051V23.9999H23.6573C23.7484 23.9999 23.8358 23.9638 23.9002 23.8993C23.9646 23.8349 24.0008 23.7476 24.0008 23.6565V17.3197C24.0008 17.2484 23.9725 17.1801 23.9221 17.1297C23.8718 17.0794 23.8034 17.0511 23.7322 17.0511H23.1689V17.051Z" fill="#E49542"/>
<path d="M18.9465 19.1208H18.0374C18.009 19.1208 17.9809 19.1152 17.9547 19.1043C17.9285 19.0935 17.9047 19.0775 17.8846 19.0575C17.8645 19.0374 17.8486 19.0135 17.8377 18.9873C17.8269 18.961 17.8213 18.9329 17.8213 18.9045V17.051H19.1626V18.9045C19.1626 18.9329 19.157 18.961 19.1462 18.9873C19.1353 19.0135 19.1194 19.0374 19.0993 19.0575C19.0793 19.0775 19.0554 19.0935 19.0292 19.1043C19.003 19.1152 18.9749 19.1208 18.9465 19.1208Z" fill="#DF6B57"/>
<path d="M8.9846 15.1181H1.7959V9.40436C1.7959 9.33312 1.82418 9.26479 1.87451 9.21442C1.92485 9.16404 1.99312 9.13574 2.0643 9.13574H8.9846V15.1181Z" fill="#F1CB86"/>
<path d="M8.15332 9.13574H8.9852V15.1181H8.15332V9.13574Z" fill="#ECBE6B"/>
<path d="M5.84491 11.2055H4.93587C4.90748 11.2055 4.87937 11.1999 4.85315 11.1891C4.82692 11.1782 4.80309 11.1623 4.78302 11.1422C4.76295 11.1221 4.74703 11.0982 4.73617 11.072C4.72531 11.0457 4.71972 11.0176 4.71973 10.9892V9.13574H6.06105V10.9892C6.06106 11.0176 6.05547 11.0457 6.04461 11.072C6.03375 11.0982 6.01783 11.1221 5.99776 11.1422C5.97769 11.1623 5.95386 11.1782 5.92763 11.1891C5.90141 11.1999 5.8733 11.2055 5.84491 11.2055Z" fill="#DF6B57"/>
</svg>
