<svg width="24" height="24" viewBox="0 0 24 24" fill="none" xmlns="http://www.w3.org/2000/svg">
<g clip-path="url(#clip0_1564_35757)">
<path d="M13.85 1.2V8.60002C13.85 9.25003 13.3 9.80002 12.65 9.80002H6.3L1.59998 12.25V9.79997H1.2C0.549984 9.79997 0 9.24998 0 8.59997V1.2C0 0.549984 0.549984 0 1.2 0H12.7C13.35 0 13.85 0.549984 13.85 1.2Z" fill="#F3705A"/>
<path d="M3.25018 6.20007C3.96814 6.20007 4.55016 5.61804 4.55016 4.90008C4.55016 4.18212 3.96814 3.6001 3.25018 3.6001C2.53222 3.6001 1.9502 4.18212 1.9502 4.90008C1.9502 5.61804 2.53222 6.20007 3.25018 6.20007Z" fill="white"/>
<path d="M6.95038 6.20007C7.66834 6.20007 8.25036 5.61804 8.25036 4.90008C8.25036 4.18212 7.66834 3.6001 6.95038 3.6001C6.23241 3.6001 5.65039 4.18212 5.65039 4.90008C5.65039 5.61804 6.23241 6.20007 6.95038 6.20007Z" fill="white"/>
<path d="M10.6496 6.20007C11.3676 6.20007 11.9496 5.61804 11.9496 4.90008C11.9496 4.18212 11.3676 3.6001 10.6496 3.6001C9.93163 3.6001 9.34961 4.18212 9.34961 4.90008C9.34961 5.61804 9.93163 6.20007 10.6496 6.20007Z" fill="white"/>
<path d="M10.1504 4.14995V11.5C10.1504 12.15 10.7004 12.7 11.3504 12.7H17.7504L22.4504 15.15V12.7H22.8004C23.4504 12.7 24.0004 12.15 24.0004 11.5V4.14995C24.0004 3.49994 23.4504 2.94995 22.8004 2.94995H11.3004C10.6504 2.94995 10.1504 3.49998 10.1504 4.14995Z" fill="#FFD15C"/>
<path d="M20.7502 9.15002C21.4681 9.15002 22.0502 8.56799 22.0502 7.85003C22.0502 7.13207 21.4681 6.55005 20.7502 6.55005C20.0322 6.55005 19.4502 7.13207 19.4502 7.85003C19.4502 8.56799 20.0322 9.15002 20.7502 9.15002Z" fill="white"/>
<path d="M17.05 9.15002C17.7679 9.15002 18.35 8.56799 18.35 7.85003C18.35 7.13207 17.7679 6.55005 17.05 6.55005C16.332 6.55005 15.75 7.13207 15.75 7.85003C15.75 8.56799 16.332 9.15002 17.05 9.15002Z" fill="white"/>
<path d="M13.3498 9.15002C14.0678 9.15002 14.6498 8.56799 14.6498 7.85003C14.6498 7.13207 14.0678 6.55005 13.3498 6.55005C12.6318 6.55005 12.0498 7.13207 12.0498 7.85003C12.0498 8.56799 12.6318 9.15002 13.3498 9.15002Z" fill="white"/>
<path d="M17.3998 13V20.4001C17.3998 21.0501 16.8498 21.6001 16.1998 21.6001H12.2498L10.4498 24.0001L8.64981 21.55H4.7498C4.09979 21.55 3.5498 21.0001 3.5498 20.35V13C3.5498 12.35 4.09979 11.8 4.7498 11.8H16.2498C16.8998 11.8 17.3998 12.3501 17.3998 13Z" fill="#66C6B9"/>
<path d="M14.1496 18.0001C14.8676 18.0001 15.4496 17.4181 15.4496 16.7001C15.4496 15.9822 14.8676 15.4001 14.1496 15.4001C13.4316 15.4001 12.8496 15.9822 12.8496 16.7001C12.8496 17.4181 13.4316 18.0001 14.1496 18.0001Z" fill="white"/>
<path d="M10.5002 18.0001C11.2181 18.0001 11.8002 17.4181 11.8002 16.7001C11.8002 15.9822 11.2181 15.4001 10.5002 15.4001C9.78222 15.4001 9.2002 15.9822 9.2002 16.7001C9.2002 17.4181 9.78222 18.0001 10.5002 18.0001Z" fill="white"/>
<path d="M6.79998 18.0001C7.51795 18.0001 8.09997 17.4181 8.09997 16.7001C8.09997 15.9822 7.51795 15.4001 6.79998 15.4001C6.08202 15.4001 5.5 15.9822 5.5 16.7001C5.5 17.4181 6.08202 18.0001 6.79998 18.0001Z" fill="white"/>
</g>
<defs>
<clipPath id="clip0_1564_35757">
<rect width="24" height="24" fill="white"/>
</clipPath>
</defs>
</svg>
