<svg width="65" height="64" viewBox="0 0 65 64" fill="none" xmlns="http://www.w3.org/2000/svg">
<path d="M36.5 24V20H32.5C31.9696 20 31.4609 20.2107 31.0858 20.5858C30.7107 20.9609 30.5 21.4696 30.5 22V42C30.5 42.5304 30.7107 43.0391 31.0858 43.4142C31.4609 43.7893 31.9696 44 32.5 44H36.5V40C36.5 38.9391 36.9214 37.9217 37.6716 37.1716C38.4217 36.4214 39.4391 36 40.5 36H52.5C53.5609 36 54.5783 36.4214 55.3284 37.1716C56.0786 37.9217 56.5 38.9391 56.5 40V52C56.5 53.0609 56.0786 54.0783 55.3284 54.8284C54.5783 55.5786 53.5609 56 52.5 56H40.5C39.4391 56 38.4217 55.5786 37.6716 54.8284C36.9214 54.0783 36.5 53.0609 36.5 52V48H32.5C30.9087 48 29.3826 47.3679 28.2574 46.2426C27.1321 45.1174 26.5 43.5913 26.5 42V34H18.5V36C18.5 37.0609 18.0786 38.0783 17.3284 38.8284C16.5783 39.5786 15.5609 40 14.5 40H6.5C5.43913 40 4.42172 39.5786 3.67157 38.8284C2.92143 38.0783 2.5 37.0609 2.5 36V28C2.5 26.9391 2.92143 25.9217 3.67157 25.1716C4.42172 24.4214 5.43913 24 6.5 24H14.5C15.5609 24 16.5783 24.4214 17.3284 25.1716C18.0786 25.9217 18.5 26.9391 18.5 28V30H26.5V22C26.5 20.4087 27.1321 18.8826 28.2574 17.7574C29.3826 16.6321 30.9087 16 32.5 16H36.5V12C36.5 10.9391 36.9214 9.92172 37.6716 9.17157C38.4217 8.42143 39.4391 8 40.5 8H52.5C53.5609 8 54.5783 8.42143 55.3284 9.17157C56.0786 9.92172 56.5 10.9391 56.5 12V24C56.5 25.0609 56.0786 26.0783 55.3284 26.8284C54.5783 27.5786 53.5609 28 52.5 28H40.5C39.4391 28 38.4217 27.5786 37.6716 26.8284C36.9214 26.0783 36.5 25.0609 36.5 24Z" fill="#FFC107"/>
</svg>
