<svg width="24" height="18" viewBox="0 0 24 18" fill="none" xmlns="http://www.w3.org/2000/svg">
<path d="M20.4566 4.72461H15.501V13.7064H23.6203V9.66369L22.6734 6.39097C22.3879 5.40405 21.484 4.72461 20.4566 4.72461Z" fill="#FF7058"/>
<path d="M22.4349 9.62126L21.591 6.70401C21.4455 6.20253 20.9791 5.85156 20.4566 5.85156H16.6289V9.62126H22.4349Z" fill="#84DBFF"/>
<path d="M22.436 9.61931H16.627V5.84961L22.436 9.61931Z" fill="#CDD6E0"/>
<path d="M22.4349 9.62126L21.591 6.70401C21.4455 6.20253 20.9791 5.85156 20.4566 5.85156H16.6289L22.4349 9.62126Z" fill="#F2F2F2"/>
<path d="M1.49987 0.214844H14.0008C14.8287 0.214844 15.5007 0.886272 15.5007 1.71472V13.7052H0V1.71472C0 0.886319 0.671428 0.214844 1.49987 0.214844Z" fill="#FFD15C"/>
<path d="M10.1595 0.216797V4.17993L9.57948 3.6L8.97156 4.20796L8.36411 3.6L7.75666 4.20796L7.14818 3.6L6.53277 4.20796L5.92579 3.6L5.33887 4.18696V0.216797H10.1595Z" fill="#F2F2F2"/>
<path d="M23.9999 13.7052V15.4H0.00195312V13.7052H2.50674C3.09169 12.6553 4.2166 11.9453 5.50649 11.9453C6.79137 11.9453 7.91627 12.6553 8.50624 13.7052H16.5656C17.1505 12.6553 18.2699 11.9453 19.5598 11.9453C20.8497 11.9453 21.9696 12.6553 22.5596 13.7052H23.9999Z" fill="#334A5E"/>
<path d="M21.9556 15.3894C21.9556 16.7123 20.8832 17.7847 19.5603 17.7847C18.2374 17.7847 17.166 16.7123 17.166 15.3894C17.166 14.0666 18.2379 12.9941 19.5603 12.9941C20.8837 12.9941 21.9556 14.0666 21.9556 15.3894Z" fill="#40596B"/>
<path d="M20.5225 15.3897C20.5225 15.9211 20.0915 16.3516 19.5606 16.3516C19.0291 16.3516 18.5977 15.9211 18.5977 15.3897C18.5977 14.8582 19.0286 14.4277 19.5606 14.4277C20.0915 14.4273 20.5225 14.8582 20.5225 15.3897Z" fill="#ACB3BA"/>
<path d="M7.89997 15.3894C7.89997 16.7123 6.82705 17.7847 5.50467 17.7847C4.18178 17.7847 3.10938 16.7123 3.10938 15.3894C3.10938 14.0666 4.18178 12.9941 5.50467 12.9941C6.82705 12.9941 7.89997 14.0666 7.89997 15.3894Z" fill="#40596B"/>
<path d="M6.46633 15.3897C6.46633 15.9211 6.03587 16.3516 5.5044 16.3516C4.97292 16.3516 4.54199 15.9211 4.54199 15.3897C4.54199 14.8582 4.97297 14.4277 5.5044 14.4277C6.03582 14.4277 6.46633 14.8582 6.46633 15.3897Z" fill="#ACB3BA"/>
</svg>
