<svg width="22" height="28" viewBox="0 0 22 28" fill="none" xmlns="http://www.w3.org/2000/svg">
<path d="M9.625 17.955V22.4C9.625 22.7967 9.757 23.1289 10.021 23.3968C10.2841 23.6656 10.6104 23.8 11 23.8C11.3896 23.8 11.7164 23.6656 11.9804 23.3968C12.2435 23.1289 12.375 22.7967 12.375 22.4V17.955L13.6125 19.215C13.75 19.355 13.9049 19.46 14.0772 19.53C14.2487 19.6 14.4205 19.6289 14.5929 19.6168C14.7643 19.6056 14.9302 19.565 15.0906 19.495C15.251 19.425 15.4 19.32 15.5375 19.18C15.7896 18.9 15.9216 18.5733 15.9335 18.2C15.9445 17.8267 15.8125 17.5 15.5375 17.22L11.9625 13.58C11.825 13.44 11.676 13.3406 11.5156 13.2818C11.3552 13.2239 11.1833 13.195 11 13.195C10.8167 13.195 10.6448 13.2239 10.4844 13.2818C10.324 13.3406 10.175 13.44 10.0375 13.58L6.4625 17.22C6.1875 17.5 6.05596 17.8267 6.06787 18.2C6.07888 18.5733 6.22188 18.9 6.49688 19.18C6.77188 19.4367 7.09271 19.5711 7.45938 19.5832C7.82604 19.5944 8.14688 19.46 8.42188 19.18L9.625 17.955ZM2.75 28C1.99375 28 1.34658 27.7261 0.8085 27.1782C0.2695 26.6294 0 25.97 0 25.2V2.8C0 2.03 0.2695 1.3706 0.8085 0.8218C1.34658 0.273933 1.99375 0 2.75 0H12.6156C12.9823 0 13.332 0.0700001 13.6647 0.21C13.9966 0.35 14.2885 0.548333 14.5406 0.805L21.2094 7.595C21.4615 7.85167 21.6562 8.14893 21.7938 8.4868C21.9312 8.8256 22 9.18167 22 9.555V25.2C22 25.97 21.731 26.6294 21.1929 27.1782C20.6539 27.7261 20.0063 28 19.25 28H2.75ZM12.375 8.4C12.375 8.79667 12.507 9.12893 12.771 9.3968C13.0341 9.6656 13.3604 9.8 13.75 9.8H19.25L12.375 2.8V8.4Z" fill="#8D8E99"/>
</svg>
