<svg width="32" height="32" viewBox="0 0 32 32" fill="none" xmlns="http://www.w3.org/2000/svg">
<g clip-path="url(#clip0_1564_35503)">
<path d="M22.3462 14.8462C22.3462 16.1013 21.974 17.3283 21.2766 18.3719C20.5793 19.4155 19.5882 20.2289 18.4286 20.7092C17.269 21.1896 15.993 21.3152 14.7619 21.0704C13.5309 20.8255 12.4001 20.2211 11.5126 19.3336C10.6251 18.446 10.0207 17.3153 9.77579 16.0842C9.53092 14.8532 9.6566 13.5772 10.1369 12.4176C10.6172 11.258 11.4307 10.2668 12.4743 9.56952C13.5179 8.87219 14.7449 8.5 16 8.5C17.6825 8.50191 19.2956 9.17113 20.4853 10.3609C21.675 11.5506 22.3442 13.1636 22.3462 14.8462ZM31 16C31 18.9667 30.1203 21.8668 28.472 24.3335C26.8238 26.8003 24.4811 28.7229 21.7403 29.8582C18.9994 30.9935 15.9834 31.2906 13.0736 30.7118C10.1639 30.133 7.49119 28.7044 5.3934 26.6066C3.29562 24.5088 1.86701 21.8361 1.28823 18.9264C0.709449 16.0166 1.0065 13.0006 2.14181 10.2597C3.27713 7.51886 5.19971 5.17618 7.66645 3.52796C10.1332 1.87973 13.0333 1 16 1C19.977 1.0042 23.7898 2.5859 26.602 5.39804C29.4141 8.21017 30.9958 12.023 31 16ZM28.6923 16C28.6905 14.2916 28.3441 12.6012 27.674 11.0297C27.0038 9.45831 26.0236 8.03816 24.792 6.85423C23.5604 5.6703 22.1027 4.74691 20.5061 4.13927C18.9094 3.53163 17.2066 3.25224 15.4995 3.31779C8.70625 3.58029 3.28895 9.23846 3.3077 16.0361C3.31421 19.1306 4.45552 22.1152 6.51539 24.4245C7.35427 23.2078 8.41987 22.1642 9.65385 21.351C9.75906 21.2815 9.88413 21.2484 10.0099 21.2567C10.1358 21.265 10.2554 21.3144 10.3505 21.3971C11.9185 22.7534 13.9225 23.4998 15.9957 23.4998C18.0689 23.4998 20.0728 22.7534 21.6409 21.3971C21.736 21.3144 21.8556 21.265 21.9814 21.2567C22.1072 21.2484 22.2323 21.2815 22.3375 21.351C23.573 22.1638 24.6401 23.2074 25.4803 24.4245C27.5503 22.1068 28.6939 19.1076 28.6923 16Z" fill="#AAAAAA"/>
</g>
<defs>
<clipPath id="clip0_1564_35503">
<rect width="32" height="32" fill="white"/>
</clipPath>
</defs>
</svg>
