<svg width="24" height="24" viewBox="0 0 24 24" fill="none" xmlns="http://www.w3.org/2000/svg">
<g clip-path="url(#clip0_1564_35697)">
<path d="M2.50488 14.4624H4.52948V16.9411H2.50488V14.4624Z" fill="#FFDFCF"/>
<path d="M3.80859 14.4624H4.52956V16.9416H3.80859V14.4624Z" fill="#FFCEBF"/>
<path d="M7.0334 17.3465V21.3338L4.97819 23.1558H0.523461C0.234205 23.1558 0 22.9211 0 22.6323V21.3338L0.381972 20.5317L0 19.7296V17.714C0 17.4914 0.133763 17.2905 0.339477 17.205L2.50431 16.304H4.52909L5.8334 16.8467L7.0334 17.3465Z" fill="#FEA613"/>
<path d="M7.03293 17.3465V21.3338L4.97772 23.1557H4.25241L5.83293 16.8467L7.03293 17.3465ZM3.87864 17.5218V23.1557H3.1543V17.5218C3.1543 17.3214 3.31607 17.1596 3.51647 17.1596C3.71639 17.1596 3.87864 17.3214 3.87864 17.5218Z" fill="#FE9901"/>
<path d="M4.70115 15.1002H2.33196C1.62708 15.1002 1.05566 14.5287 1.05566 13.8239V11.5779L3.51931 11.3169L5.97745 11.5779V13.8239C5.97745 14.5287 5.40604 15.1002 4.70115 15.1002Z" fill="#FFDFCF"/>
<path d="M5.97755 11.578V13.8239C5.97755 14.5289 5.40628 15.1002 4.70125 15.1002H4.00781C4.71284 15.1002 5.28411 14.5289 5.28411 13.8239V11.578L5.50335 11.5276L5.97755 11.578Z" fill="#FFCEBF"/>
<path d="M6.2519 10.2768L3.51933 10.6963L0.78125 10.2768C0.78125 9.10498 1.73121 8.15503 2.90305 8.15503H4.13009C5.30194 8.15503 6.2519 9.10498 6.2519 10.2768Z" fill="#FFD15B"/>
<path d="M6.2523 10.2769L5.74042 10.3553L5.64138 10.2769C5.64138 9.10489 4.69152 8.15503 3.51953 8.15503H4.1304C5.30195 8.15503 6.2523 9.10489 6.2523 10.2769Z" fill="#FFC344"/>
<path d="M2.50488 16.304L3.26675 17.8194C3.37023 18.0252 3.66408 18.0252 3.76761 17.8194L4.52948 16.304H2.50488Z" fill="#0593FC"/>
<path d="M4.52913 16.304L3.76692 17.8196C3.66339 18.0254 3.36955 18.0254 3.26611 17.8196L3.15625 17.601L3.80816 16.304H4.52913Z" fill="#0181FA"/>
<path d="M0 19.7297H7.0334V21.3339H0V19.7297Z" fill="#EAF6FF"/>
<path d="M7.03293 19.7297V21.3339H4.70874L5.11051 19.7297H7.03293ZM3.1543 19.7297H3.87864V21.3339H3.1543V19.7297Z" fill="#C8EFFE"/>
<path d="M3.51723 12.9911C3.42118 12.9911 3.32906 12.9529 3.26114 12.885C3.19322 12.8171 3.15506 12.725 3.15506 12.6289V11.5777C3.15506 11.3777 3.31717 11.2156 3.51723 11.2156C3.7173 11.2156 3.87941 11.3777 3.87941 11.5777V12.629C3.87939 12.725 3.84123 12.8171 3.77331 12.885C3.70539 12.9529 3.61328 12.9911 3.51723 12.9911ZM3.51723 14.3607C3.13256 14.3607 2.77883 14.1355 2.61605 13.787C2.57541 13.7 2.571 13.6003 2.60381 13.5101C2.63661 13.4198 2.70394 13.3462 2.79098 13.3056C2.87802 13.2649 2.97764 13.2605 3.06792 13.2933C3.1582 13.3261 3.23176 13.3935 3.2724 13.4805C3.31659 13.5752 3.41268 13.6364 3.51723 13.6364C3.62178 13.6364 3.71788 13.5752 3.76206 13.4805C3.80391 13.3954 3.87744 13.3302 3.96687 13.2987C4.0563 13.2672 4.1545 13.2721 4.2404 13.3122C4.3263 13.3523 4.39305 13.4245 4.42633 13.5133C4.45961 13.602 4.45677 13.7003 4.41842 13.787C4.25563 14.1356 3.90191 14.3607 3.51723 14.3607Z" fill="#FFCEBF"/>
<path d="M6.74443 10.5536V11.3012C6.74443 11.4538 6.62033 11.5779 6.46773 11.5779H0.56528C0.412684 11.5779 0.289062 11.4538 0.289062 11.3012V10.5536C0.289062 10.4006 0.412684 10.2769 0.56528 10.2769H2.4988C2.72383 10.2769 2.90588 10.0944 2.90588 9.86987V7.78954C2.90588 7.65626 3.01405 7.5481 3.14782 7.5481H3.8852C4.01896 7.5481 4.12713 7.65626 4.12713 7.78954V9.86987C4.12713 10.0944 4.30967 10.2769 4.53421 10.2769H6.46773C6.54112 10.2769 6.6115 10.3061 6.66339 10.358C6.71528 10.4099 6.74443 10.4803 6.74443 10.5536Z" fill="#FEA613"/>
<path d="M6.74477 10.5536V11.3012C6.74477 11.4538 6.62115 11.5779 6.46855 11.5779H5.77125C5.80758 11.5779 5.84356 11.5707 5.87713 11.5568C5.91071 11.5429 5.94121 11.5225 5.9669 11.4968C5.9926 11.4711 6.01298 11.4406 6.02688 11.4071C6.04079 11.3735 6.04795 11.3375 6.04795 11.3012V10.5536C6.04795 10.4006 5.92432 10.2769 5.77125 10.2769H6.46855C6.62115 10.2769 6.74477 10.4006 6.74477 10.5536ZM4.53479 10.2769H3.86646C3.6733 10.2769 3.51684 10.1205 3.51684 9.92781V7.78954C3.51684 7.65626 3.40867 7.5481 3.27539 7.5481H3.88577C4.01954 7.5481 4.1277 7.65626 4.1277 7.78954V9.86987C4.1277 10.0944 4.31024 10.2769 4.53479 10.2769Z" fill="#FE9901"/>
<path d="M19.4707 14.7344H21.4953V16.6693H19.4707V14.7344Z" fill="#FFDFCF"/>
<path d="M20.7744 14.7344H21.4954V16.6697H20.7744V14.7344Z" fill="#FFCEBF"/>
<path d="M24.0002 17.6358V19.7299L23.7003 20.5317L24.0002 21.3338V22.6617C24.0002 22.9346 23.779 23.1558 23.5061 23.1558H19.022L16.9668 21.3338V17.3465L19.4711 16.304L20.4833 16.6106L21.4959 16.304L23.7332 17.2355C23.8123 17.2683 23.8798 17.3239 23.9274 17.3951C23.9749 17.4664 24.0003 17.5501 24.0002 17.6358Z" fill="#FEA613"/>
<path d="M24.0002 17.6358V19.7298L23.7003 20.5317L24.0002 21.3338V22.6617C24.0002 22.9345 23.779 23.1558 23.5062 23.1558H22.8641C22.9834 23.123 23.0886 23.052 23.1636 22.9536C23.2386 22.8552 23.2792 22.7349 23.2792 22.6112V17.0461L23.7332 17.2352C23.8122 17.2682 23.8798 17.3238 23.9273 17.3951C23.9748 17.4663 24.0002 17.5501 24.0002 17.6358ZM20.8454 17.4083V23.1558H20.1211V17.4083C20.1211 17.2084 20.2833 17.0461 20.4833 17.0461C20.6837 17.0461 20.8454 17.2084 20.8454 17.4083Z" fill="#FE9901"/>
<path d="M21.6679 15.1001H19.2988C18.5939 15.1001 18.0225 14.5287 18.0225 13.8238V11.5778L20.4861 11.3352L22.9442 11.5778V13.8238C22.9442 14.5287 22.3728 15.1001 21.6679 15.1001Z" fill="#FFDFCF"/>
<path d="M22.9443 11.5779V13.8238C22.9443 14.5289 22.3731 15.1001 21.6681 15.1001H20.9746C21.6796 15.1001 22.2509 14.5289 22.2509 13.8238V11.5779L22.4224 11.5264L22.9443 11.5779Z" fill="#FFCEBF"/>
<path d="M23.2187 10.2768L20.4832 10.737L17.748 10.2768C17.748 9.10498 18.698 8.15503 19.8698 8.15503H21.0969C22.2687 8.15503 23.2187 9.10498 23.2187 10.2768Z" fill="#FFD15B"/>
<path d="M23.219 10.2769L22.7376 10.3577L22.6082 10.2769C22.6082 9.10489 21.6583 8.15503 20.4863 8.15503H21.0972C22.2687 8.15503 23.219 9.10489 23.219 10.2769Z" fill="#FFC344"/>
<path d="M19.4707 16.304L20.2046 17.7638C20.3196 17.9926 20.6463 17.9926 20.7614 17.7638L21.4953 16.304H19.4707Z" fill="#0593FC"/>
<path d="M21.4959 16.304L20.7617 17.764C20.6466 17.9928 20.32 17.9928 20.2049 17.7639L20.123 17.601L20.775 16.304H21.4959Z" fill="#0181FA"/>
<path d="M16.9668 19.7297H24.0002V21.3339H16.9668V19.7297Z" fill="#EAF6FF"/>
<path d="M20.1211 19.7297H20.8454V21.3339H20.1211V19.7297ZM23.2792 19.7297H24.0002V21.3339H23.2792V19.7297Z" fill="#C8EFFE"/>
<path d="M20.4831 12.9911C20.387 12.9911 20.2949 12.9529 20.227 12.885C20.159 12.8171 20.1209 12.725 20.1209 12.6289V11.5777C20.1209 11.3777 20.283 11.2156 20.4831 11.2156C20.6831 11.2156 20.8452 11.3777 20.8452 11.5777V12.629C20.8452 12.725 20.807 12.8171 20.7391 12.885C20.6712 12.9529 20.5791 12.9911 20.4831 12.9911ZM20.4831 14.3607C20.0984 14.3607 19.7447 14.1355 19.5819 13.787C19.5412 13.7 19.5368 13.6003 19.5696 13.5101C19.6024 13.4198 19.6698 13.3462 19.7568 13.3056C19.8438 13.2649 19.9435 13.2605 20.0337 13.2933C20.124 13.3261 20.1976 13.3935 20.2382 13.4805C20.2824 13.5752 20.3785 13.6364 20.4831 13.6364C20.5876 13.6364 20.6837 13.5752 20.7279 13.4805C20.7697 13.3954 20.8433 13.3302 20.9327 13.2987C21.0221 13.2672 21.1203 13.2721 21.2062 13.3122C21.2921 13.3523 21.3589 13.4245 21.3922 13.5133C21.4254 13.602 21.4226 13.7003 21.3842 13.787C21.2215 14.1356 20.8677 14.3607 20.4831 14.3607Z" fill="#FFCEBF"/>
<path d="M23.7112 10.5536V11.3012C23.7112 11.4538 23.5876 11.5779 23.435 11.5779H17.5326C17.38 11.5779 17.2559 11.4538 17.2559 11.3012V10.5536C17.2559 10.4803 17.285 10.4099 17.3369 10.358C17.3888 10.3061 17.4592 10.2769 17.5326 10.2769H19.482C19.6979 10.2769 19.8732 10.1017 19.8732 9.8858V7.78954C19.8732 7.65626 19.9813 7.5481 20.1146 7.5481H20.8525C20.9862 7.5481 21.0944 7.65626 21.0944 7.78954V9.8858C21.0944 10.1017 21.2692 10.2769 21.4851 10.2769H23.435C23.5876 10.2769 23.7112 10.4006 23.7112 10.5536Z" fill="#FEA613"/>
<path d="M23.7103 10.5536V11.3012C23.7103 11.4538 23.5867 11.5779 23.4341 11.5779H22.7368C22.8102 11.5779 22.8806 11.5487 22.9325 11.4968C22.9844 11.4449 23.0135 11.3746 23.0135 11.3012V10.5536C23.0135 10.4006 22.8899 10.2769 22.7368 10.2769H23.4341C23.5867 10.2769 23.7103 10.4006 23.7103 10.5536ZM21.4842 10.2769H20.8332C20.7403 10.2769 20.6511 10.24 20.5853 10.1743C20.5196 10.1085 20.4827 10.0193 20.4827 9.92637V7.78954C20.4827 7.65626 20.3745 7.5481 20.2412 7.5481H20.8516C20.9854 7.5481 21.0935 7.65626 21.0935 7.78954V9.8858C21.0935 10.1017 21.2683 10.2769 21.4842 10.2769Z" fill="#FE9901"/>
<path d="M10.5703 11.3352H13.4296V13.9228H10.5703V11.3352Z" fill="#FFDFCF"/>
<path d="M12.5459 11.3354H13.4301V13.9229H12.5459V11.3354ZM15.4756 9.26851C16.2991 9.26851 16.9666 8.601 16.9666 7.77757C16.9666 6.95413 16.2991 6.28662 15.4756 6.28662L15.1889 7.77757L15.4756 9.26851Z" fill="#FFCEBF"/>
<path d="M8.52415 9.26851C7.70071 9.26851 7.0332 8.601 7.0332 7.77757C7.0332 6.95413 7.70071 6.28662 8.52415 6.28662L8.78438 7.77757L8.52415 9.26851Z" fill="#FFDFCF"/>
<path d="M8.78517 7.77733L8.52489 9.26852C8.25302 9.26852 7.99853 9.1956 7.7793 9.06908V6.48606C8.00585 6.3549 8.26311 6.28609 8.52489 6.28662L8.78517 7.77733Z" fill="#FFCEBF"/>
<path d="M13.6728 11.779H10.3269C9.33138 11.779 8.52441 10.972 8.52441 9.97653V6.28656L11.9998 5.87842L15.4752 6.28656V9.97653C15.4752 10.972 14.6683 11.779 13.6728 11.779Z" fill="#FFDFCF"/>
<path d="M15.4756 6.28685V9.97667C15.4756 10.9724 14.6687 11.7793 13.6729 11.7793H12.8027C13.7985 11.7793 14.6054 10.9724 14.6054 9.97667V6.28685L14.8317 6.21118L15.4756 6.28685Z" fill="#FFCEBF"/>
<path d="M19.0221 23.1558H15.9625L12.0003 22.6611L8.03815 23.1558H4.97852L6.79373 15.9104C6.86664 15.6178 7.00524 15.3502 7.19501 15.1247L8.81224 14.4714L10.5705 13.479H13.4302L15.5206 14.6346L16.8056 15.1247C16.9954 15.3502 17.134 15.6178 17.2069 15.9104L19.0221 23.1558Z" fill="#0593FC"/>
<path d="M19.022 23.1558H18.1383L16.3231 15.9104C16.2508 15.6214 16.1136 15.3527 15.9218 15.1247C15.7196 14.8825 15.4618 14.6928 15.1704 14.5718L12.5459 13.479H13.4301L15.5205 14.6346L16.8055 15.1247C16.9953 15.3502 17.1339 15.6178 17.2068 15.9104L19.022 23.1558Z" fill="#0181FA"/>
<path d="M16.805 15.1247C16.2612 15.7488 15.9617 16.5487 15.9618 17.3765V18.3174L15.7834 19.5475L15.9618 20.5824V23.1558H8.03747V20.5824L8.43094 19.45L8.03747 18.3174V17.3765C8.03747 16.5459 7.73663 15.7472 7.19434 15.1247C7.39646 14.8824 7.65428 14.6927 7.94572 14.5718L10.5698 13.479L11.6375 15.1073L11.6949 15.1947C11.8388 15.4145 12.1605 15.4145 12.3044 15.1947L12.3618 15.1073L13.4295 13.479L16.0536 14.5718C16.345 14.6927 16.6028 14.8824 16.805 15.1247Z" fill="#FEA613"/>
<path d="M16.8052 15.1247C16.2614 15.7488 15.9619 16.5486 15.962 17.3764V18.3176L15.7836 19.5474L15.962 20.5824V23.1557H15.0779V17.3764C15.0779 16.6497 15.3082 15.9473 15.7291 15.3661C15.8409 15.2117 15.8184 14.9978 15.672 14.8757C15.5208 14.7497 15.3515 14.6472 15.1697 14.5718L13.24 13.7683L13.4298 13.479L16.0538 14.5718C16.3453 14.6927 16.6031 14.8824 16.8052 15.1247ZM12.362 15.1073V23.1557H11.6377V15.1073L11.6952 15.1947C11.8391 15.4144 12.1607 15.4144 12.3046 15.1947L12.362 15.1073Z" fill="#FE9901"/>
<path d="M8.03809 18.3176H15.9624V20.5824H8.03809V18.3176Z" fill="#EAF6FF"/>
<path d="M11.6377 18.3176H12.362V20.5824H11.6377V18.3176ZM15.0779 18.3176H15.962V20.5824H15.0779V18.3176Z" fill="#C8EFFE"/>
<path d="M11.9996 8.94246C11.9036 8.94246 11.8114 8.9043 11.7435 8.83638C11.6756 8.76846 11.6374 8.67634 11.6374 8.58028V7.41491C11.6374 7.21489 11.7995 7.05273 11.9996 7.05273C12.1997 7.05273 12.3618 7.21489 12.3618 7.41491V8.58028C12.3618 8.67634 12.3236 8.76846 12.2557 8.83638C12.1878 8.9043 12.0957 8.94246 11.9996 8.94246ZM11.9996 10.5858C11.5141 10.5858 11.0676 10.3016 10.8621 9.8617C10.8215 9.77466 10.8171 9.67504 10.8499 9.58476C10.8827 9.49447 10.95 9.42092 11.0371 9.38028C11.1241 9.33963 11.2237 9.33523 11.314 9.36803C11.4043 9.40084 11.4779 9.46817 11.5185 9.55521C11.6054 9.74127 11.7942 9.86151 11.9996 9.86151C12.205 9.86151 12.3938 9.74127 12.4807 9.55521C12.5214 9.46817 12.5949 9.40084 12.6852 9.36803C12.7755 9.33523 12.8751 9.33963 12.9621 9.38028C13.0492 9.42092 13.1165 9.49447 13.1493 9.58476C13.1821 9.67504 13.1777 9.77466 13.1371 9.8617C12.9316 10.3016 12.4852 10.5858 11.9996 10.5858Z" fill="#FFCEBF"/>
<path d="M15.8631 4.69804L15.2527 4.76371H15.2493L11.9574 5.11719L8.13672 4.69804C8.13672 4.0355 8.35209 3.42271 8.71668 2.92629L9.12907 2.85144L9.22227 2.39027C9.7409 1.96001 10.4068 1.70166 11.1336 1.70166H12.8662C13.593 1.70166 14.2589 1.96001 14.7775 2.39027L14.9214 2.77128L15.286 2.93015C15.6618 3.44291 15.864 4.06231 15.8631 4.69804Z" fill="#FFD15B"/>
<path d="M15.8628 4.69804L15.2524 4.76371H15.249L15.0481 4.69804C15.0481 3.04315 13.7066 1.70166 12.0518 1.70166H12.8659C13.5927 1.70166 14.2586 1.96001 14.7772 2.39027L14.9211 2.77128L15.2857 2.93015C15.6615 3.44291 15.8637 4.06231 15.8628 4.69804Z" fill="#FFC344"/>
<path d="M16.5585 5.08866V5.89607C16.5585 6.11192 16.3837 6.28673 16.1678 6.28673H7.83207C7.61621 6.28673 7.44141 6.11192 7.44141 5.89607V5.08866C7.44141 4.87281 7.61621 4.698 7.83207 4.698H10.7497C10.9637 4.698 11.1375 4.52416 11.1375 4.31023V1.1854C11.1375 0.997073 11.2901 0.843994 11.4789 0.843994H12.521C12.7093 0.843994 12.8624 0.997073 12.8624 1.1854V4.31023C12.8624 4.52416 13.0363 4.698 13.2502 4.698H16.1678C16.3837 4.698 16.5585 4.87281 16.5585 5.08866Z" fill="#FEA613"/>
<path d="M13.2504 4.698H12.3537C12.1871 4.698 12.0523 4.56327 12.0523 4.39667V1.1854C12.0523 0.997073 11.8993 0.843994 11.7109 0.843994H12.5212C12.7096 0.843994 12.8626 0.997073 12.8626 1.1854V4.31023C12.8626 4.52416 13.0365 4.698 13.2504 4.698Z" fill="#FE9901"/>
<path d="M9.98827 3.34289C9.95508 3.39217 9.91027 3.43252 9.85781 3.46039C9.80535 3.48827 9.74683 3.50281 9.68742 3.50273C9.61788 3.50273 9.54786 3.48245 9.48557 3.44092L8.7168 2.92615C8.8071 2.80301 8.90658 2.68664 9.01474 2.57895C9.0809 2.51279 9.15044 2.45002 9.22239 2.39014L9.89024 2.8402C10.0564 2.95175 10.0998 3.17678 9.98827 3.34289ZM15.2861 2.93002L14.7091 3.31199L14.5145 3.44092C14.4348 3.49458 14.3371 3.5144 14.2428 3.49601C14.1485 3.47763 14.0654 3.42255 14.0118 3.34289C13.9002 3.17678 13.9437 2.95175 14.1098 2.8402L14.2972 2.71368L14.7776 2.39014C14.9689 2.54853 15.1393 2.72961 15.2861 2.93002Z" fill="#FEA613"/>
<path d="M15.2858 2.93002L14.7088 3.31199C14.5963 3.09565 14.4577 2.89476 14.2969 2.71368L14.7774 2.39014C14.9686 2.54853 15.139 2.72961 15.2858 2.93002ZM16.5583 5.08857V5.89597C16.5583 6.11183 16.3835 6.28664 16.1676 6.28664H15.3583C15.5741 6.28664 15.7489 6.11183 15.7489 5.89597V5.08857C15.7489 4.87271 15.5741 4.6979 15.3583 4.6979H16.1676C16.3835 4.6979 16.5583 4.87271 16.5583 5.08857Z" fill="#FE9901"/>
</g>
<defs>
<clipPath id="clip0_1564_35697">
<rect width="24" height="24" fill="white"/>
</clipPath>
</defs>
</svg>
